<svg xmlns="http://www.w3.org/2000/svg" xml:space="preserve" width="1327" height="874"><g fill="#FFF"><path d="M1057.71 446.19c5.62-3.94 8.81-7.9 10.21-14.86 1.36-9.34-1.78-18.57-5.2-27.13-12.25-2.24-22.819-.12-33 6.73.7 3.22 1.931 6.32 3.7 9.12 5.46 8.94 12.8 16.49 19.79 24.24 1.19 1.1 2.7 3.56 4.5 1.9z"/><path d="M1220.27 116.7c-3.159-1.05-5.17 2.81-7.21 4.85-10.079 10.96-19.979 22.07-29.659 33.38-9.851 11.14-19.051 22.87-29.67 33.31-8.341 8.37-16.771 17.01-27.2 22.79-6.46 3.6-14.061 5.82-21.46 4.27-2.2-.4-3.69-2.2-5.181-3.69-8.359-8.97-16.83-17.83-25.239-26.75-3.25-3.43-6.341-7.06-10.12-9.93-24.09-18.52-47.25-35.43-74.15-49.55-5.5-2.89-16.63-10.63-19.52-8.09-2.44 5.21 6.01 16.83 7.699 20.12 10.69 20.68 24.381 39.93 32.971 61.66 3.81 9.63 6.21 19.65 7.39 29.93 1.53 13.35 1.89 27.91-4.57 40.11-6.279 11.85-16.699 20.49-26.92 28.81-11.41 9.29-23.949 17.01-36.1 25.26 1.51 14.14 10.17 26.29 19.35 36.65 11.13 12.06 24.33 22.01 38.061 30.9 3.74 2.28 7.3 5 11.5 6.43 1.04-8.59 1.64-17.24 2.899-25.81.92-6.12 7.511-9.95 13.351-9.55 5.97.47 11.229 3.78 15.859 7.35 11.12 8.97 19.61 20.63 27.65 32.31 3.67 5.67 7.59 11.23 10.54 17.32 5.49 13.83 10.42 28.06 18.479 40.67 3.33 5.14 7.16 10.25 12.521 13.43 3.37 1.89 8.34 2.43 11.16-.729 6.85-7.181 10.71-16.53 14.189-25.67 2.98-7.431 3.78-15.46 6.13-23.07 6.351-23.48 15.5-46.12 21.32-69.75 1.38-5.59 3.141-11.19 3.05-17.01 1.67-1.94 1.92-4.7 2.721-7.06 3.5-12.34 4.75-25.54 2.05-38.15 2.859-8.59 4.1-17.61 6.63-26.29 9.19-35.46 21.85-70.24 29.02-106.19.719-3.581 7.859-40.461 2.459-42.261zM1014.11 425.4c-21.7-12.11-42.811-25.89-60.33-43.67-9.96-10.06-18.681-21.55-24.36-34.58-1.21-2.93-2.14-5.98-3.729-8.74-.33-.58-42.271 18.05-45.79 19.45-17.83 7.11-36.29 12.69-55 16.96-10.091 2.31-20.25 4.29-30.44 6.15-20.03 3.67-40.15 4.94-60.41 6.69-23.42 2.02-46.8 4.94-70.05 8.38-6.55.97-13.09 1.99-19.62 3.06-7.57 1.24-15.12 2.56-22.66 3.97-7.99 1.49-15.95 3.18-23.8 5.28-16.55 4.43-32.84 10.36-48.58 17.12-9.17 3.93-17.97 8.67-26.43 13.95-8.42 5.54-16.75 11.21-25 17-2.26 1.561-4.56 3.22-7.29 3.811-25.85 5.6-51.99 8.659-78.45 6.659a261.69 261.69 0 0 1-22.66-2.699c-16.79-2.75-33.33-7.07-49.43-12.57a355.815 355.815 0 0 1-72.15-33.97c-6.24-3.85-12.36-7.92-18.31-12.2-5.91-4.24-11.68-8.66-17.3-13.26-23.85-19.5-44.7-42.69-61.36-68.62-4.32-7.46-7.95-15.3-12.18-22.81-2.99-5.32-6.76-11.42-11.97-14.84-4.29-2.83-10.06-3.85-15.07-2.68a25.17 25.17 0 0 0-7.17 2.92c-9.31 5.55-15.21 16.78-11.91 27.58 1.31 4.29 3.85 8.03 6.49 11.61 8.81 11.94 24.07 18.6 36.42 26.15 3.93 2.39 7.83 4.83 11.68 7.33 13.56 8.82 25.99 19.22 38.32 29.65 6.97 5.89 13.9 11.82 21.01 17.53 19.82 15.9 40.52 31.07 62.14 44.42 24.01 14.82 49.73 27.19 77.56 32.761 8.35 1.67 19.85 3.409 22.48 13.13 2.56 9.42-7.72 14.439-14.11 18.649-10.69 7.03-20.95 14.7-31.72 21.62-20.99 13.47-40.97 26.8-58.44 44.811-4.78 4.92-9.37 10.02-13.81 15.25-8.43 9.939-21.01 19.27-24.47 32.42-2.17 8.22.93 16.449 7.99 21.21 7.2 4.859 16.9 5.479 24.79 1.989 8.55-3.779 13.72-11.8 17.1-20.18 2.25-5.56 3.87-11.37 5.39-17.16 2.01-7.699 2.38-15.46 6.52-22.449 4.22-7.141 10.12-13.091 16.04-18.83 8.01-7.78 17.32-14.181 27.1-19.54 5.51-3.011 11.28-5.62 17.15-7.87 20.47-7.87 42.13-11.311 63.33-16.58 14.69-3.65 29.86-7.16 43.34-14.26 8.35-4.4 17.43-8.9 27.14-7.271 15.03 2.53 28.39 18.08 36.73 29.79 8.88 12.46 16.06 26.061 21.55 40.33 3.09 8.06 5.89 16.27 8.47 24.51 2.94 9.42 5.23 19.021 7.84 28.521 2.59 9.43 5.42 18.85 6.6 28.59.56 4.58.15 9.1-3.02 12.75-4.67 5.37-11.79 7.11-18.42 8.71-4.71 1.13-14.04 2.26-14.78 8.41-1.1 9.189 7.1 12.939 14.37 14.63 27.08 6.27 56.52 5.01 83.97 3.24 8.04-.521 16.08-1.03 24.13-1.391 7.89-.35 18.66-.02 23.84-6.569 4.87-6.15 3.21-10.891-2.49-14.99-3.18-2.29-6.8-3.72-10.489-4.93-10.86-3.591-24.601-10.091-21.22-24.171 5.06-21.04 8.95-42.3 14.9-63.14 1.75-6.11 3.61-12.189 5.64-18.22 3.32-9.86 7.07-19.59 11.37-29.061 3.93-8.649 7.87-18.659 15.98-24.27 6.43-4.46 14.279-6.65 21.949-7.74 12.33-1.76 24.78-1.83 37.2-1.37 11.07.41 28-2.54 35.37 8.181 19.97 29.04 40.44 58.14 55.78 89.979 5.95 12.34 10.96 25.37 12.79 39.021.97 7.17 2.359 16.439-2.36 22.649-4.8 6.32-13.689 5.74-20.08 9.36-5.649 3.189-8.89 6.72-7.569 14 1.449 8.02 17.569 8.56 21.619 9 22.601 2.479 46.57 1.8 69.37.72 6.78-.33 13.54-.79 20.301-1.45 6.939-.67 13.939-.31 20.899-.88 6.07-.49 18.78-.91 16.75-10.42-2.109-9.87-19.71-11.71-27.41-13.89-5.27-1.5-12.01-3.21-14.59-8.62-3.31-6.92 3.78-13.42 5.96-19.33 3.67-9.97 5.25-20.561 7.7-30.86 2.62-10.989 5.75-21.859 9.2-32.63 7.09-22.14 15.54-43.82 22.92-65.859 1.92-5.75 3.6-11.561 5.399-17.33 4.13-13.231 22.35-74.361 15.84-78.001zM1088.65 550.55c-1.061-6.6-2.2-13.189-3.511-19.75-.27-1.37-.55-2.74-.83-4.109-.199-.971-.399-1.94-.609-2.91-2.101-10.12-4.41-20.19-6.86-30.23-1.75-7.16-3.58-14.3-5.46-21.42-.06-.229-.12-.45-.17-.68a.726.726 0 0 1-.04-.141c-.21-.819-.41-1.63-.6-2.449-.24-.971-.471-1.95-.69-2.92-.37-1.61-.729-3.221-1.09-4.82-.65-2.9-.96-6.7-2.4-9.33-.229.66-3.109 1.84-3.75 2.25-1.3.83-2.58 1.69-3.88 2.51-1.439.92-3.26 2.87-5.13 2.58-2.1-.34-4.46-3.8-5.91-5.2.73.71.36 3.45.391 4.351.069 2.029.159 4.05.27 6.069.25 4.521.61 9.051.73 13.58.199 7.16.64 14.29 1.1 21.431.3 4.689.56 9.38.6 14.08.08 7.649.08 15.29.32 22.949 0 6.17.42 12.37.61 18.54.17 5.33.31 10.65.38 15.98.1 6.649.28 13.28-.04 19.92-.25 5.29-.771 11.37 1.97 16.15 1.98 3.43 4.891 6.27 6.66 9.819.55 1.11 1.71 3.24 3.23 5.95.199.36.409.73.619 1.12 5.591 9.95 15.091 26.35 17.94 31.33-.33-.58 3.9-7.15 4.35-8.09 1.42-2.9 2.681-5.86 3.78-8.891 5.28-14.479 5.91-29.77 4.311-44.96-1.511-14.259-4.021-28.549-6.291-42.709z"/></g><path d="M1254.7 113.42c-1.24-11.01-2.88-24.93-12.75-32.06-4.71-3.4-10.82-5.29-16.59-4.71-17.681 1.77-32.391 14.69-43.94 27.05-12.7 13.59-23.91 28.41-36 42.54-2.1 2.46-28 34.14-30.66 31.47-14.7-14.76-28.66-29-45.64-41.28a524.454 524.454 0 0 0-69.97-42.67c-12.28-6.23-25.19-13.18-38.87-15.67-5.71-1.04-11.601-1.08-17.101.95-6.109 2.26-10.41 5.46-12.97 9.57-3.17 5.08-3.68 11.56-1.67 19.4 2.01 7.87 4.77 15.54 7.97 23 11.67 27.14 28.9 51.4 41.771 77.93 3.21 6.63 6.149 13.17 6.479 20.63.25 5.49.63 11.02.141 16.511-1.669 18.732-21.5 28.484-35.235 37.768-17.313 11.702-35.545 21.626-54.51 30.391-21.467 9.921-44.267 18.083-67.065 24.351-49.63 14.3-101.51 16.38-152.609 21.43-11.53 1.48-22.96 3.6-34.4 5.59-35.12 6.63-70.19 14.9-103.24 28.75-16.52 6.91-32.3 15.61-46.75 26.21-4.89 3.14-9.21 7.52-15 8.96-39.24 8.371-80.54 5.75-118.74-6.32-41.06-12.74-78.67-35.08-111.68-62.4-24.71-21.03-43.19-48.39-57.69-77.2-2.27-4.33-4.23-8.39-7.37-12.71-8.55-11.74-22.77-19.12-37.3-21.6-14.17-2.43-28.88 1.86-40.54 9.99-9.34 6.58-17.82 15.34-21.6 26.32-4.65 17.57-3.91 37.36 5.39 53.34 7.62 13.5 20.52 23.1 34.28 29.71 17.76 8.63 32.32 22.18 47.75 34.23 20.57 16.42 40.91 33.15 61.62 49.39 30.27 20.52 61.25 40.66 95.48 53.97-1.02.96-2.04 1.92-3.16 2.76-30.04 20.46-57.94 42.28-81.77 69.931-8.32 9.649-17.53 18.689-24.18 29.659-6.22 10.261-6.35 23.881-6.04 35.521.19 7.51 2.99 16.63 7.89 22.38 15.35 17.98 49.91 20.96 71.55 17.53 30.01-4.75 40.3-44.59 44.81-69.79.63-3.521 1.2-7.41 4.11-9.851 15.04-14.42 33.86-24.109 52.92-32.109 6.55-2.891 29.1-6.83 36.01-8.28 23.4-4.09 31.13-6.52 53.1-15.56 5.1-1.971 10.01-4.58 15.43-5.631 12.2 10.98 21.87 24.65 28.86 39.48 8.98 18.61 13.32 38.94 18.17 58.9.92 3.479 1.86 6.979 2.28 10.579-10.49 4.431-21.27 9.82-27.92 19.471-6.46 8.81-7.22 20.859-3.43 30.92 9.27 24.609 38.15 32.84 62.77 36.46 28.74 4.21 51.38 1.38 77.09.55 14.6-.479 29.32-1.07 43.85-3.37 5.42-.85 11.29-3.359 15.739-6.52 17.25-12.271 24.851-38.16 12.511-56.351-4.891-7.22-11.88-11.72-19.2-16.18-2.98-1.81-11.8-5.55-11.32-9.68 1.8-15.641 5.32-31.061 9.66-46.181 4.88-15.979 10.43-31.859 18.35-46.609 2.91-5.42 7.87-5.86 13.431-5.94 7.479-.09 14.83-.8 22.26-1.63 5.71-.64 12.98-2.39 18.54-.26 5.82 2.22 8.24 9.42 10.85 14.51 12.16 23.73 27.62 45.67 38.61 70.021 1.76 3.88 7.7 13.699 6.22 17.899-.67 1.9-2.72 2.851-4.14 4.15-6.38 5.84-13.63 11.39-18.03 19.01-3.859 6.67-5.22 15.02-5.7 22.61-2.42 38.069 46.7 39.689 73.03 41.6 20.3 1.46 41.08 1.9 61.38.17 17.62-1.5 35.95-2.9 53.24-6.67 10.14-2.22 21-6.09 26.76-15.32 5.99-9.6 4.761-23.96-.359-33.79-6.271-12.87-18.32-21.5-30.08-28.97-2.82-1.45-1.21-4.92-.83-7.28 12.45-47.67 28.689-94.22 43.79-141.09.35-1.39 1.05-2.649 2.279-3.439 1.41 35.71 2.66 71.449 2.521 107.189-.12 1.87.72 3.58 1.85 5.03 13.471 17.77 24.15 37.53 33.051 57.95 2.81 6.12 4.829 12.59 8 18.56 4.439-6.31 7.8-13.29 11.659-19.95 7.391-13.76 15-27.85 17.771-43.38 1.87-14.16-.49-28.399-1.92-42.49-2.83-22.8-6.33-45.529-11.26-67.97-1.341-7.51-4.86-15.18-4.99-22.819 8.56 5.439 16.3 12.5 26.58 14.5 19.75 3.84 40.22-7.73 49.819-24.83 7.9-14.57 12.82-30.53 16.36-46.66 3.8-17.31 11.41-34.22 16.93-51.07 2.561-7.81 4.69-15.77 6.49-23.79 1.98-8.81 3.57-17.7 4.93-26.63 4.681-30.53 6.69-60.86 15.851-90.53 6.87-22.23 14.76-44.14 20.87-66.61 1.97-7.22 3.5-14.61 4.609-22.02 2.027-13.681 2.107-27.181.557-40.921zM998.27 503.4c-1.8 5.77-3.479 11.58-5.399 17.33-7.38 22.039-15.83 43.72-22.92 65.859-3.45 10.771-6.58 21.641-9.2 32.63-2.45 10.3-4.03 20.891-7.7 30.86-2.18 5.91-9.27 12.41-5.96 19.33 2.58 5.41 9.32 7.12 14.59 8.62 7.7 2.18 25.301 4.02 27.41 13.89 2.03 9.51-10.68 9.93-16.75 10.42-6.96.57-13.96.21-20.899.88-6.761.66-13.521 1.12-20.301 1.45-22.8 1.08-46.77 1.76-69.37-.72-4.05-.44-20.17-.98-21.619-9-1.32-7.28 1.92-10.811 7.569-14 6.391-3.62 15.28-3.04 20.08-9.36 4.72-6.21 3.33-15.479 2.36-22.649-1.83-13.65-6.84-26.681-12.79-39.021-15.34-31.84-35.811-60.939-55.78-89.979-7.37-10.721-24.3-7.771-35.37-8.181-12.42-.46-24.87-.39-37.2 1.37-7.67 1.09-15.52 3.28-21.949 7.74-8.11 5.61-12.051 15.62-15.98 24.27-4.3 9.471-8.05 19.2-11.37 29.061-2.029 6.03-3.89 12.109-5.64 18.22-5.95 20.84-9.84 42.1-14.9 63.14-3.38 14.08 10.36 20.58 21.22 24.171 3.689 1.21 7.31 2.64 10.489 4.93 5.7 4.1 7.36 8.84 2.49 14.99-5.18 6.55-15.95 6.22-23.84 6.569-8.05.36-16.09.87-24.13 1.391-27.45 1.77-56.89 3.029-83.97-3.24-7.27-1.69-15.47-5.44-14.37-14.63.74-6.15 10.07-7.28 14.78-8.41 6.63-1.6 13.75-3.34 18.42-8.71 3.17-3.65 3.58-8.17 3.02-12.75-1.18-9.74-4.01-19.16-6.6-28.59-2.61-9.5-4.9-19.101-7.84-28.521-2.58-8.24-5.38-16.45-8.47-24.51-5.49-14.27-12.67-27.87-21.55-40.33-8.34-11.71-21.7-27.26-36.73-29.79-9.71-1.63-18.79 2.87-27.14 7.271-13.48 7.1-28.65 10.609-43.34 14.26-21.2 5.27-42.86 8.71-63.33 16.58-5.87 2.25-11.64 4.859-17.15 7.87-9.78 5.359-19.09 11.76-27.1 19.54-5.92 5.739-11.82 11.689-16.04 18.83-4.14 6.989-4.51 14.75-6.52 22.449-1.52 5.79-3.14 11.601-5.39 17.16-3.38 8.38-8.55 16.4-17.1 20.18-7.89 3.49-17.59 2.87-24.79-1.989-7.06-4.761-10.16-12.99-7.99-21.21 3.46-13.15 16.04-22.48 24.47-32.42 4.44-5.23 9.03-10.33 13.81-15.25 17.47-18.011 37.45-31.341 58.44-44.811 10.77-6.92 21.03-14.59 31.72-21.62 6.39-4.21 16.67-9.229 14.11-18.649-2.63-9.721-14.13-11.46-22.48-13.13-27.83-5.57-53.55-17.94-77.56-32.761-21.62-13.35-42.32-28.52-62.14-44.42-7.11-5.71-14.04-11.64-21.01-17.53-12.33-10.43-24.76-20.83-38.32-29.65-3.85-2.5-7.75-4.94-11.68-7.33-12.35-7.55-27.61-14.21-36.42-26.15-2.64-3.58-5.18-7.32-6.49-11.61-3.3-10.8 2.6-22.03 11.91-27.58a25.17 25.17 0 0 1 7.17-2.92c5.01-1.17 10.78-.15 15.07 2.68 5.21 3.42 8.98 9.52 11.97 14.84 4.23 7.51 7.86 15.35 12.18 22.81 16.66 25.93 37.51 49.12 61.36 68.62 5.62 4.6 11.39 9.02 17.3 13.26 5.95 4.28 12.07 8.35 18.31 12.2a355.815 355.815 0 0 0 72.15 33.97c16.1 5.5 32.64 9.82 49.43 12.57a261.69 261.69 0 0 0 22.66 2.699c26.46 2 52.6-1.06 78.45-6.659 2.73-.591 5.03-2.25 7.29-3.811 8.25-5.79 16.58-11.46 25-17 8.46-5.28 17.26-10.02 26.43-13.95 15.74-6.76 32.03-12.69 48.58-17.12 7.85-2.1 15.81-3.79 23.8-5.28 7.54-1.41 15.09-2.73 22.66-3.97 6.53-1.07 13.07-2.09 19.62-3.06 23.25-3.44 46.63-6.36 70.05-8.38 20.26-1.75 40.38-3.02 60.41-6.69 10.19-1.86 20.35-3.84 30.44-6.15 18.71-4.27 37.17-9.85 55-16.96 3.52-1.4 45.46-20.03 45.79-19.45 1.59 2.76 2.52 5.81 3.729 8.74 5.68 13.03 14.4 24.52 24.36 34.58 17.52 17.78 38.63 31.56 60.33 43.67 6.51 3.641-11.71 64.771-15.84 78.001zm35.15-83.35c-1.77-2.8-3-5.9-3.7-9.12 10.181-6.85 20.75-8.97 33-6.73 3.42 8.56 6.561 17.79 5.2 27.13-1.4 6.96-4.59 10.92-10.21 14.86-1.8 1.659-3.31-.801-4.5-1.9-6.99-7.75-14.33-15.3-19.79-24.24zm61.52 173.21c1.6 15.19.97 30.48-4.311 44.96-1.1 3.03-2.36 5.99-3.78 8.891-.449.939-4.68 7.51-4.35 8.09-2.85-4.98-12.35-21.38-17.94-31.33-.21-.39-.42-.76-.619-1.12-1.521-2.71-2.681-4.84-3.23-5.95-1.77-3.55-4.68-6.39-6.66-9.819-2.74-4.78-2.22-10.86-1.97-16.15.32-6.64.14-13.271.04-19.92-.07-5.33-.21-10.65-.38-15.98-.19-6.17-.61-12.37-.61-18.54-.24-7.659-.24-15.3-.32-22.949-.04-4.7-.3-9.391-.6-14.08-.46-7.141-.9-14.271-1.1-21.431-.12-4.529-.48-9.06-.73-13.58-.11-2.02-.2-4.04-.27-6.069-.03-.9.34-3.641-.391-4.351 1.45 1.4 3.811 4.86 5.91 5.2 1.87.29 3.69-1.66 5.13-2.58 1.3-.819 2.58-1.68 3.88-2.51.641-.41 3.521-1.59 3.75-2.25 1.44 2.63 1.75 6.43 2.4 9.33.36 1.6.72 3.21 1.09 4.82.22.97.45 1.949.69 2.92.189.819.39 1.63.6 2.449.01.051.021.091.04.141.05.229.11.45.17.68 1.88 7.12 3.71 14.26 5.46 21.42 2.45 10.04 4.76 20.11 6.86 30.23.21.97.41 1.939.609 2.91.28 1.369.561 2.739.83 4.109 1.311 6.561 2.45 13.15 3.511 19.75 2.271 14.159 4.781 28.449 6.291 42.709zm122.87-434.3c-7.17 35.95-19.829 70.73-29.02 106.19-2.53 8.68-3.771 17.7-6.63 26.29 2.7 12.61 1.45 25.81-2.05 38.15-.801 2.36-1.051 5.12-2.721 7.06.091 5.82-1.67 11.42-3.05 17.01-5.82 23.63-14.97 46.27-21.32 69.75-2.35 7.61-3.149 15.64-6.13 23.07-3.479 9.14-7.34 18.489-14.189 25.67-2.82 3.159-7.79 2.619-11.16.729-5.36-3.18-9.19-8.29-12.521-13.43-8.06-12.61-12.989-26.84-18.479-40.67-2.95-6.09-6.87-11.65-10.54-17.32-8.04-11.68-16.53-23.34-27.65-32.31-4.63-3.57-9.89-6.88-15.859-7.35-5.84-.4-12.431 3.43-13.351 9.55-1.26 8.57-1.859 17.22-2.899 25.81-4.2-1.43-7.76-4.15-11.5-6.43-13.73-8.89-26.931-18.84-38.061-30.9-9.18-10.36-17.84-22.51-19.35-36.65 12.15-8.25 24.689-15.97 36.1-25.26 10.221-8.32 20.641-16.96 26.92-28.81 6.46-12.2 6.101-26.76 4.57-40.11-1.18-10.28-3.58-20.3-7.39-29.93-8.59-21.73-22.28-40.98-32.971-61.66-1.689-3.29-10.14-14.91-7.699-20.12 2.89-2.54 14.02 5.2 19.52 8.09 26.9 14.12 50.061 31.03 74.15 49.55 3.779 2.87 6.87 6.5 10.12 9.93 8.409 8.92 16.88 17.78 25.239 26.75 1.49 1.49 2.98 3.29 5.181 3.69 7.399 1.55 15-.67 21.46-4.27 10.43-5.78 18.859-14.42 27.2-22.79 10.619-10.44 19.819-22.17 29.67-33.31 9.68-11.31 19.58-22.42 29.659-33.38 2.04-2.04 4.051-5.9 7.21-4.85 5.401 1.801-1.739 38.681-2.459 42.261z"/><path d="M1053.833 550.4h2.917v2.917h-2.917zM1053.833 555.765h2.917v2.916h-2.917zM1053.833 561.128h2.917v2.917h-2.917zM1053.833 566.492h2.917v2.918h-2.917zM1053.833 571.856h2.917v2.917h-2.917zM1059.366 550.4h2.917v2.917h-2.917zM1059.366 555.765h2.917v2.916h-2.917zM1059.366 561.128h2.917v2.917h-2.917zM1059.366 566.492h2.917v2.918h-2.917zM1059.283 545.036h2.917v2.917h-2.917zM1064.899 550.4h2.917v2.917h-2.917zM1064.899 555.765h2.917v2.916h-2.917zM1064.899 561.128h2.917v2.917h-2.917zM1064.816 539.672h2.917v2.918h-2.917zM1064.816 545.036h2.917v2.917h-2.917zM1070.433 550.4h2.917v2.917h-2.917zM1070.433 555.765h2.917v2.916h-2.917zM1070.35 534.308h2.917v2.917h-2.917zM1070.35 539.672h2.917v2.918h-2.917zM1070.35 545.036h2.917v2.917h-2.917zM1075.966 550.4h2.917v2.917h-2.917zM1075.883 528.944h2.917v2.916h-2.917zM1075.883 534.308h2.917v2.917h-2.917zM1075.883 539.672h2.917v2.918h-2.917zM1075.883 545.036h2.917v2.917h-2.917zM1081.416 528.944h2.917v2.916h-2.917zM1081.416 523.777h2.917v2.916h-2.917zM1081.416 534.308h2.917v2.917h-2.917zM1081.416 539.672h2.917v2.918h-2.917zM1081.416 545.036h2.917v2.917h-2.917zM1051.78 487.398h2.917v2.917h-2.917zM1051.78 492.763h2.917v2.916h-2.917zM1051.78 498.126h2.917v2.917h-2.917zM1051.78 503.49h2.917v2.918h-2.917zM1051.697 482.034h2.917v2.917h-2.917zM1057.313 487.398h2.917v2.917h-2.917zM1057.313 492.763h2.917v2.916h-2.917zM1057.313 498.126h2.917v2.917h-2.917zM1057.23 476.67h2.917v2.918h-2.917zM1057.23 482.034h2.917v2.917h-2.917zM1062.847 487.398h2.917v2.917h-2.917zM1062.847 492.763h2.917v2.916h-2.917zM1062.764 471.306h2.917v2.917h-2.917zM1062.764 476.67h2.917v2.918h-2.917zM1062.764 482.034h2.917v2.917h-2.917zM1068.38 487.398h2.917v2.917h-2.917zM1068.297 465.942h2.917v2.916h-2.917zM1068.297 471.306h2.917v2.917h-2.917zM1068.297 476.67h2.917v2.918h-2.917zM1068.297 482.034h2.917v2.917h-2.917zM1069.212 610.225h2.917v2.917h-2.917zM1069.212 615.589h2.917v2.916h-2.917zM1063.941 615.589h2.917v2.916h-2.917zM1069.212 620.952h2.917v2.917h-2.917zM1063.941 620.952h2.917v2.917h-2.917zM1069.212 626.316h2.917v2.918h-2.917zM1069.212 631.754h2.917v2.918h-2.917zM1074.745 610.225h2.917v2.917h-2.917zM1074.745 615.589h2.917v2.916h-2.917zM1074.745 620.952h2.917v2.917h-2.917zM1074.745 626.316h2.917v2.918h-2.917zM1074.662 604.86h2.917v2.917h-2.917zM1080.278 610.225h2.917v2.917h-2.917zM1080.278 615.589h2.917v2.916h-2.917zM1080.278 620.952h2.917v2.917h-2.917zM1080.195 599.496h2.917v2.918h-2.917zM1080.195 604.86h2.917v2.917h-2.917zM1085.812 610.225h2.917v2.917h-2.917zM1085.812 615.589h2.917v2.916h-2.917zM1085.729 594.132h2.917v2.917h-2.917zM1085.729 599.496h2.917v2.918h-2.917zM1085.729 604.86h2.917v2.917h-2.917zM1091.345 610.225h2.917v2.917h-2.917zM1091.262 588.769h2.917v2.916h-2.917zM1091.262 594.132h2.917v2.917h-2.917zM1091.262 599.496h2.917v2.918h-2.917zM1091.262 604.86h2.917v2.917h-2.917z"/><g fill="#DA2028"><path d="M1114.92 320.57c-2.87 11.03-7.91 22.82-18.7 28.16-5.26 2.37-11.63 6.15-17.279 2.81-13.32-6.4-22.7-19.72-24.98-34.24-3.9-19.72 4.91-42.26 22.87-52.08 8.229-1.99 17.62-.24 24.2 5.27 7.33 6.28 10.91 15.75 12.97 24.94 1.559 8.23 3.589 16.91.919 25.14zM1180.11 329.59c-.801 2.36-1.051 5.12-2.721 7.06-4.93 4.2-10.189 8.86-16.88 9.66-5.229.13-10.27-1.97-14.649-4.66-7.5-4.69-11.721-13.17-13.36-21.63-2.32-12.9.69-26.46 7.33-37.66 1.67-2.93 4.16-5.44 7.34-6.69 6.07-2.68 13.54-4.48 19.67-.96 6.7 3.85 10.82 10.68 15.32 16.73 2.7 12.61 1.45 25.81-2.05 38.15z"/></g></svg>