<?xml version="1.0" encoding="UTF-8"?>
<svg version="1.1" xmlns="http://www.w3.org/2000/svg" width="949" height="56">
<path d="M0 0 C313.17 0 626.34 0 949 0 C949 18.48 949 36.96 949 56 C635.83 56 322.66 56 0 56 C0 37.52 0 19.04 0 0 Z " fill="#3E6D4C" transform="translate(0,0)"/>
<path d="M0 0 C36.80815281 -0.19842213 73.61580114 -0.36459352 110.42433575 -0.45958797 C114.77019613 -0.47084428 119.11605538 -0.48249319 123.46191406 -0.49438477 C124.32709386 -0.49674556 125.19227366 -0.49910635 126.08367103 -0.50153869 C140.09140593 -0.5406974 154.0988083 -0.61165647 168.10634595 -0.69437516 C182.48012157 -0.77854848 196.85372307 -0.82853092 211.22773504 -0.84679645 C220.09701514 -0.85914394 228.96535536 -0.89813511 237.83434612 -0.9712482 C243.91674456 -1.01883437 249.99865737 -1.03319851 256.08122844 -1.0215124 C259.59062582 -1.01574889 263.09838158 -1.02455918 266.60748672 -1.07284927 C270.41578344 -1.11760637 274.22005334 -1.10687858 278.02844238 -1.08229065 C279.13351466 -1.10850622 280.23858693 -1.1347218 281.37714624 -1.16173178 C285.9199391 -1.08239912 288.83468607 -0.95354261 292.42647457 1.98551381 C294.44166871 4.2407342 296.23037431 6.55031477 298 9 C299.25296875 10.27423828 299.25296875 10.27423828 300.53125 11.57421875 C304.99804392 16.36893207 306.44929536 19.44304695 306.25 26.0625 C306.18167969 27.25230469 306.11335938 28.44210938 306.04296875 29.66796875 C305.94601067 37.18662687 310.04415436 42.8889866 314.984375 48.26953125 C318.2638979 51.08509064 321.94475066 52.60227234 326 54 C324 56 324 56 321.67410553 56.24839699 C320.69062987 56.24763755 319.70715421 56.24687811 318.69387627 56.24609566 C317.561274 56.25007775 316.42867174 56.25405985 315.26174819 56.25816262 C313.37948585 56.24942409 313.37948585 56.24942409 311.459198 56.24050903 C310.12103574 56.24138048 308.78287381 56.24313034 307.44471371 56.24568737 C303.75507918 56.25017685 300.06555992 56.24213538 296.37594008 56.23213124 C292.40184126 56.22352198 288.42774932 56.22641511 284.4536438 56.22793579 C277.5641004 56.22898625 270.67459478 56.22269291 263.78506088 56.21146011 C253.82386558 56.19522977 243.86268861 56.18999964 233.90148152 56.18748413 C217.74143956 56.18310314 201.58141774 56.16978312 185.42138672 56.15087891 C169.72021587 56.13253053 154.01905049 56.11836893 138.31787109 56.10986328 C137.35060997 56.10933783 136.38334885 56.10881239 135.38677679 56.10827102 C130.53447901 56.10566101 125.68218118 56.10313358 120.82988334 56.10064721 C80.55324076 56.07990215 40.27662326 56.04411657 0 56 C0 37.52 0 19.04 0 0 Z " fill="#91C47C" transform="translate(0,0)"/>
<path d="M0 0 C42.24 0 84.48 0 128 0 C128 20 128 20 127 23 C130.3 23 133.6 23 137 23 C136.67 24.65 136.34 26.3 136 28 C134.68 27.67 133.36 27.34 132 27 C132 29.31 132 31.62 132 34 C132.66 34 133.32 34 134 34 C134 34.99 134 35.98 134 37 C131.03 37 128.06 37 125 37 C124.93941406 37.95261719 124.87882812 38.90523437 124.81640625 39.88671875 C124.69072266 41.76810547 124.69072266 41.76810547 124.5625 43.6875 C124.44068359 45.54955078 124.44068359 45.54955078 124.31640625 47.44921875 C124 51 124 51 123 56 C82.41 56 41.82 56 0 56 C0 37.52 0 19.04 0 0 Z " fill="#3E6D4C" transform="translate(0,0)"/>
<path d="M0 0 C5.66880111 3.69241325 9.90824279 8.51278822 12 15 C13.2467819 24.24443168 12.64444373 32.36928367 7 40 C1.94936951 45.89031348 -4.08277998 48.35205007 -11.66796875 49.3515625 C-19.75217197 49.78484843 -25.99746616 47.53519467 -32.07421875 42.16796875 C-37.23808077 36.67933553 -40.04668802 31.12680802 -40.375 23.5625 C-39.99831007 15.1159527 -37.14751591 9.05999836 -31.296875 2.953125 C-22.64901486 -4.40049757 -9.91842975 -5.55937464 0 0 Z " fill="#4D4E4D" transform="translate(347,4)"/>
<path d="M0 0 C5.25168857 4.03583071 8.73554077 8.43152594 10 15 C11.03766518 23.4295722 9.93852765 30.00375249 5 37 C0.27540319 42.42411235 -5.30281835 45.30583522 -12.37890625 46.3515625 C-19.20113365 46.75726616 -24.41519743 44.87937628 -30 41 C-35.17204137 36.35294027 -39.35166323 30.95840657 -40.27734375 23.87890625 C-40.59475043 16.55315999 -38.85161249 9.95797127 -34.25 4.1875 C-25.24134034 -5.47103809 -11.10931544 -7.10576969 0 0 Z " fill="#F6F6F5" transform="translate(46,7)"/>
<path d="M0 0 C6.084375 -0.0825 12.16875 -0.165 18.4375 -0.25 C20.33943115 -0.28641602 22.2413623 -0.32283203 24.20092773 -0.36035156 C40.33602321 -0.54142067 40.33602321 -0.54142067 47 4 C47.65653564 4.44585449 48.31307129 4.89170898 48.98950195 5.35107422 C55.00959228 9.70731209 58.56631408 16.78768204 60 24 C60.60792246 32.96685627 58.39645831 40.16278643 52.73828125 47.2109375 C47.47221477 52.63084413 40.51711277 56.03940289 32.92236328 56.22705078 C31.38830995 56.22655672 29.85422985 56.21574328 28.3203125 56.1953125 C27.59900146 56.19329834 26.87769043 56.19128418 26.13452148 56.18920898 C23.46461541 56.17882024 20.79480067 56.15089814 18.125 56.125 C9.153125 56.063125 9.153125 56.063125 0 56 C0 37.52 0 19.04 0 0 Z M11 12 C6.84705949 18.5314428 4.96174601 25.27345871 6 33 C8.89897208 41.88656863 14.40692314 47.36323366 22.375 51.9375 C29.72845843 54.09282402 36.03622081 53.73351082 42.8984375 50.25390625 C49.64381779 46.22924626 54.00623538 41.77330847 56 34 C56.92378187 26.03238135 56.50452043 18.62520718 51.55859375 12.09765625 C46.77530292 6.84824427 41.3644576 3.54789197 34.26171875 2.65625 C24.84441399 2.34364237 17.32665448 4.82229809 11 12 Z " fill="#49644E" transform="translate(0,0)"/>
<path d="M0 0 C5.65597997 3.68406211 9.9360632 8.51465192 12 15 C12.86876294 22.7692229 13.02101763 30.13076155 9 37 C8.67 37 8.34 37 8 37 C7.99589111 36.35973877 7.99178223 35.71947754 7.98754883 35.05981445 C7.95453962 32.14312095 7.88388974 29.22849616 7.8125 26.3125 C7.80669922 25.30509766 7.80089844 24.29769531 7.79492188 23.25976562 C7.76591797 22.28330078 7.73691406 21.30683594 7.70703125 20.30078125 C7.6913208 19.40528564 7.67561035 18.50979004 7.65942383 17.5871582 C6.70113452 13.82744264 5.05775672 12.33610139 2 10 C-1.36687898 9.22673831 -1.36687898 9.22673831 -5.05078125 9.29296875 C-5.70958786 9.27784744 -6.36839447 9.26272614 -7.04716492 9.24714661 C-9.135962 9.20441434 -11.2233102 9.19544735 -13.3125 9.1875 C-14.73506417 9.16434386 -16.15759417 9.13897617 -17.58007812 9.11132812 C-21.05335804 9.04862384 -24.52615613 9.01617216 -28 9 C-28.268125 9.598125 -28.53625 10.19625 -28.8125 10.8125 C-30 13 -30 13 -31.59741211 14.47631836 C-33.44780573 16.48646746 -33.39406382 17.67811999 -33.44140625 20.37890625 C-33.46783203 21.21744141 -33.49425781 22.05597656 -33.52148438 22.91992188 C-33.53501953 23.79197266 -33.54855469 24.66402344 -33.5625 25.5625 C-33.59688399 27.29316061 -33.63945962 29.02368373 -33.69140625 30.75390625 C-33.70373291 31.52033447 -33.71605957 32.2867627 -33.72875977 33.07641602 C-34 35 -34 35 -36 37 C-40.11279656 29.23342435 -41.27249649 23.05528089 -39 14.5 C-36.62048568 8.18045266 -32.39099505 3.08849364 -26.640625 -0.453125 C-18.08454539 -4.32243489 -8.30903078 -4.65729114 0 0 Z " fill="#F8F8F6" transform="translate(347,4)"/>
<path d="M0 0 C14.19 0 28.38 0 43 0 C39.37966899 6.03388502 36.20587113 8.70532127 29.75 11.3125 C20.22804951 13.05819092 13.19455301 12.42373293 5 7 C3.00901696 5.42156299 1.61472902 3.99149913 0 2 C0 1.34 0 0.68 0 0 Z " fill="#FCFCFB" transform="translate(312,41)"/>
<path d="M0 0 C1.21816406 0.03480469 1.21816406 0.03480469 2.4609375 0.0703125 C3.68683594 0.09738281 3.68683594 0.09738281 4.9375 0.125 C5.87722656 0.15980469 5.87722656 0.15980469 6.8359375 0.1953125 C6.8359375 1.5153125 6.8359375 2.8353125 6.8359375 4.1953125 C4.8559375 4.1953125 2.8759375 4.1953125 0.8359375 4.1953125 C1.9496875 4.4840625 3.0634375 4.7728125 4.2109375 5.0703125 C7.8359375 6.1953125 7.8359375 6.1953125 9.8359375 8.1953125 C14.64716597 6.66975284 14.64716597 6.66975284 17.8359375 3.1953125 C17.2584375 3.5253125 16.6809375 3.8553125 16.0859375 4.1953125 C13.8359375 5.1953125 13.8359375 5.1953125 9.8359375 5.1953125 C10.7109375 1.3203125 10.7109375 1.3203125 11.8359375 0.1953125 C13.83203125 0.02734375 13.83203125 0.02734375 16.2734375 0.0078125 C17.47806641 -0.01345703 17.47806641 -0.01345703 18.70703125 -0.03515625 C20.8359375 0.1953125 20.8359375 0.1953125 22.8359375 2.1953125 C23.49985041 6.31157252 23.8359375 10.02380079 23.8359375 14.1953125 C19.5459375 14.1953125 15.2559375 14.1953125 10.8359375 14.1953125 C10.5059375 13.2053125 10.1759375 12.2153125 9.8359375 11.1953125 C9.28421875 11.68644531 8.7325 12.17757812 8.1640625 12.68359375 C5.37223681 14.49640674 3.87408009 14.5126076 0.5859375 14.3828125 C-0.30609375 14.35574219 -1.198125 14.32867187 -2.1171875 14.30078125 C-2.79265625 14.26597656 -3.468125 14.23117188 -4.1640625 14.1953125 C-4.1640625 11.86197917 -4.1640625 9.52864583 -4.1640625 7.1953125 C-4.2053125 6.3703125 -4.2465625 5.5453125 -4.2890625 4.6953125 C-4.12512236 1.4165096 -3.33536822 0.30102601 0 0 Z " fill="#19261C" transform="translate(537.1640625,26.8046875)"/>
<path d="M0 0 C2.64 0 5.28 0 8 0 C8.33 2.97 8.66 5.94 9 9 C9.33 9 9.66 9 10 9 C10.09278428 5.65976579 9.82810826 3.31243305 9 0 C11.97 0 14.94 0 18 0 C17.814375 0.7425 17.62875 1.485 17.4375 2.25 C17.00796892 4.94990963 17.14877026 6.44631077 18 9 C18.99 7.02 19.98 5.04 21 3 C20.34 3 19.68 3 19 3 C19 2.01 19 1.02 19 0 C21.64 0 24.28 0 27 0 C27 0.99 27 1.98 27 3 C26.55011719 3.42925781 26.10023438 3.85851562 25.63671875 4.30078125 C23.36344631 6.66086123 22.78199953 9.07841531 21.8125 12.1875 C21.46832031 13.27417969 21.12414062 14.36085938 20.76953125 15.48046875 C20.38861328 16.72763672 20.38861328 16.72763672 20 18 C18.35 18.33 16.7 18.66 15 19 C14.67 17.02 14.34 15.04 14 13 C13.34 13 12.68 13 12 13 C11.67 14.98 11.34 16.96 11 19 C9.35 19 7.7 19 6 19 C5.32586789 17.08594633 4.6609668 15.16863974 4 13.25 C3.62875 12.18265625 3.2575 11.1153125 2.875 10.015625 C2 7 2 7 2 3 C1.34 3 0.68 3 0 3 C0 2.01 0 1.02 0 0 Z " fill="#162118" transform="translate(381,22)"/>
<path d="M0 0 C8.58 0 17.16 0 26 0 C26 5.61 26 11.22 26 17 C22.7 17 19.4 17 16 17 C16.66 11.72 17.32 6.44 18 1 C17.01 1 16.02 1 15 1 C14.67 2.32 14.34 3.64 14 5 C13.67 3.68 13.34 2.36 13 1 C12.01 1 11.02 1 10 1 C10 2.98 10 4.96 10 7 C9.34 7 8.68 7 8 7 C8 5.02 8 3.04 8 1 C7.01 1 6.02 1 5 1 C5.66 6.28 6.32 11.56 7 17 C4.69 17 2.38 17 0 17 C0 11.39 0 5.78 0 0 Z " fill="#F0F0EF" transform="translate(328,22)"/>
<path d="M0 0 C1.875 0.6875 1.875 0.6875 2.875 1.6875 C3.3125 4 3.3125 4 2.875 6.6875 C0.0625 8.75 0.0625 8.75 -3.125 10.6875 C-5.93247428 13.4013918 -6.11223568 14.43221357 -6.3125 18.4375 C-6.2196875 20.04625 -6.2196875 20.04625 -6.125 21.6875 C-8.105 22.6775 -8.105 22.6775 -10.125 23.6875 C-9.5990625 22.7903125 -9.5990625 22.7903125 -9.0625 21.875 C-7.79195302 19.57936786 -7.79195302 19.57936786 -9.125 16.6875 C-11.435 18.6675 -13.745 20.6475 -16.125 22.6875 C-17.445 21.0375 -18.765 19.3875 -20.125 17.6875 C-18.145 15.3775 -16.165 13.0675 -14.125 10.6875 C-17.99310875 11.65452719 -18.85402194 12.06664543 -21.5625 14.625 C-23.82175215 16.68019067 -25.06335138 17.666057 -28 18.6875 C-28.70125 19.0175 -29.4025 19.3475 -30.125 19.6875 C-31.37817339 23.21205017 -31.45491213 24.94085676 -29.9375 28.375 C-27.45774261 31.54849886 -27.45774261 31.54849886 -24.125 33.6875 C-20.54166667 33.77083333 -20.54166667 33.77083333 -17.125 32.6875 C-15.16212176 30.77011145 -15.16212176 30.77011145 -14.125 28.6875 C-14.875 33.4375 -14.875 33.4375 -17.125 35.6875 C-22.41250449 36.12090201 -25.88217264 36.20298553 -30.125 32.6875 C-32.54221895 29.77016678 -33.3695006 27.34009934 -33.625 23.625 C-33.125 19.6875 -33.125 19.6875 -31 17.375 C-28.125 15.6875 -28.125 15.6875 -25 14.1875 C-22.0399458 12.95477012 -22.0399458 12.95477012 -20.8125 10.5625 C-19.125 8.6875 -19.125 8.6875 -17.12109375 8.421875 C-16.33863281 8.38578125 -15.55617188 8.3496875 -14.75 8.3125 C-11.34593386 8.11899689 -11.34593386 8.11899689 -8.53125 6.37109375 C-7.33425001 4.85659681 -6.22549513 3.27350769 -5.125 1.6875 C-2.125 -0.3125 -2.125 -0.3125 0 0 Z " fill="#414140" transform="translate(48.125,12.3125)"/>
<path d="M0 0 C1.91015625 0.23046875 1.91015625 0.23046875 3.91015625 2.23046875 C4.10546875 4.39453125 4.10546875 4.39453125 4.03515625 6.85546875 C4.01710938 7.67273438 3.9990625 8.49 3.98046875 9.33203125 C3.94566406 10.27175781 3.94566406 10.27175781 3.91015625 11.23046875 C5.56015625 11.23046875 7.21015625 11.23046875 8.91015625 11.23046875 C8.40563406 7.48258963 7.82856392 3.90409941 6.91015625 0.23046875 C10.87015625 0.23046875 14.83015625 0.23046875 18.91015625 0.23046875 C18.58015625 1.88046875 18.25015625 3.53046875 17.91015625 5.23046875 C16.59015625 4.90046875 15.27015625 4.57046875 13.91015625 4.23046875 C13.91015625 6.54046875 13.91015625 8.85046875 13.91015625 11.23046875 C14.57015625 11.23046875 15.23015625 11.23046875 15.91015625 11.23046875 C15.91015625 12.22046875 15.91015625 13.21046875 15.91015625 14.23046875 C8.32015625 14.23046875 0.73015625 14.23046875 -7.08984375 14.23046875 C-7.74984375 12.91046875 -8.40984375 11.59046875 -9.08984375 10.23046875 C-7.38358874 7.446579 -6.61357636 6.37662669 -3.40234375 5.48046875 C-2.25765625 5.35671875 -2.25765625 5.35671875 -1.08984375 5.23046875 C-1.08984375 4.57046875 -1.08984375 3.91046875 -1.08984375 3.23046875 C-2.07984375 3.23046875 -3.06984375 3.23046875 -4.08984375 3.23046875 C-4.08984375 3.89046875 -4.08984375 4.55046875 -4.08984375 5.23046875 C-5.40984375 5.23046875 -6.72984375 5.23046875 -8.08984375 5.23046875 C-6.84682804 -0.27431511 -5.68834769 0.11356048 0 0 Z " fill="#18241A" transform="translate(118.08984375,22.76953125)"/>
<path d="M0 0 C2.10353495 -0.0810206 4.20795952 -0.13919907 6.3125 -0.1875 C7.48425781 -0.22230469 8.65601563 -0.25710937 9.86328125 -0.29296875 C13 0 13 0 14.89453125 1.296875 C16.76298435 4.17548119 16.34955175 6.67925838 16 10 C14.875 12.4375 14.875 12.4375 13 14 C9.8125 14.25 9.8125 14.25 7 14 C7 14.99 7 15.98 7 17 C7.66 17 8.32 17 9 17 C9 17.99 9 18.98 9 20 C5.7 20 2.4 20 -1 20 C-1 19.01 -1 18.02 -1 17 C-0.34 17 0.32 17 1 17 C1 12.38 1 7.76 1 3 C0.34 3 -0.32 3 -1 3 C-0.67 2.01 -0.34 1.02 0 0 Z " fill="#18251B" transform="translate(506,27)"/>
<path d="M0 0 C3.11154813 3.79665964 5.96507198 7.71321509 8.75 11.75 C9.16121094 12.33910156 9.57242188 12.92820312 9.99609375 13.53515625 C13 17.87634967 13 17.87634967 13 19 C4.75 19 -3.5 19 -12 19 C-10.59187825 15.47969563 -9.72319962 13.33823537 -7.6171875 10.44921875 C-7.17246094 9.83369141 -6.72773437 9.21816406 -6.26953125 8.58398438 C-5.57923828 7.64522461 -5.57923828 7.64522461 -4.875 6.6875 C-4.17310547 5.71973633 -4.17310547 5.71973633 -3.45703125 4.73242188 C-2.3094071 3.15151106 -1.15534523 1.57527699 0 0 Z " fill="#CD3A34" transform="translate(704,37)"/>
<path d="M0 0 C0 1.98 0 3.96 0 6 C1.11375 5.95875 2.2275 5.9175 3.375 5.875 C7 6 7 6 9 8 C9.1953125 10.1640625 9.1953125 10.1640625 9.125 12.625 C9.10695313 13.44226562 9.08890625 14.25953125 9.0703125 15.1015625 C9.04710937 15.72804688 9.02390625 16.35453125 9 17 C9.66 17 10.32 17 11 17 C11 17.99 11 18.98 11 20 C5.06 20 -0.88 20 -7 20 C-7 19.01 -7 18.02 -7 17 C-6.34 17 -5.68 17 -5 17 C-5 12.71 -5 8.42 -5 4 C-5.66 4 -6.32 4 -7 4 C-7 3.01 -7 2.02 -7 1 C-4 0 -4 0 0 0 Z " fill="#162118" transform="translate(477,21)"/>
<path d="M0 0 C0 5.61 0 11.22 0 17 C0.66 17 1.32 17 2 17 C2 17.99 2 18.98 2 20 C-0.10353495 20.0810206 -2.20795952 20.13919907 -4.3125 20.1875 C-5.48425781 20.22230469 -6.65601563 20.25710937 -7.86328125 20.29296875 C-11 20 -11 20 -12.89453125 18.73828125 C-14.85812022 15.65065902 -14.52847823 12.52318822 -14 9 C-12.875 7 -12.875 7 -11 6 C-7.8125 5.8125 -7.8125 5.8125 -5 6 C-5 5.34 -5 4.68 -5 4 C-5.66 4 -6.32 4 -7 4 C-7 3.01 -7 2.02 -7 1 C-4 0 -4 0 0 0 Z " fill="#172219" transform="translate(152,17)"/>
<path d="M0 0 C0 1.98 0 3.96 0 6 C2.97 6 5.94 6 9 6 C9 6.99 9 7.98 9 9 C7.35 9.33 5.7 9.66 4 10 C6.37629089 14.14670039 6.37629089 14.14670039 10 17 C10 17.99 10 18.98 10 20 C4.39 20 -1.22 20 -7 20 C-7 19.01 -7 18.02 -7 17 C-6.34 17 -5.68 17 -5 17 C-5 12.71 -5 8.42 -5 4 C-5.99 3.67 -6.98 3.34 -8 3 C-8 2.34 -8 1.68 -8 1 C-5.10765685 0.17361624 -3.11257569 0 0 0 Z " fill="#17241A" transform="translate(445,21)"/>
<path d="M0 0 C2.42992142 2.23752295 4.00222414 4.54528179 5.6875 7.375 C9.7172769 13.5399572 15.10408459 16.62952908 22 19 C22 19.33 22 19.66 22 20 C13.75 20 5.5 20 -3 20 C-3.42857143 6.14285714 -3.42857143 6.14285714 0 0 Z " fill="#3F6D4C" transform="translate(3,36)"/>
<path d="M0 0 C8.25 0 16.5 0 25 0 C22.66161642 1.55892239 20.7801505 2.54209559 18.25 3.625 C12.41711689 6.49839445 8.3533155 11.17568939 5.5625 17 C5.376875 17.66 5.19125 18.32 5 19 C4.34 19 3.68 19 3 19 C-1.09493318 13.02822245 -0.21631329 7.06623415 0 0 Z " fill="#3F6D4C" transform="translate(0,0)"/>
<path d="M0 0 C3.96 0 7.92 0 12 0 C12 5.61 12 11.22 12 17 C8.04 17 4.08 17 0 17 C0 11.39 0 5.78 0 0 Z " fill="#FFFFFE" transform="translate(314,22)"/>
<path d="M0 0 C2.5625 1.5625 2.5625 1.5625 4 4 C3.93957505 7.44422213 3.60093625 9.90417507 1.9375 12.9375 C-1.26225258 14.69220303 -4.4994894 14.626852 -8 14 C-10.5 12.375 -10.5 12.375 -12 10 C-12.60024477 6.39853135 -12.45562482 4.72140596 -10.5 1.625 C-6.98827684 -0.65762005 -4.07600894 -0.80853347 0 0 Z " fill="#17231A" transform="translate(587,27)"/>
<path d="M0 0 C2 3 2 3 2 7 C1.01 7 0.02 7 -1 7 C-1.66 6.01 -2.32 5.02 -3 4 C-5.54207971 3.66656449 -5.54207971 3.66656449 -8 4 C-9.89885096 5.89885096 -9.12367506 8.57247903 -9.1328125 11.08984375 C-9.11686861 13.08634367 -9.11686861 13.08634367 -8 15 C-5.69 15 -3.38 15 -1 15 C-0.67 14.01 -0.34 13.02 0 12 C0.99 12.33 1.98 12.66 3 13 C0.25 17.875 0.25 17.875 -2 19 C-6.7040151 19.6469176 -9.99101607 19.63833677 -14.0625 17.0625 C-16.67564127 12.93205089 -17.02423723 9.75969066 -16 5 C-12.40260495 -1.07835715 -6.48574297 -1.25328367 0 0 Z " fill="#17231A" transform="translate(91,18)"/>
<path d="M0 0 C0.7734375 -0.00773437 1.546875 -0.01546875 2.34375 -0.0234375 C5.01753038 0.47063061 5.89906739 1.20194727 7.5 3.375 C7.99573337 7.27004791 8.08016848 9.46993717 5.9375 12.8125 C2.58147594 14.96379747 0.41578329 14.86447291 -3.5 14.375 C-5.9375 13.375 -5.9375 13.375 -7.5 11.375 C-8.00266516 8.63319003 -8.10994112 6.10050267 -7.5 3.375 C-5.33394841 0.37376237 -3.62343088 -0.03623431 0 0 Z " fill="#162118" transform="translate(496.5,26.625)"/>
<path d="M0 0 C0.7734375 -0.00773437 1.546875 -0.01546875 2.34375 -0.0234375 C5.01753038 0.47063061 5.89906739 1.20194727 7.5 3.375 C7.99573337 7.27004791 8.08016848 9.46993717 5.9375 12.8125 C2.58147594 14.96379747 0.41578329 14.86447291 -3.5 14.375 C-5.9375 13.375 -5.9375 13.375 -7.5 11.375 C-8.00266516 8.63319003 -8.10994112 6.10050267 -7.5 3.375 C-5.33394841 0.37376237 -3.62343088 -0.03623431 0 0 Z " fill="#162118" transform="translate(415.5,26.625)"/>
<path d="M0 0 C0.99 0.33 1.98 0.66 3 1 C2.67 1.969375 2.34 2.93875 2 3.9375 C0.00559008 11.12026617 0.39385443 17.17048289 3.74609375 23.86328125 C7.73444813 30.65963591 12.2361607 34.95239403 20 37 C26.50985973 37.82664886 32.04506805 37.07034063 38.125 34.65625 C40 34 40 34 43 34 C41.7934375 34.928125 41.7934375 34.928125 40.5625 35.875 C37.96125481 37.74164041 37.96125481 37.74164041 37 40 C37.99 40.495 37.99 40.495 39 41 C35.39598519 41.08701039 31.79223988 41.14039388 28.1875 41.1875 C27.16333984 41.21263672 26.13917969 41.23777344 25.08398438 41.26367188 C23.60961914 41.27817383 23.60961914 41.27817383 22.10546875 41.29296875 C21.19949951 41.3086792 20.29353027 41.32438965 19.36010742 41.34057617 C16.51565466 40.93010637 15.82627679 40.14268641 14 38 C13.0925 37.443125 12.185 36.88625 11.25 36.3125 C4.81484299 31.73363828 -0.45438509 25.92478919 -2 18 C-2.57118382 11.62485156 -2.14300879 6.02721223 0 0 Z " fill="#4D674E" transform="translate(307,15)"/>
<path d="M0 0 C1.20462891 -0.02126953 1.20462891 -0.02126953 2.43359375 -0.04296875 C4.5625 0.1875 4.5625 0.1875 6.5625 2.1875 C6.7578125 4.3515625 6.7578125 4.3515625 6.6875 6.8125 C6.66945312 7.62976563 6.65140625 8.44703125 6.6328125 9.2890625 C6.59800781 10.22878906 6.59800781 10.22878906 6.5625 11.1875 C7.5525 11.5175 8.5425 11.8475 9.5625 12.1875 C9.2325 12.8475 8.9025 13.5075 8.5625 14.1875 C6.43777424 14.24136629 4.31266348 14.28023071 2.1875 14.3125 C0.41246094 14.34730469 0.41246094 14.34730469 -1.3984375 14.3828125 C-4.4375 14.1875 -4.4375 14.1875 -6.4375 12.1875 C-6.44921875 9.62109375 -6.44921875 9.62109375 -6.125 6.625 C-6.02574219 5.63371094 -5.92648438 4.64242188 -5.82421875 3.62109375 C-5.17917153 -0.43814281 -3.78316944 0.03026536 0 0 Z " fill="#212F21" transform="translate(161.4375,22.8125)"/>
<path d="M0 0 C1.21816406 0.03480469 1.21816406 0.03480469 2.4609375 0.0703125 C3.68683594 0.09738281 3.68683594 0.09738281 4.9375 0.125 C5.87722656 0.15980469 5.87722656 0.15980469 6.8359375 0.1953125 C6.8359375 1.5153125 6.8359375 2.8353125 6.8359375 4.1953125 C4.8559375 4.1953125 2.8759375 4.1953125 0.8359375 4.1953125 C3.1459375 4.8553125 5.4559375 5.5153125 7.8359375 6.1953125 C8.5234375 8.5078125 8.5234375 8.5078125 8.8359375 11.1953125 C7.6796875 12.8515625 7.6796875 12.8515625 5.8359375 14.1953125 C3.35546875 14.48828125 3.35546875 14.48828125 0.6484375 14.3828125 C-0.25261719 14.35574219 -1.15367187 14.32867187 -2.08203125 14.30078125 C-2.76910156 14.26597656 -3.45617187 14.23117188 -4.1640625 14.1953125 C-4.1640625 11.86197917 -4.1640625 9.52864583 -4.1640625 7.1953125 C-4.2053125 6.3703125 -4.2465625 5.5453125 -4.2890625 4.6953125 C-4.12512236 1.4165096 -3.33536822 0.30102601 0 0 Z " fill="#18261C" transform="translate(460.1640625,26.8046875)"/>
<path d="M0 0 C1.21816406 0.03480469 1.21816406 0.03480469 2.4609375 0.0703125 C3.68683594 0.09738281 3.68683594 0.09738281 4.9375 0.125 C5.87722656 0.15980469 5.87722656 0.15980469 6.8359375 0.1953125 C6.8359375 1.5153125 6.8359375 2.8353125 6.8359375 4.1953125 C4.8559375 4.1953125 2.8759375 4.1953125 0.8359375 4.1953125 C3.1459375 4.8553125 5.4559375 5.5153125 7.8359375 6.1953125 C8.5234375 8.5078125 8.5234375 8.5078125 8.8359375 11.1953125 C7.6796875 12.8515625 7.6796875 12.8515625 5.8359375 14.1953125 C3.35546875 14.48828125 3.35546875 14.48828125 0.6484375 14.3828125 C-0.25261719 14.35574219 -1.15367188 14.32867187 -2.08203125 14.30078125 C-2.76910156 14.26597656 -3.45617187 14.23117188 -4.1640625 14.1953125 C-4.1640625 11.86197917 -4.1640625 9.52864583 -4.1640625 7.1953125 C-4.2053125 6.3703125 -4.2465625 5.5453125 -4.2890625 4.6953125 C-4.12512236 1.4165096 -3.33536822 0.30102601 0 0 Z " fill="#18261C" transform="translate(99.1640625,22.8046875)"/>
<path d="M0 0 C0.99 0 1.98 0 3 0 C3 1.98 3 3.96 3 6 C3.66 6 4.32 6 5 6 C5 4.02 5 2.04 5 0 C5.99 0 6.98 0 8 0 C8.33 0.99 8.66 1.98 9 3 C9.33 2.01 9.66 1.02 10 0 C10.99 0 11.98 0 13 0 C12.85930804 2.12534659 12.71229079 4.25027529 12.5625 6.375 C12.48128906 7.55835938 12.40007812 8.74171875 12.31640625 9.9609375 C12 13 12 13 11 15 C10.01 15 9.02 15 8 15 C7.67 13.35 7.34 11.7 7 10 C6.34 11.65 5.68 13.3 5 15 C4.01 15 3.02 15 2 15 C0.73694665 9.92523206 -0.27036084 5.27203646 0 0 Z " fill="#20201F" transform="translate(333,23)"/>
<path d="M0 0 C1.17829199 2.35658397 1.04414372 3.52573236 0.87890625 6.1328125 C0.83056641 6.93847656 0.78222656 7.74414062 0.73242188 8.57421875 C0.64831055 9.83685547 0.64831055 9.83685547 0.5625 11.125 C0.51029297 11.97449219 0.45808594 12.82398438 0.40429688 13.69921875 C0.27448622 15.79979124 0.1378826 17.89994191 0 20 C3.96 20 7.92 20 12 20 C12 13.73 12 7.46 12 1 C20.91 0.67 29.82 0.34 39 0 C39 0.99 39 1.98 39 3 C30.75 3 22.5 3 14 3 C14.03957481 8.54973121 14.03957481 8.54973121 14.09008789 14.09936523 C14.09723091 16.06645974 14.05031893 18.03353621 14 20 C13 21 13 21 9.62109375 21.09765625 C8.22652923 21.09098369 6.83198257 21.07902532 5.4375 21.0625 C4.72658203 21.05798828 4.01566406 21.05347656 3.28320312 21.04882812 C1.52209987 21.03700864 -0.23896036 21.01907263 -2 21 C-1.86179731 17.6871348 -1.71316222 14.37482011 -1.5625 11.0625 C-1.52318359 10.11697266 -1.48386719 9.17144531 -1.44335938 8.19726562 C-1.40146484 7.29814453 -1.35957031 6.39902344 -1.31640625 5.47265625 C-1.27974854 4.64000244 -1.24309082 3.80734863 -1.20532227 2.94946289 C-1 1 -1 1 0 0 Z " fill="#4A4A49" transform="translate(314,19)"/>
<path d="M0 0 C4.0829596 -0.14518182 8.16525641 -0.23403347 12.25 -0.3125 C13.40886719 -0.35439453 14.56773437 -0.39628906 15.76171875 -0.43945312 C24.37401805 -0.56390832 24.37401805 -0.56390832 27.796875 2.51953125 C28.19390625 3.33808594 28.5909375 4.15664063 29 5 C24.9170404 5.14518182 20.83474359 5.23403347 16.75 5.3125 C15.59113281 5.35439453 14.43226563 5.39628906 13.23828125 5.43945312 C4.62598195 5.56390832 4.62598195 5.56390832 1.203125 2.48046875 C0.80609375 1.66191406 0.4090625 0.84335938 0 0 Z " fill="#FFFEFD" transform="translate(323,15)"/>
<path d="M0 0 C0.33 0 0.66 0 1 0 C1 5.94 1 11.88 1 18 C-2.96 18 -6.92 18 -11 18 C-9.22445948 13.5611487 -7.15832915 10.04308255 -4.4375 6.1875 C-4.02564453 5.59001953 -3.61378906 4.99253906 -3.18945312 4.37695312 C-2.15591414 2.8968441 -1.08145584 1.44546837 0 0 Z " fill="#DA5F59" transform="translate(703,38)"/>
<path d="M0 0 C0 1.32 0 2.64 0 4 C1.32 4 2.64 4 4 4 C4 4.99 4 5.98 4 7 C2.68 7 1.36 7 0 7 C0.33 9.31 0.66 11.62 1 14 C1.99 13.67 2.98 13.34 4 13 C4 14.32 4 15.64 4 17 C3 18 3 18 0.0625 18.1875 C-3 18 -3 18 -5 16 C-5.1953125 13.8359375 -5.1953125 13.8359375 -5.125 11.375 C-5.10695313 10.55773438 -5.08890625 9.74046875 -5.0703125 8.8984375 C-5.04710937 8.27195312 -5.02390625 7.64546875 -5 7 C-5.66 7 -6.32 7 -7 7 C-7 4 -7 4 -5.1875 1.8125 C-3 0 -3 0 0 0 Z " fill="#172319" transform="translate(569,23)"/>
<path d="M0 0 C3.63 0 7.26 0 11 0 C11.33 1.32 11.66 2.64 12 4 C10.35 4 8.7 4 7 4 C7 6.31 7 8.62 7 11 C7.66 11 8.32 11 9 11 C9 11.99 9 12.98 9 14 C6.03 14 3.06 14 0 14 C0 13.01 0 12.02 0 11 C0.66 11 1.32 11 2 11 C1.49547781 7.25212088 0.91840767 3.67363066 0 0 Z " fill="#162118" transform="translate(592,27)"/>
<path d="M0 0 C3.63 0 7.26 0 11 0 C11.33 1.32 11.66 2.64 12 4 C10.35 4 8.7 4 7 4 C7 6.31 7 8.62 7 11 C7.66 11 8.32 11 9 11 C9 11.99 9 12.98 9 14 C6.03 14 3.06 14 0 14 C0 13.01 0 12.02 0 11 C0.66 11 1.32 11 2 11 C1.49547781 7.25212088 0.91840767 3.67363066 0 0 Z " fill="#162118" transform="translate(425,27)"/>
<path d="M0 0 C0 3.3 0 6.6 0 10 C-3.64793184 11.27253436 -7.1936543 12.32829194 -11 13 C-11.33 11.68 -11.66 10.36 -12 9 C-10.68 8.67 -9.36 8.34 -8 8 C-8.061875 7.05125 -8.12375 6.1025 -8.1875 5.125 C-8.125625 4.09375 -8.06375 3.0625 -8 2 C-5 0 -5 0 0 0 Z " fill="#858585" transform="translate(23,14)"/>
<path d="M0 0 C1.65 0 3.3 0 5 0 C5.66 5.61 6.32 11.22 7 17 C4.69 17 2.38 17 0 17 C0 11.39 0 5.78 0 0 Z " fill="#FEFEFD" transform="translate(328,22)"/>
<path d="M0 0 C2.1519437 3.22791555 2.20086443 4.28400809 2 8 C2.84304688 8.04898438 3.68609375 8.09796875 4.5546875 8.1484375 C6.19824219 8.26058594 6.19824219 8.26058594 7.875 8.375 C8.96554687 8.44460937 10.05609375 8.51421875 11.1796875 8.5859375 C14 9 14 9 16 11 C1.81 11 -12.38 11 -27 11 C-27 10.67 -27 10.34 -27 10 C-14.13 9.01 -14.13 9.01 -1 8 C-0.67 5.36 -0.34 2.72 0 0 Z " fill="#6D6D6C" transform="translate(339,30)"/>
<path d="M0 0 C0.66 0 1.32 0 2 0 C0.43525633 4.22480792 -2.45364158 6.35761529 -6 9 C-6.928125 9.309375 -7.85625 9.61875 -8.8125 9.9375 C-11.31171944 10.83546599 -11.31171944 10.83546599 -12 13.8125 C-12 18.43291402 -10.32323941 20.58224348 -7.25 23.875 C-3.84826678 25.57586661 -1.59884825 24.98150407 2 24 C3.96287824 22.08261145 3.96287824 22.08261145 5 20 C4.25 24.75 4.25 24.75 2 27 C-3.28750449 27.43340201 -6.75717264 27.51548553 -11 24 C-13.41721895 21.08266678 -14.2445006 18.65259934 -14.5 14.9375 C-14 11 -14 11 -11.875 8.6875 C-9 7 -9 7 -5.875 5.5 C-2.91494757 3.95562482 -1.85331375 2.68730493 0 0 Z " fill="#454544" transform="translate(29,21)"/>
<path d="M0 0 C0.99 0.99 1.98 1.98 3 3 C2.175 4.010625 1.35 5.02125 0.5 6.0625 C-2.17261016 9.75145487 -2.46733615 12.42010577 -2 17 C-3.98 17.99 -3.98 17.99 -6 19 C-5.649375 18.4225 -5.29875 17.845 -4.9375 17.25 C-3.85082593 14.64198224 -4.06934867 13.60582371 -5 11 C-5.598125 11.309375 -6.19625 11.61875 -6.8125 11.9375 C-9 13 -9 13 -12 14 C-10.53033642 10.60140297 -8.61962486 8.35036291 -6 5.75 C-4.948125 4.69039062 -4.948125 4.69039062 -3.875 3.609375 C-2 2 -2 2 0 2 C0 1.34 0 0.68 0 0 Z " fill="#444443" transform="translate(44,17)"/>
<path d="M0 0 C3.375 -0.125 3.375 -0.125 7 0 C7.66 0.66 8.32 1.32 9 2 C8.8125 4 8.8125 4 8 6 C5 8 5 8 2.9375 7.75 C1 7 1 7 -1 5 C-0.625 2.375 -0.625 2.375 0 0 Z " fill="#474847" transform="translate(29,8)"/>
<path d="M0 0 C1.875 0.0625 1.875 0.0625 4 1 C8 5.44444444 8 5.44444444 8 7 C4.04 7 0.08 7 -4 7 C-2 2 -2 2 0 0 Z " fill="#575857" transform="translate(318,15)"/>
<path d="M0 0 C2.375 0.6875 2.375 0.6875 5 2 C6.3125 4.625 6.3125 4.625 7 7 C6 8 6 8 2.9375 8.0625 C1.968125 8.041875 0.99875 8.02125 0 8 C-0.33 8.66 -0.66 9.32 -1 10 C-1.66 9.01 -2.32 8.02 -3 7 C-2.34 7 -1.68 7 -1 7 C-1.020625 6.030625 -1.04125 5.06125 -1.0625 4.0625 C-1 1 -1 1 0 0 Z " fill="#575757" transform="translate(26,30)"/>
<path d="M0 0 C-0.57878906 0.28359375 -1.15757812 0.5671875 -1.75390625 0.859375 C-8.05537935 4.05942743 -12.75569928 7.29672091 -17 13 C-17.66 12.34 -18.32 11.68 -19 11 C-7.91706566 -2.87893297 -7.91706566 -2.87893297 0 0 Z " fill="#4E6650" transform="translate(328,1)"/>
<path d="M0 0 C0.66 0.33 1.32 0.66 2 1 C1.195625 1.61875 0.39125 2.2375 -0.4375 2.875 C-3.03874519 4.74164041 -3.03874519 4.74164041 -4 7 C-3.34 7.33 -2.68 7.66 -2 8 C-6.95 8 -11.9 8 -17 8 C-17 7.67 -17 7.34 -17 7 C-16.030625 6.87625 -15.06125 6.7525 -14.0625 6.625 C-13.051875 6.41875 -12.04125 6.2125 -11 6 C-10.67 5.34 -10.34 4.68 -10 4 C-7.96875 3.18359375 -7.96875 3.18359375 -5.5 2.4375 C-2.48668507 1.67451663 -2.48668507 1.67451663 0 0 Z " fill="#516853" transform="translate(348,48)"/>
<path d="M0 0 C4.60862461 1.49102561 7.53330244 3.69454418 11 7 C11 7.99 11 8.98 11 10 C11.66 10 12.32 10 13 10 C13 10.99 13 11.98 13 13 C13.66 13 14.32 13 15 13 C14.67 13.99 14.34 14.98 14 16 C10 11 10 11 8.1875 8.4375 C5.41537009 5.34855525 2.67316907 3.9072224 -1 2 C-0.67 1.34 -0.34 0.68 0 0 Z " fill="#4E6751" transform="translate(344,1)"/>
<path d="M0 0 C1.32 0.33 2.64 0.66 4 1 C3.01 1.495 3.01 1.495 2 2 C2 4.64 2 7.28 2 10 C0.02 10.99 0.02 10.99 -2 12 C-2.33 10.35 -2.66 8.7 -3 7 C-2.01 6.67 -1.02 6.34 0 6 C0 4.02 0 2.04 0 0 Z " fill="#515151" transform="translate(44,35)"/>
<path d="M0 0 C0.99 0 1.98 0 3 0 C2.67 4.29 2.34 8.58 2 13 C1.67 11.68 1.34 10.36 1 9 C0.34 9 -0.32 9 -1 9 C-1.625 6.1875 -1.625 6.1875 -2 3 C-1.34 2.01 -0.68 1.02 0 0 Z " fill="#4A4A49" transform="translate(343,23)"/>
<path d="M0 0 C0.99 0 1.98 0 3 0 C3 1.98 3 3.96 3 6 C3.66 6 4.32 6 5 6 C5 7.32 5 8.64 5 10 C4.01 10 3.02 10 2 10 C1.67 10.66 1.34 11.32 1 12 C0.67 8.04 0.34 4.08 0 0 Z " fill="#3D3D3D" transform="translate(333,23)"/>
<path d="M0 0 C2.0625 0.4375 2.0625 0.4375 4 1 C3.67 3.31 3.34 5.62 3 8 C1.68 7.67 0.36 7.34 -1 7 C-1.04254356 5.00045254 -1.04080783 2.99958364 -1 1 C-0.67 0.67 -0.34 0.34 0 0 Z " fill="#3B6648" transform="translate(495,30)"/>
<path d="M0 0 C2.0625 0.4375 2.0625 0.4375 4 1 C3.67 3.31 3.34 5.62 3 8 C1.68 7.67 0.36 7.34 -1 7 C-1.04254356 5.00045254 -1.04080783 2.99958364 -1 1 C-0.67 0.67 -0.34 0.34 0 0 Z " fill="#3B6648" transform="translate(414,30)"/>
<path d="M0 0 C0.33 0 0.66 0 1 0 C2.51708428 12.66970387 2.51708428 12.66970387 0 18 C-0.66 18 -1.32 18 -2 18 C-2.66 19.32 -3.32 20.64 -4 22 C-4 19 -4 19 -2.5625 16.0625 C-0.24149027 10.98255417 -0.26202043 5.50242896 0 0 Z " fill="#5F735F" transform="translate(359,22)"/>
<path d="M0 0 C-1.46966358 3.39859703 -3.38037514 5.64963709 -6 8.25 C-6.70125 8.95640625 -7.4025 9.6628125 -8.125 10.390625 C-10 12 -10 12 -12 12 C-10.53033642 8.60140297 -8.61962486 6.35036291 -6 3.75 C-5.29875 3.04359375 -4.5975 2.3371875 -3.875 1.609375 C-2 0 -2 0 0 0 Z " fill="#E8E8E7" transform="translate(44,19)"/>
<path d="M0 0 C4.29 0 8.58 0 13 0 C12.67 0.66 12.34 1.32 12 2 C9.05859375 2.4140625 9.05859375 2.4140625 5.4375 2.625 C4.23996094 2.69976562 3.04242188 2.77453125 1.80859375 2.8515625 C0.88175781 2.90054688 -0.04507812 2.94953125 -1 3 C-0.67 2.01 -0.34 1.02 0 0 Z " fill="#435D47" transform="translate(325,53)"/>
<path d="M0 0 C0.99 0 1.98 0 3 0 C3 2.64 3 5.28 3 8 C1.68 8 0.36 8 -1 8 C-1.04241723 5.66705225 -1.04092937 3.33297433 -1 1 C-0.67 0.67 -0.34 0.34 0 0 Z " fill="#3B6648" transform="translate(478,30)"/>
<path d="M0 0 C1.32 0.33 2.64 0.66 4 1 C4 2.98 4 4.96 4 7 C2.68 7 1.36 7 0 7 C0 4.69 0 2.38 0 0 Z " fill="#3E6C4B" transform="translate(581,30)"/>
<path d="M0 0 C1.32 0.33 2.64 0.66 4 1 C3.67 3.31 3.34 5.62 3 8 C2.01 8 1.02 8 0 8 C0 5.36 0 2.72 0 0 Z " fill="#3D694A" transform="translate(513,30)"/>
<path d="M0 0 C0.66 0 1.32 0 2 0 C0.50902342 3.7952131 -1.75700849 5.61042731 -5 8 C-6.32 6.35 -7.64 4.7 -9 3 C-8.01 2.67 -7.02 2.34 -6 2 C-6 2.66 -6 3.32 -6 4 C-2.81765895 2.24545615 -2.81765895 2.24545615 0 0 Z " fill="#313131" transform="translate(37,27)"/>
<path d="M0 0 C0.99 0 1.98 0 3 0 C3 2.31 3 4.62 3 7 C1.68 7 0.36 7 -1 7 C-1.04254356 5.00045254 -1.04080783 2.99958364 -1 1 C-0.67 0.67 -0.34 0.34 0 0 Z " fill="#8EBF79" transform="translate(144,26)"/>
<path d="M0 0 C0.33 0 0.66 0 1 0 C1 3.63 1 7.26 1 11 C-0.65 10.67 -2.3 10.34 -4 10 C-3.67 8.68 -3.34 7.36 -3 6 C-2.01 6 -1.02 6 0 6 C0 4.02 0 2.04 0 0 Z " fill="#434342" transform="translate(15,16)"/>
<path d="M0 0 C0.33 0.99 0.66 1.98 1 3 C1.66 3 2.32 3 3 3 C2.34 5.64 1.68 8.28 1 11 C-1.60691842 8.39308158 -1.70416963 6.62392206 -2 3 C-1.34 2.01 -0.68 1.02 0 0 Z " fill="#3A6446" transform="translate(399,22)"/>
<path d="M0 0 C3.875 0.875 3.875 0.875 5 2 C5.04063832 3.66617115 5.042721 5.33388095 5 7 C4.01 7.33 3.02 7.66 2 8 C0.23537317 4.91190305 0 3.76687864 0 0 Z " fill="#464645" transform="translate(46,12)"/>
<path d="M0 0 C1.9375 0.8125 1.9375 0.8125 4 2 C4.33 2.99 4.66 3.98 5 5 C2.36 5 -0.28 5 -3 5 C-2.01 3.35 -1.02 1.7 0 0 Z " fill="#ECECEB" transform="translate(319,15)"/>
<path d="M0 0 C0.33 2.31 0.66 4.62 1 7 C0.34 7 -0.32 7 -1 7 C-1.33 6.34 -1.66 5.68 -2 5 C-3.32 5 -4.64 5 -6 5 C-3.74193548 0 -3.74193548 0 0 0 Z " fill="#2B2B2A" transform="translate(47,13)"/>
<path d="M0 0 C1.5625 1.5625 1.5625 1.5625 3 4 C2.6875 7.75 2.6875 7.75 2 11 C-0.5986701 8.4013299 -0.63249261 6.60157242 -1 3 C-0.67 2.01 -0.34 1.02 0 0 Z " fill="#386144" transform="translate(389,22)"/>
<path d="M0 0 C-0.33 0.99 -0.66 1.98 -1 3 C-2.98 3.33 -4.96 3.66 -7 4 C-6.625 2.0625 -6.625 2.0625 -6 0 C-3.50907189 -1.24546405 -2.58919267 -0.7767578 0 0 Z " fill="#17241A" transform="translate(558,22)"/>
<path d="M0 0 C1.32 0 2.64 0 4 0 C3.67 1.32 3.34 2.64 3 4 C1.02 4.33 -0.96 4.66 -3 5 C-1.125 1.125 -1.125 1.125 0 0 Z " fill="#172219" transform="translate(116,17)"/>
<path d="M0 0 C1.65 0.33 3.3 0.66 5 1 C4.34 2.32 3.68 3.64 3 5 C1.68 4.67 0.36 4.34 -1 4 C-0.67 2.68 -0.34 1.36 0 0 Z " fill="#EDEDEC" transform="translate(27,32)"/>
<path d="M0 0 C-3.58752742 1.86551426 -7.27812193 3.42535928 -11 5 C-11 4.01 -11 3.02 -11 2 C-6.89657963 -0.38570952 -4.61380251 -1.49270081 0 0 Z " fill="#546C56" transform="translate(328,1)"/>
<path d="M0 0 C0.99 0.99 1.98 1.98 3 3 C1.35 4.98 -0.3 6.96 -2 9 C-2.66 8.34 -3.32 7.68 -4 7 C-3.525625 6.5875 -3.05125 6.175 -2.5625 5.75 C-0.83733482 3.817815 -0.43415125 2.51807725 0 0 Z " fill="#4B4B4A" transform="translate(44,17)"/>
<path d="M0 0 C2.29013653 3.4352048 2.17842973 4.985331 2 9 C1.01 9 0.02 9 -1 9 C-0.67 6.03 -0.34 3.06 0 0 Z " fill="#C2C2C1" transform="translate(339,30)"/>
<path d="M0 0 C2.31 0 4.62 0 7 0 C6.34 1.32 5.68 2.64 5 4 C3.0625 3.6875 3.0625 3.6875 1 3 C0.67 2.01 0.34 1.02 0 0 Z " fill="#EBECEA" transform="translate(29,10)"/>
<path d="M0 0 C0 3 0 3 -2 5.1875 C-2.66 5.785625 -3.32 6.38375 -4 7 C-4.66 6.67 -5.32 6.34 -6 6 C-2.25 1.125 -2.25 1.125 0 0 Z " fill="#425E46" transform="translate(355,43)"/>
</svg>
