<?xml version="1.0" encoding="UTF-8"?>
<svg version="1.1" xmlns="http://www.w3.org/2000/svg" width="56" height="56">
<path d="M0 0 C18.48 0 36.96 0 56 0 C56 18.48 56 36.96 56 56 C37.52 56 19.04 56 0 56 C0 37.52 0 19.04 0 0 Z " fill="#FCFCFA" transform="translate(0,0)"/>
<path d="M0 0 C18.48 0 36.96 0 56 0 C56 18.48 56 36.96 56 56 C37.52 56 19.04 56 0 56 C0 37.52 0 19.04 0 0 Z M6.44140625 12.83203125 C2.50345465 18.75496658 0.63649509 25.95895006 2 33 C5.04338921 41.35313209 8.96370564 48.06068502 17.09375 52.01953125 C24.30729406 54.80080968 31.54120365 55.28794279 38.75 52.3125 C45.46554866 48.89560992 49.91101899 44.89091979 53.078125 38.01171875 C55.36509579 30.54030146 55.52970812 22.00257378 51.9375 14.9375 C47.90200021 8.88425031 42.67950177 4.82346089 36 2 C23.3072568 0.32439034 14.49949509 2.8669237 6.44140625 12.83203125 Z " fill="#416B4C" transform="translate(0,0)"/>
<path d="M0 0 C9.24 0 18.48 0 28 0 C29.90017822 3.80035644 30.24092197 4.63435491 29.9765625 8.546875 C29.925 9.39121094 29.8734375 10.23554688 29.8203125 11.10546875 C29.75585938 11.97816406 29.69140625 12.85085937 29.625 13.75 C29.53992187 15.08224609 29.53992187 15.08224609 29.453125 16.44140625 C29.31202454 18.62846332 29.1606567 20.8143069 29 23 C29.99 23.33 30.98 23.66 32 24 C31.505 25.485 31.505 25.485 31 27 C19.78 27 8.56 27 -3 27 C-3 25.68 -3 24.36 -3 23 C-2.34 23 -1.68 23 -1 23 C-1.0407666 22.44538086 -1.0815332 21.89076172 -1.12353516 21.31933594 C-1.30235317 18.79689429 -1.46383938 16.27362874 -1.625 13.75 C-1.68945312 12.87730469 -1.75390625 12.00460938 -1.8203125 11.10546875 C-1.871875 10.26113281 -1.9234375 9.41679687 -1.9765625 8.546875 C-2.02893066 7.77182617 -2.08129883 6.99677734 -2.13525391 6.19824219 C-2 4 -2 4 0 0 Z " fill="#383837" transform="translate(15,14)"/>
<path d="M0 0 C8.58 0 17.16 0 26 0 C26.66 1.98 27.32 3.96 28 6 C18.1 6 8.2 6 -2 6 C-1.34 4.02 -0.68 2.04 0 0 Z " fill="#FDFDFC" transform="translate(16,16)"/>
<path d="M0 0 C0.33 0.66 0.66 1.32 1 2 C2.65 2 4.3 2 6 2 C6 5.3 6 8.6 6 12 C4.68 12 3.36 12 2 12 C2 12.99 2 13.98 2 15 C15.86 15.495 15.86 15.495 30 16 C30 15.34 30 14.68 30 14 C30.99 14.33 31.98 14.66 33 15 C32.67 15.99 32.34 16.98 32 18 C20.78 18 9.56 18 -2 18 C-2 16.68 -2 15.36 -2 14 C-1.34 14 -0.68 14 0 14 C0 9.38 0 4.76 0 0 Z " fill="#646564" transform="translate(14,23)"/>
<path d="M0 0 C8.91 0 17.82 0 27 0 C27 0.66 27 1.32 27 2 C25.68 2 24.36 2 23 2 C23 5.3 23 8.6 23 12 C24.32 12 25.64 12 27 12 C27 12.66 27 13.32 27 14 C25.02 14 23.04 14 21 14 C21 10.04 21 6.08 21 2 C16.38 2 11.76 2 7 2 C7 5.96 7 9.92 7 14 C5.02 14 3.04 14 1 14 C1 13.34 1 12.68 1 12 C2.32 12 3.64 12 5 12 C5 8.7 5 5.4 5 2 C3.35 2 1.7 2 0 2 C0 1.34 0 0.68 0 0 Z " fill="#E1E1E0" transform="translate(15,23)"/>
<path d="M0 0 C3.96 0 7.92 0 12 0 C12 3.3 12 6.6 12 10 C8.04 10 4.08 10 0 10 C0 6.7 0 3.4 0 0 Z " fill="#BDBDBC" transform="translate(23,27)"/>
<path d="M0 0 C9.24 0 18.48 0 28 0 C28.66 1.98 29.32 3.96 30 6 C29.34 6 28.68 6 28 6 C27.67 4.68 27.34 3.36 27 2 C18.42 2.33 9.84 2.66 1 3 C0.34 4.32 -0.32 5.64 -1 7 C-1.33 6.01 -1.66 5.02 -2 4 C-1.34 2.68 -0.68 1.36 0 0 Z " fill="#6A6A69" transform="translate(15,14)"/>
<path d="M0 0 C0.33 0.66 0.66 1.32 1 2 C2.65 2 4.3 2 6 2 C6 5.3 6 8.6 6 12 C4.02 12 2.04 12 0 12 C0 8.04 0 4.08 0 0 Z " fill="#464645" transform="translate(14,23)"/>
<path d="M0 0 C1.01126953 0.44472656 1.01126953 0.44472656 2.04296875 0.8984375 C5.43173167 2.16083003 8.77134551 2.89691216 12.3125 3.625 C13.56675781 3.88539062 14.82101563 4.14578125 16.11328125 4.4140625 C17.54220703 4.70410156 17.54220703 4.70410156 19 5 C19 5.33 19 5.66 19 6 C14.9472484 6.98248524 11.16138263 7.08159574 7 7 C7 6.34 7 5.68 7 5 C6.21625 4.9175 5.4325 4.835 4.625 4.75 C2 4 2 4 0.6875 1.9375 C0.460625 1.298125 0.23375 0.65875 0 0 Z " fill="#4D6550" transform="translate(12,49)"/>
<path d="M0 0 C5.17833453 2.9590483 9.17999358 6.65625243 12 12 C11.67 12.99 11.34 13.98 11 15 C10.443125 14.2265625 10.443125 14.2265625 9.875 13.4375 C4.62076654 6.52535282 4.62076654 6.52535282 -2 1 C-1.34 0.67 -0.68 0.34 0 0 Z " fill="#4F6651" transform="translate(42,3)"/>
<path d="M0 0 C0.33 0 0.66 0 1 0 C1.223293 2.06093408 1.42802887 4.1238839 1.625 6.1875 C1.74101563 7.33605469 1.85703125 8.48460937 1.9765625 9.66796875 C2.00023426 13.03330416 1.47419799 15.01221706 0 18 C-0.66 18 -1.32 18 -2 18 C-2.66 19.32 -3.32 20.64 -4 22 C-4 19 -4 19 -2.5625 16.0625 C-0.24149027 10.98255417 -0.26202043 5.50242896 0 0 Z " fill="#627662" transform="translate(54,23)"/>
<path d="M0 0 C0.99 0.66 1.98 1.32 3 2 C2.113125 2.53625 1.22625 3.0725 0.3125 3.625 C-3.18288216 5.93311458 -5.44874658 8.69837793 -8 12 C-8.66 11.34 -9.32 10.68 -10 10 C-8.90033225 8.70450101 -7.79508199 7.41373929 -6.6875 6.125 C-6.07261719 5.40570312 -5.45773438 4.68640625 -4.82421875 3.9453125 C-3 2 -3 2 0 0 Z " fill="#506852" transform="translate(14,3)"/>
<path d="M0 0 C1.32 0 2.64 0 4 0 C4 2.31 4 4.62 4 7 C2.68 7 1.36 7 0 7 C0 4.69 0 2.38 0 0 Z " fill="#C3C4C2" transform="translate(39,27)"/>
<path d="M0 0 C1.32 0 2.64 0 4 0 C4 2.31 4 4.62 4 7 C2.68 7 1.36 7 0 7 C0 4.69 0 2.38 0 0 Z " fill="#C3C3C2" transform="translate(15,27)"/>
<path d="M0 0 C0 0.66 0 1.32 0 2 C0.99 2.33 1.98 2.66 3 3 C-1.95 3 -6.9 3 -12 3 C-12 2.67 -12 2.34 -12 2 C-10.7625 1.67 -9.525 1.34 -8.25 1 C-7.55390625 0.814375 -6.8578125 0.62875 -6.140625 0.4375 C-4 0 -4 0 0 0 Z " fill="#425C46" transform="translate(38,53)"/>
<path d="M0 0 C0.66 0 1.32 0 2 0 C2 3.63 2 7.26 2 11 C1.67 11 1.34 11 1 11 C1 8.69 1 6.38 1 4 C-0.65 3.67 -2.3 3.34 -4 3 C-2.68 2.67 -1.36 2.34 0 2 C0 1.34 0 0.68 0 0 Z " fill="#595A59" transform="translate(42,23)"/>
<path d="M0 0 C0 3 0 3 -2 5.1875 C-2.66 5.785625 -3.32 6.38375 -4 7 C-4.66 6.67 -5.32 6.34 -6 6 C-2.25 1.125 -2.25 1.125 0 0 Z " fill="#415E46" transform="translate(50,44)"/>
</svg>
