<?xml version="1.0" encoding="UTF-8"?>
<svg version="1.1" xmlns="http://www.w3.org/2000/svg" width="928" height="56">
<path d="M0 0 C306.24 0 612.48 0 928 0 C928 18.48 928 36.96 928 56 C621.76 56 315.52 56 0 56 C0 37.52 0 19.04 0 0 Z " fill="#3E6D4C" transform="translate(0,0)"/>
<path d="M0 0 C43.68730408 -0.20343302 87.37449458 -0.36457303 131.06217834 -0.45958797 C136.2191874 -0.47084441 141.3761955 -0.4824933 146.53320312 -0.49438477 C147.55987612 -0.49674556 148.58654912 -0.49910635 149.64433342 -0.50153869 C166.2709836 -0.54070705 182.89735388 -0.61167161 199.52383798 -0.69437516 C216.58252635 -0.77852127 233.64106807 -0.82852523 250.69995546 -0.84679645 C261.22748181 -0.85914943 271.75421708 -0.89817174 282.28149992 -0.9712482 C289.49922034 -1.01880052 296.71653145 -1.03320599 303.93439716 -1.0215124 C308.09987902 -1.01574395 312.26397816 -1.02462033 316.42921448 -1.07284927 C320.24470569 -1.11670575 324.05788722 -1.11882962 327.87348562 -1.08809005 C329.90373046 -1.08249636 331.93394872 -1.12127076 333.96379805 -1.16173178 C342.67239264 -1.03321013 342.67239264 -1.03321013 346.55125523 1.98551381 C348.56300027 4.23339642 350.28989373 6.51928453 352 9 C353.25296875 10.27423828 353.25296875 10.27423828 354.53125 11.57421875 C358.99804392 16.36893207 360.44929536 19.44304695 360.25 26.0625 C360.18167969 27.25230469 360.11335938 28.44210938 360.04296875 29.66796875 C359.94601067 37.18662687 364.04415436 42.8889866 368.984375 48.26953125 C372.2638979 51.08509064 375.94475066 52.60227234 380 54 C378 56 378 56 375.32785594 56.24839699 C374.18034111 56.24763755 373.03282627 56.24687811 371.85053825 56.24609566 C371.21002531 56.24840335 370.56951237 56.25071103 369.90958995 56.25308865 C367.74267424 56.25842288 365.57605005 56.24937654 363.40914917 56.24050903 C361.84824781 56.2413804 360.28734673 56.24313011 358.72644722 56.24568737 C354.42113392 56.2501784 350.11591935 56.24213323 345.81061864 56.23213124 C341.17393694 56.22352421 336.53726117 56.22641495 331.90057373 56.22793579 C323.86186266 56.22898639 315.82318397 56.22269157 307.78448105 56.21146011 C296.16175521 56.19523169 284.53904508 56.18999984 272.91630913 56.18748413 C254.06089642 56.18310284 235.20550098 56.169782 216.35009766 56.15087891 C198.02978604 56.13253131 179.7094791 56.11836933 161.38916016 56.10986328 C159.69632183 56.10907511 159.69632183 56.10907511 157.96928476 56.10827102 C152.30784712 56.10566101 146.64640945 56.10313358 140.98497176 56.10064721 C93.9899686 56.07990121 46.99498654 56.04411491 0 56 C0 37.52 0 19.04 0 0 Z " fill="#91C47C" transform="translate(0,0)"/>
<path d="M0 0 C22.59908579 -0.16043524 22.59908579 -0.16043524 32.26367188 -0.1953125 C38.84738122 -0.21918453 45.43086713 -0.24736563 52.0144043 -0.30175781 C57.32474777 -0.34535439 62.6348515 -0.36916641 67.94536018 -0.37950897 C69.96708002 -0.38687556 71.98878736 -0.40126069 74.01040459 -0.42292023 C76.85154008 -0.45213775 79.69169641 -0.45594835 82.53295898 -0.45410156 C83.77482468 -0.47567322 83.77482468 -0.47567322 85.04177856 -0.49768066 C93.26109478 -0.44021507 100.34864668 2.61260349 106.4296875 8.15625 C111.62653118 14.25801671 114.35879389 21.82350918 114.2109375 29.79296875 C113.50138905 37.21694786 110.2937316 43.77216548 105 49 C97.70760977 54.22507711 92.1602124 56.15138811 83.21411133 56.11352539 C81.86746147 56.11374443 81.86746147 56.11374443 80.49360657 56.1139679 C77.52305697 56.11327064 74.55256991 56.10548697 71.58203125 56.09765625 C69.52365656 56.09579141 67.46528142 56.09436782 65.40690613 56.09336853 C59.98669206 56.08954859 54.56650476 56.07972273 49.14630127 56.06866455 C42.64432579 56.05664171 36.14234138 56.0520457 29.64035797 56.04621124 C19.76022003 56.03651073 9.88014081 56.01735049 0 56 C0 37.52 0 19.04 0 0 Z " fill="#44654C" transform="translate(0,0)"/>
<path d="M0 0 C29.7 0 59.4 0 90 0 C90 20 90 20 89 23 C92.3 23 95.6 23 99 23 C98.505 25.475 98.505 25.475 98 28 C96.68 27.67 95.36 27.34 94 27 C94 29.31 94 31.62 94 34 C94.66 34 95.32 34 96 34 C96 34.99 96 35.98 96 37 C93.03 37 90.06 37 87 37 C86.93941406 37.95261719 86.87882812 38.90523437 86.81640625 39.88671875 C86.69072266 41.76810547 86.69072266 41.76810547 86.5625 43.6875 C86.44068359 45.54955078 86.44068359 45.54955078 86.31640625 47.44921875 C86 51 86 51 85 56 C56.95 56 28.9 56 0 56 C3 54 3 54 5.26953125 52.80859375 C13.13056791 48.57015463 17.16946029 43.74276197 20.375 35.4375 C22.0245017 26.36524064 20.60728058 18.78445583 15.6796875 10.8828125 C12.62128485 6.98878071 9.35221113 4.79455357 4.83203125 2.82421875 C3 2 3 2 0 0 Z " fill="#3E6D4C" transform="translate(92,0)"/>
<path d="M0 0 C5.66880111 3.69241325 9.90824279 8.51278822 12 15 C13.2467819 24.24443168 12.64444373 32.36928367 7 40 C1.94936951 45.89031348 -4.08277998 48.35205007 -11.66796875 49.3515625 C-19.75217197 49.78484843 -25.99746616 47.53519467 -32.07421875 42.16796875 C-37.23808077 36.67933553 -40.04668802 31.12680802 -40.375 23.5625 C-39.99831007 15.1159527 -37.14751591 9.05999836 -31.296875 2.953125 C-22.64901486 -4.40049757 -9.91842975 -5.55937464 0 0 Z " fill="#4D4E4D" transform="translate(401,4)"/>
<path d="M0 0 C5.25168857 4.03583071 8.73554077 8.43152594 10 15 C11.03766518 23.4295722 9.93852765 30.00375249 5 37 C0.27540319 42.42411235 -5.30281835 45.30583522 -12.37890625 46.3515625 C-19.20113365 46.75726616 -24.41519743 44.87937628 -30 41 C-35.17204137 36.35294027 -39.35166323 30.95840657 -40.27734375 23.87890625 C-40.59475043 16.55315999 -38.85161249 9.95797127 -34.25 4.1875 C-25.24134034 -5.47103809 -11.10931544 -7.10576969 0 0 Z " fill="#F6F6F5" transform="translate(100,7)"/>
<path d="M0 0 C6.03447929 2.74127261 9.72250254 6.48832357 13.0625 12.1640625 C13.43632813 12.76734375 13.81015625 13.370625 14.1953125 13.9921875 C16.6907552 20.24203497 15.97780359 28.90299577 13.5625 35.1015625 C10.11228044 41.62539315 4.24064086 46.5323254 -2.8125 48.72265625 C-10.21154254 50.25958972 -15.97755318 49.46965105 -22.60546875 45.78515625 C-28.46683712 41.7106707 -32.09640632 37.07668738 -33.9375 30.1640625 C-34.9466134 21.97471917 -34.62805364 15.19563425 -29.86328125 8.29296875 C-21.8487499 -0.56690871 -11.54818452 -3.28631847 0 0 Z " fill="#FAFAF8" transform="translate(39.9375,3.8359375)"/>
<path d="M0 0 C5.65597997 3.68406211 9.9360632 8.51465192 12 15 C12.86876294 22.7692229 13.02101763 30.13076155 9 37 C8.67 37 8.34 37 8 37 C7.99589111 36.35973877 7.99178223 35.71947754 7.98754883 35.05981445 C7.95453962 32.14312095 7.88388974 29.22849616 7.8125 26.3125 C7.80669922 25.30509766 7.80089844 24.29769531 7.79492188 23.25976562 C7.76591797 22.28330078 7.73691406 21.30683594 7.70703125 20.30078125 C7.6913208 19.40528564 7.67561035 18.50979004 7.65942383 17.5871582 C6.70113452 13.82744264 5.05775672 12.33610139 2 10 C-1.36687898 9.22673831 -1.36687898 9.22673831 -5.05078125 9.29296875 C-5.70958786 9.27784744 -6.36839447 9.26272614 -7.04716492 9.24714661 C-9.135962 9.20441434 -11.2233102 9.19544735 -13.3125 9.1875 C-14.73506417 9.16434386 -16.15759417 9.13897617 -17.58007812 9.11132812 C-21.05335804 9.04862384 -24.52615613 9.01617216 -28 9 C-28.268125 9.598125 -28.53625 10.19625 -28.8125 10.8125 C-30 13 -30 13 -31.59741211 14.47631836 C-33.44780573 16.48646746 -33.39406382 17.67811999 -33.44140625 20.37890625 C-33.46783203 21.21744141 -33.49425781 22.05597656 -33.52148438 22.91992188 C-33.53501953 23.79197266 -33.54855469 24.66402344 -33.5625 25.5625 C-33.59688399 27.29316061 -33.63945962 29.02368373 -33.69140625 30.75390625 C-33.70373291 31.52033447 -33.71605957 32.2867627 -33.72875977 33.07641602 C-34 35 -34 35 -36 37 C-40.11279656 29.23342435 -41.27249649 23.05528089 -39 14.5 C-36.62048568 8.18045266 -32.39099505 3.08849364 -26.640625 -0.453125 C-18.08454539 -4.32243489 -8.30903078 -4.65729114 0 0 Z " fill="#F8F8F6" transform="translate(401,4)"/>
<path d="M0 0 C4.92959122 -0.04942899 9.85903825 -0.08573318 14.78881836 -0.10986328 C16.46592725 -0.11992237 18.14301861 -0.13357122 19.82006836 -0.15087891 C22.23035002 -0.17513152 24.64039986 -0.1864839 27.05078125 -0.1953125 C28.17592888 -0.21079636 28.17592888 -0.21079636 29.32380676 -0.22659302 C33.10300779 -0.227408 34.77414399 -0.15057067 38 2 C37.35933594 2.1959375 36.71867187 2.391875 36.05859375 2.59375 C28.41329384 5.23713238 23.5489948 8.86559619 19.90625 16.203125 C17.28962177 23.13234421 16.82193665 29.70530385 19.625 36.625 C23.09799642 43.5588918 27.15997703 48.47718852 34.51171875 51.34375 C41.69447767 53.238104 48.30017928 52.36610529 55.125 49.65625 C57 49 57 49 60 49 C58.7934375 49.928125 58.7934375 49.928125 57.5625 50.875 C54.96125481 52.74164041 54.96125481 52.74164041 54 55 C54.99 55.495 54.99 55.495 56 56 C52.39598519 56.08701039 48.79223988 56.14039388 45.1875 56.1875 C44.16333984 56.21263672 43.13917969 56.23777344 42.08398438 56.26367188 C40.60961914 56.27817383 40.60961914 56.27817383 39.10546875 56.29296875 C38.19949951 56.3086792 37.29353027 56.32438965 36.36010742 56.34057617 C33.51565466 55.93010637 32.82627679 55.14268641 31 53 C30.0925 52.443125 29.185 51.88625 28.25 51.3125 C22.52679069 47.24021645 17.68746042 42.11988442 15.37890625 35.37890625 C14.88546086 32.28088315 15.24742892 29.43676968 15.5 26.3125 C15.69714455 19.75744375 13.98751294 16.68130652 9.75 12 C8.34441432 10.52353475 6.93144746 9.06724165 5.46386719 7.65234375 C3.36458547 5.28277426 1.71898905 2.65252242 0 0 Z " fill="#3F6E4D" transform="translate(344,0)"/>
<path d="M0 0 C14.19 0 28.38 0 43 0 C39.37966899 6.03388502 36.20587113 8.70532127 29.75 11.3125 C20.22804951 13.05819092 13.19455301 12.42373293 5 7 C3.00901696 5.42156299 1.61472902 3.99149913 0 2 C0 1.34 0 0.68 0 0 Z " fill="#FCFCFB" transform="translate(366,41)"/>
<path d="M0 0 C1.21816406 0.03480469 1.21816406 0.03480469 2.4609375 0.0703125 C3.68683594 0.09738281 3.68683594 0.09738281 4.9375 0.125 C5.87722656 0.15980469 5.87722656 0.15980469 6.8359375 0.1953125 C6.8359375 1.5153125 6.8359375 2.8353125 6.8359375 4.1953125 C4.8559375 4.1953125 2.8759375 4.1953125 0.8359375 4.1953125 C1.9496875 4.4840625 3.0634375 4.7728125 4.2109375 5.0703125 C7.8359375 6.1953125 7.8359375 6.1953125 9.8359375 8.1953125 C14.64716597 6.66975284 14.64716597 6.66975284 17.8359375 3.1953125 C17.2584375 3.5253125 16.6809375 3.8553125 16.0859375 4.1953125 C13.8359375 5.1953125 13.8359375 5.1953125 9.8359375 5.1953125 C10.7109375 1.3203125 10.7109375 1.3203125 11.8359375 0.1953125 C13.83203125 0.02734375 13.83203125 0.02734375 16.2734375 0.0078125 C17.47806641 -0.01345703 17.47806641 -0.01345703 18.70703125 -0.03515625 C20.8359375 0.1953125 20.8359375 0.1953125 22.8359375 2.1953125 C23.49985041 6.31157252 23.8359375 10.02380079 23.8359375 14.1953125 C19.5459375 14.1953125 15.2559375 14.1953125 10.8359375 14.1953125 C10.5059375 13.2053125 10.1759375 12.2153125 9.8359375 11.1953125 C9.28421875 11.68644531 8.7325 12.17757812 8.1640625 12.68359375 C5.37223681 14.49640674 3.87408009 14.5126076 0.5859375 14.3828125 C-0.30609375 14.35574219 -1.198125 14.32867187 -2.1171875 14.30078125 C-2.79265625 14.26597656 -3.468125 14.23117188 -4.1640625 14.1953125 C-4.1640625 11.86197917 -4.1640625 9.52864583 -4.1640625 7.1953125 C-4.2053125 6.3703125 -4.2465625 5.5453125 -4.2890625 4.6953125 C-4.12512236 1.4165096 -3.33536822 0.30102601 0 0 Z " fill="#19261C" transform="translate(591.1640625,26.8046875)"/>
<path d="M0 0 C2.64 0 5.28 0 8 0 C8.33 2.97 8.66 5.94 9 9 C9.33 9 9.66 9 10 9 C10.09278428 5.65976579 9.82810826 3.31243305 9 0 C11.97 0 14.94 0 18 0 C17.814375 0.7425 17.62875 1.485 17.4375 2.25 C17.00796892 4.94990963 17.14877026 6.44631077 18 9 C18.99 7.02 19.98 5.04 21 3 C20.34 3 19.68 3 19 3 C19 2.01 19 1.02 19 0 C21.64 0 24.28 0 27 0 C27 0.99 27 1.98 27 3 C26.55011719 3.42925781 26.10023438 3.85851562 25.63671875 4.30078125 C23.36344631 6.66086123 22.78199953 9.07841531 21.8125 12.1875 C21.46832031 13.27417969 21.12414062 14.36085938 20.76953125 15.48046875 C20.38861328 16.72763672 20.38861328 16.72763672 20 18 C18.35 18.33 16.7 18.66 15 19 C14.67 17.02 14.34 15.04 14 13 C13.34 13 12.68 13 12 13 C11.67 14.98 11.34 16.96 11 19 C9.35 19 7.7 19 6 19 C5.32586789 17.08594633 4.6609668 15.16863974 4 13.25 C3.62875 12.18265625 3.2575 11.1153125 2.875 10.015625 C2 7 2 7 2 3 C1.34 3 0.68 3 0 3 C0 2.01 0 1.02 0 0 Z " fill="#162118" transform="translate(435,22)"/>
<path d="M0 0 C8.58 0 17.16 0 26 0 C26 5.61 26 11.22 26 17 C22.7 17 19.4 17 16 17 C16.66 11.72 17.32 6.44 18 1 C17.01 1 16.02 1 15 1 C14.67 2.32 14.34 3.64 14 5 C13.67 3.68 13.34 2.36 13 1 C12.01 1 11.02 1 10 1 C10 2.98 10 4.96 10 7 C9.34 7 8.68 7 8 7 C8 5.02 8 3.04 8 1 C7.01 1 6.02 1 5 1 C5.66 6.28 6.32 11.56 7 17 C4.69 17 2.38 17 0 17 C0 11.39 0 5.78 0 0 Z " fill="#F0F0EF" transform="translate(382,22)"/>
<path d="M0 0 C1.875 0.6875 1.875 0.6875 2.875 1.6875 C3.3125 4 3.3125 4 2.875 6.6875 C0.0625 8.75 0.0625 8.75 -3.125 10.6875 C-5.93247428 13.4013918 -6.11223568 14.43221357 -6.3125 18.4375 C-6.2196875 20.04625 -6.2196875 20.04625 -6.125 21.6875 C-8.105 22.6775 -8.105 22.6775 -10.125 23.6875 C-9.5990625 22.7903125 -9.5990625 22.7903125 -9.0625 21.875 C-7.79195302 19.57936786 -7.79195302 19.57936786 -9.125 16.6875 C-11.435 18.6675 -13.745 20.6475 -16.125 22.6875 C-17.445 21.0375 -18.765 19.3875 -20.125 17.6875 C-18.145 15.3775 -16.165 13.0675 -14.125 10.6875 C-17.99310875 11.65452719 -18.85402194 12.06664543 -21.5625 14.625 C-23.82175215 16.68019067 -25.06335138 17.666057 -28 18.6875 C-28.70125 19.0175 -29.4025 19.3475 -30.125 19.6875 C-31.37817339 23.21205017 -31.45491213 24.94085676 -29.9375 28.375 C-27.45774261 31.54849886 -27.45774261 31.54849886 -24.125 33.6875 C-20.54166667 33.77083333 -20.54166667 33.77083333 -17.125 32.6875 C-15.16212176 30.77011145 -15.16212176 30.77011145 -14.125 28.6875 C-14.875 33.4375 -14.875 33.4375 -17.125 35.6875 C-22.41250449 36.12090201 -25.88217264 36.20298553 -30.125 32.6875 C-32.54221895 29.77016678 -33.3695006 27.34009934 -33.625 23.625 C-33.125 19.6875 -33.125 19.6875 -31 17.375 C-28.125 15.6875 -28.125 15.6875 -25 14.1875 C-22.0399458 12.95477012 -22.0399458 12.95477012 -20.8125 10.5625 C-19.125 8.6875 -19.125 8.6875 -17.12109375 8.421875 C-16.33863281 8.38578125 -15.55617188 8.3496875 -14.75 8.3125 C-11.34593386 8.11899689 -11.34593386 8.11899689 -8.53125 6.37109375 C-7.33425001 4.85659681 -6.22549513 3.27350769 -5.125 1.6875 C-2.125 -0.3125 -2.125 -0.3125 0 0 Z " fill="#414140" transform="translate(102.125,12.3125)"/>
<path d="M0 0 C1.91015625 0.23046875 1.91015625 0.23046875 3.91015625 2.23046875 C4.10546875 4.39453125 4.10546875 4.39453125 4.03515625 6.85546875 C4.01710937 7.67273438 3.9990625 8.49 3.98046875 9.33203125 C3.94566406 10.27175781 3.94566406 10.27175781 3.91015625 11.23046875 C5.56015625 11.23046875 7.21015625 11.23046875 8.91015625 11.23046875 C8.40563406 7.48258963 7.82856392 3.90409941 6.91015625 0.23046875 C10.87015625 0.23046875 14.83015625 0.23046875 18.91015625 0.23046875 C18.58015625 1.88046875 18.25015625 3.53046875 17.91015625 5.23046875 C16.59015625 4.90046875 15.27015625 4.57046875 13.91015625 4.23046875 C13.91015625 6.54046875 13.91015625 8.85046875 13.91015625 11.23046875 C14.57015625 11.23046875 15.23015625 11.23046875 15.91015625 11.23046875 C15.91015625 12.22046875 15.91015625 13.21046875 15.91015625 14.23046875 C8.32015625 14.23046875 0.73015625 14.23046875 -7.08984375 14.23046875 C-7.74984375 12.91046875 -8.40984375 11.59046875 -9.08984375 10.23046875 C-7.38358874 7.446579 -6.61357636 6.37662669 -3.40234375 5.48046875 C-2.25765625 5.35671875 -2.25765625 5.35671875 -1.08984375 5.23046875 C-1.08984375 4.57046875 -1.08984375 3.91046875 -1.08984375 3.23046875 C-2.07984375 3.23046875 -3.06984375 3.23046875 -4.08984375 3.23046875 C-4.08984375 3.89046875 -4.08984375 4.55046875 -4.08984375 5.23046875 C-5.40984375 5.23046875 -6.72984375 5.23046875 -8.08984375 5.23046875 C-6.84682804 -0.27431511 -5.68834769 0.11356048 0 0 Z " fill="#18241A" transform="translate(172.08984375,22.76953125)"/>
<path d="M0 0 C0.33 0.66 0.66 1.32 1 2 C3.02463255 2.65213292 3.02463255 2.65213292 5 3 C5 3.66 5 4.32 5 5 C5.66 5 6.32 5 7 5 C5.57646476 8.33136597 3.8664687 10.27664757 1.125 12.625 C0.44695313 13.21539062 -0.23109375 13.80578125 -0.9296875 14.4140625 C-2.88666469 15.91318087 -4.76048537 16.98569068 -7 18 C-5.89978516 18.88751953 -5.89978516 18.88751953 -4.77734375 19.79296875 C-3.84019531 20.58316406 -2.90304688 21.37335937 -1.9375 22.1875 C-0.99777344 22.96480469 -0.05804688 23.74210937 0.91015625 24.54296875 C3 27 3 27 2.80859375 29.80078125 C2.54175781 30.52652344 2.27492188 31.25226562 2 32 C-2.37653129 31.52379711 -4.06538005 30.33100111 -6.8125 26.9375 C-7.41707031 26.20402344 -8.02164063 25.47054687 -8.64453125 24.71484375 C-9.09183594 24.14894531 -9.53914063 23.58304688 -10 23 C-13.22618042 24.37372843 -14.85878537 25.82650884 -16.9375 28.625 C-19.63890815 31.94505124 -19.63890815 31.94505124 -22.875 32.4375 C-23.57625 32.293125 -24.2775 32.14875 -25 32 C-25.71484375 30.234375 -25.71484375 30.234375 -26 28 C-24.56640625 26.078125 -24.56640625 26.078125 -22.5625 24.25 C-21.90378906 23.63640625 -21.24507812 23.0228125 -20.56640625 22.390625 C-20.04949219 21.93171875 -19.53257813 21.4728125 -19 21 C-18.34 21.33 -17.68 21.66 -17 22 C-17.42152344 22.39832031 -17.84304687 22.79664062 -18.27734375 23.20703125 C-18.82519531 23.73683594 -19.37304688 24.26664063 -19.9375 24.8125 C-20.48277344 25.33457031 -21.02804688 25.85664062 -21.58984375 26.39453125 C-23.23519092 28.05812198 -23.23519092 28.05812198 -24 31 C-19.77521868 28.79057373 -17.30076839 26.24015753 -14.375 22.5 C-7.9021618 14.28192556 -7.9021618 14.28192556 -4 13.0625 C-0.7105782 11.89749645 0.23920843 10.93465261 2 8 C1.319375 8.7425 1.319375 8.7425 0.625 9.5 C-1 11 -1 11 -3 11 C-3.66 10.01 -4.32 9.02 -5 8 C-7.13855245 9.86779347 -7.13855245 9.86779347 -7.9375 12.4375 C-9.00207098 15.00499471 -9.80290728 16.33020953 -12 18 C-12.99 18 -13.98 18 -15 18 C-15 17.34 -15 16.68 -15 16 C-14.21625 15.566875 -13.4325 15.13375 -12.625 14.6875 C-9.836846 13.25907317 -9.836846 13.25907317 -9.09375 10.6640625 C-7.82655719 7.57754287 -6.28016669 5.97628765 -3.875 3.6875 C-3.15054688 2.99011719 -2.42609375 2.29273438 -1.6796875 1.57421875 C-1.12539063 1.05472656 -0.57109375 0.53523437 0 0 Z " fill="#4E4E4D" transform="translate(41,12)"/>
<path d="M0 0 C2.10353495 -0.0810206 4.20795952 -0.13919907 6.3125 -0.1875 C7.48425781 -0.22230469 8.65601563 -0.25710937 9.86328125 -0.29296875 C13 0 13 0 14.89453125 1.296875 C16.76298435 4.17548119 16.34955175 6.67925838 16 10 C14.875 12.4375 14.875 12.4375 13 14 C9.8125 14.25 9.8125 14.25 7 14 C7 14.99 7 15.98 7 17 C7.66 17 8.32 17 9 17 C9 17.99 9 18.98 9 20 C5.7 20 2.4 20 -1 20 C-1 19.01 -1 18.02 -1 17 C-0.34 17 0.32 17 1 17 C1 12.38 1 7.76 1 3 C0.34 3 -0.32 3 -1 3 C-0.67 2.01 -0.34 1.02 0 0 Z " fill="#18251B" transform="translate(560,27)"/>
<path d="M0 0 C3.11154813 3.79665964 5.96507198 7.71321509 8.75 11.75 C9.16121094 12.33910156 9.57242188 12.92820312 9.99609375 13.53515625 C13 17.87634967 13 17.87634967 13 19 C4.75 19 -3.5 19 -12 19 C-10.59187825 15.47969563 -9.72319962 13.33823537 -7.6171875 10.44921875 C-7.17246094 9.83369141 -6.72773437 9.21816406 -6.26953125 8.58398438 C-5.57923828 7.64522461 -5.57923828 7.64522461 -4.875 6.6875 C-4.17310547 5.71973633 -4.17310547 5.71973633 -3.45703125 4.73242188 C-2.3094071 3.15151106 -1.15534523 1.57527699 0 0 Z " fill="#CD3A34" transform="translate(758,37)"/>
<path d="M0 0 C0 1.98 0 3.96 0 6 C1.11375 5.95875 2.2275 5.9175 3.375 5.875 C7 6 7 6 9 8 C9.1953125 10.1640625 9.1953125 10.1640625 9.125 12.625 C9.10695313 13.44226562 9.08890625 14.25953125 9.0703125 15.1015625 C9.04710937 15.72804688 9.02390625 16.35453125 9 17 C9.66 17 10.32 17 11 17 C11 17.99 11 18.98 11 20 C5.06 20 -0.88 20 -7 20 C-7 19.01 -7 18.02 -7 17 C-6.34 17 -5.68 17 -5 17 C-5 12.71 -5 8.42 -5 4 C-5.66 4 -6.32 4 -7 4 C-7 3.01 -7 2.02 -7 1 C-4 0 -4 0 0 0 Z " fill="#162118" transform="translate(531,21)"/>
<path d="M0 0 C0 5.61 0 11.22 0 17 C0.66 17 1.32 17 2 17 C2 17.99 2 18.98 2 20 C-0.10353495 20.0810206 -2.20795952 20.13919907 -4.3125 20.1875 C-5.48425781 20.22230469 -6.65601563 20.25710937 -7.86328125 20.29296875 C-11 20 -11 20 -12.89453125 18.73828125 C-14.85812022 15.65065902 -14.52847823 12.52318822 -14 9 C-12.875 7 -12.875 7 -11 6 C-7.8125 5.8125 -7.8125 5.8125 -5 6 C-5 5.34 -5 4.68 -5 4 C-5.66 4 -6.32 4 -7 4 C-7 3.01 -7 2.02 -7 1 C-4 0 -4 0 0 0 Z " fill="#172219" transform="translate(206,17)"/>
<path d="M0 0 C0 1.98 0 3.96 0 6 C2.97 6 5.94 6 9 6 C9 6.99 9 7.98 9 9 C7.35 9.33 5.7 9.66 4 10 C6.37629089 14.14670039 6.37629089 14.14670039 10 17 C10 17.99 10 18.98 10 20 C4.39 20 -1.22 20 -7 20 C-7 19.01 -7 18.02 -7 17 C-6.34 17 -5.68 17 -5 17 C-5 12.71 -5 8.42 -5 4 C-5.99 3.67 -6.98 3.34 -8 3 C-8 2.34 -8 1.68 -8 1 C-5.10765685 0.17361624 -3.11257569 0 0 0 Z " fill="#17241A" transform="translate(499,21)"/>
<path d="M0 0 C1.7405306 2.6107959 2.87230567 4.96108738 4.125 7.8125 C7.96557173 15.56141826 14.121716 19.0456435 22 22 C22 22.33 22 22.66 22 23 C14.08 23 6.16 23 -2 23 C-2.04125 19.57625 -2.0825 16.1525 -2.125 12.625 C-2.14320801 11.54686035 -2.16141602 10.4687207 -2.18017578 9.35791016 C-2.1851709 8.51019043 -2.19016602 7.6624707 -2.1953125 6.7890625 C-2.20578613 5.91975098 -2.21625977 5.05043945 -2.22705078 4.15478516 C-2 2 -2 2 0 0 Z " fill="#3F6D4C" transform="translate(2,33)"/>
<path d="M0 0 C3.96 0 7.92 0 12 0 C12 5.61 12 11.22 12 17 C8.04 17 4.08 17 0 17 C0 11.39 0 5.78 0 0 Z " fill="#FFFFFE" transform="translate(368,22)"/>
<path d="M0 0 C7.59 0 15.18 0 23 0 C21.41623174 1.05584551 19.82214558 2.10125188 18.16796875 3.04296875 C10.32272914 7.57680545 5.98742073 12.52606312 3.4453125 21.27734375 C3.29835937 21.84582031 3.15140625 22.41429688 3 23 C0.66657961 19.49986942 -0.12859921 17.10369496 -0.09765625 12.98828125 C-0.09515869 12.30548096 -0.09266113 11.62268066 -0.09008789 10.91918945 C-0.07643188 9.62887817 -0.07643188 9.62887817 -0.0625 8.3125 C-0.041875 5.569375 -0.02125 2.82625 0 0 Z " fill="#3F6D4C" transform="translate(0,0)"/>
<path d="M0 0 C2.5625 1.5625 2.5625 1.5625 4 4 C3.93957505 7.44422213 3.60093625 9.90417507 1.9375 12.9375 C-1.26225258 14.69220303 -4.4994894 14.626852 -8 14 C-10.5 12.375 -10.5 12.375 -12 10 C-12.60024477 6.39853135 -12.45562482 4.72140596 -10.5 1.625 C-6.98827684 -0.65762005 -4.07600894 -0.80853347 0 0 Z " fill="#17231A" transform="translate(641,27)"/>
<path d="M0 0 C2 3 2 3 2 7 C1.01 7 0.02 7 -1 7 C-1.66 6.01 -2.32 5.02 -3 4 C-5.54207971 3.66656449 -5.54207971 3.66656449 -8 4 C-9.89885096 5.89885096 -9.12367506 8.57247903 -9.1328125 11.08984375 C-9.11686861 13.08634367 -9.11686861 13.08634367 -8 15 C-5.69 15 -3.38 15 -1 15 C-0.67 14.01 -0.34 13.02 0 12 C0.99 12.33 1.98 12.66 3 13 C0.25 17.875 0.25 17.875 -2 19 C-6.7040151 19.6469176 -9.99101607 19.63833677 -14.0625 17.0625 C-16.67564127 12.93205089 -17.02423723 9.75969066 -16 5 C-12.40260495 -1.07835715 -6.48574297 -1.25328367 0 0 Z " fill="#17231A" transform="translate(145,18)"/>
<path d="M0 0 C0.7734375 -0.00773437 1.546875 -0.01546875 2.34375 -0.0234375 C5.01753038 0.47063061 5.89906739 1.20194727 7.5 3.375 C7.99573337 7.27004791 8.08016848 9.46993717 5.9375 12.8125 C2.58147594 14.96379747 0.41578329 14.86447291 -3.5 14.375 C-5.9375 13.375 -5.9375 13.375 -7.5 11.375 C-8.00266516 8.63319003 -8.10994112 6.10050267 -7.5 3.375 C-5.33394841 0.37376237 -3.62343088 -0.03623431 0 0 Z " fill="#162118" transform="translate(550.5,26.625)"/>
<path d="M0 0 C0.7734375 -0.00773437 1.546875 -0.01546875 2.34375 -0.0234375 C5.01753038 0.47063061 5.89906739 1.20194727 7.5 3.375 C7.99573337 7.27004791 8.08016848 9.46993717 5.9375 12.8125 C2.58147594 14.96379747 0.41578329 14.86447291 -3.5 14.375 C-5.9375 13.375 -5.9375 13.375 -7.5 11.375 C-8.00266516 8.63319003 -8.10994112 6.10050267 -7.5 3.375 C-5.33394841 0.37376237 -3.62343088 -0.03623431 0 0 Z " fill="#162118" transform="translate(469.5,26.625)"/>
<path d="M0 0 C0.99 0.33 1.98 0.66 3 1 C2.67 1.969375 2.34 2.93875 2 3.9375 C0.00559008 11.12026617 0.39385443 17.17048289 3.74609375 23.86328125 C7.73444813 30.65963591 12.2361607 34.95239403 20 37 C26.50985973 37.82664886 32.04506805 37.07034063 38.125 34.65625 C40 34 40 34 43 34 C41.7934375 34.928125 41.7934375 34.928125 40.5625 35.875 C37.96125481 37.74164041 37.96125481 37.74164041 37 40 C37.99 40.495 37.99 40.495 39 41 C35.39598519 41.08701039 31.79223988 41.14039388 28.1875 41.1875 C27.16333984 41.21263672 26.13917969 41.23777344 25.08398438 41.26367188 C23.60961914 41.27817383 23.60961914 41.27817383 22.10546875 41.29296875 C21.19949951 41.3086792 20.29353027 41.32438965 19.36010742 41.34057617 C16.51565466 40.93010637 15.82627679 40.14268641 14 38 C13.0925 37.443125 12.185 36.88625 11.25 36.3125 C4.81484299 31.73363828 -0.45438509 25.92478919 -2 18 C-2.57118382 11.62485156 -2.14300879 6.02721223 0 0 Z " fill="#4D674E" transform="translate(361,15)"/>
<path d="M0 0 C3.86329531 1.21201422 6.82774575 2.68087025 9.1875 6 C9.9586986 9.00918669 10.17399278 11.90009356 10.1875 15 C1.58445135 15.90206724 1.58445135 15.90206724 -1.5546875 13.875 C-4.44530293 10.59098721 -5.8125 7.34537534 -5.8125 3 C-4.22453638 0.10430164 -3.28602385 0 0 0 Z " fill="#B8B8B7" transform="translate(18.8125,13)"/>
<path d="M0 0 C1.20462891 -0.02126953 1.20462891 -0.02126953 2.43359375 -0.04296875 C4.5625 0.1875 4.5625 0.1875 6.5625 2.1875 C6.7578125 4.3515625 6.7578125 4.3515625 6.6875 6.8125 C6.66945312 7.62976563 6.65140625 8.44703125 6.6328125 9.2890625 C6.59800781 10.22878906 6.59800781 10.22878906 6.5625 11.1875 C7.5525 11.5175 8.5425 11.8475 9.5625 12.1875 C9.2325 12.8475 8.9025 13.5075 8.5625 14.1875 C6.43777424 14.24136629 4.31266348 14.28023071 2.1875 14.3125 C0.41246094 14.34730469 0.41246094 14.34730469 -1.3984375 14.3828125 C-4.4375 14.1875 -4.4375 14.1875 -6.4375 12.1875 C-6.44921875 9.62109375 -6.44921875 9.62109375 -6.125 6.625 C-6.02574219 5.63371094 -5.92648438 4.64242188 -5.82421875 3.62109375 C-5.17917153 -0.43814281 -3.78316944 0.03026536 0 0 Z " fill="#212F21" transform="translate(215.4375,22.8125)"/>
<path d="M0 0 C1.21816406 0.03480469 1.21816406 0.03480469 2.4609375 0.0703125 C3.68683594 0.09738281 3.68683594 0.09738281 4.9375 0.125 C5.87722656 0.15980469 5.87722656 0.15980469 6.8359375 0.1953125 C6.8359375 1.5153125 6.8359375 2.8353125 6.8359375 4.1953125 C4.8559375 4.1953125 2.8759375 4.1953125 0.8359375 4.1953125 C3.1459375 4.8553125 5.4559375 5.5153125 7.8359375 6.1953125 C8.5234375 8.5078125 8.5234375 8.5078125 8.8359375 11.1953125 C7.6796875 12.8515625 7.6796875 12.8515625 5.8359375 14.1953125 C3.35546875 14.48828125 3.35546875 14.48828125 0.6484375 14.3828125 C-0.25261719 14.35574219 -1.15367187 14.32867187 -2.08203125 14.30078125 C-2.76910156 14.26597656 -3.45617187 14.23117188 -4.1640625 14.1953125 C-4.1640625 11.86197917 -4.1640625 9.52864583 -4.1640625 7.1953125 C-4.2053125 6.3703125 -4.2465625 5.5453125 -4.2890625 4.6953125 C-4.12512236 1.4165096 -3.33536822 0.30102601 0 0 Z " fill="#18261C" transform="translate(514.1640625,26.8046875)"/>
<path d="M0 0 C1.21816406 0.03480469 1.21816406 0.03480469 2.4609375 0.0703125 C3.68683594 0.09738281 3.68683594 0.09738281 4.9375 0.125 C5.87722656 0.15980469 5.87722656 0.15980469 6.8359375 0.1953125 C6.8359375 1.5153125 6.8359375 2.8353125 6.8359375 4.1953125 C4.8559375 4.1953125 2.8759375 4.1953125 0.8359375 4.1953125 C3.1459375 4.8553125 5.4559375 5.5153125 7.8359375 6.1953125 C8.5234375 8.5078125 8.5234375 8.5078125 8.8359375 11.1953125 C7.6796875 12.8515625 7.6796875 12.8515625 5.8359375 14.1953125 C3.35546875 14.48828125 3.35546875 14.48828125 0.6484375 14.3828125 C-0.25261719 14.35574219 -1.15367187 14.32867187 -2.08203125 14.30078125 C-2.76910156 14.26597656 -3.45617187 14.23117188 -4.1640625 14.1953125 C-4.1640625 11.86197917 -4.1640625 9.52864583 -4.1640625 7.1953125 C-4.2053125 6.3703125 -4.2465625 5.5453125 -4.2890625 4.6953125 C-4.12512236 1.4165096 -3.33536822 0.30102601 0 0 Z " fill="#18261C" transform="translate(153.1640625,22.8046875)"/>
<path d="M0 0 C0.99 0 1.98 0 3 0 C3 1.98 3 3.96 3 6 C3.66 6 4.32 6 5 6 C5 4.02 5 2.04 5 0 C5.99 0 6.98 0 8 0 C8.33 0.99 8.66 1.98 9 3 C9.33 2.01 9.66 1.02 10 0 C10.99 0 11.98 0 13 0 C12.85930804 2.12534659 12.71229079 4.25027529 12.5625 6.375 C12.48128906 7.55835938 12.40007812 8.74171875 12.31640625 9.9609375 C12 13 12 13 11 15 C10.01 15 9.02 15 8 15 C7.67 13.35 7.34 11.7 7 10 C6.34 11.65 5.68 13.3 5 15 C4.01 15 3.02 15 2 15 C0.73694665 9.92523206 -0.27036084 5.27203646 0 0 Z " fill="#20201F" transform="translate(387,23)"/>
<path d="M0 0 C1.17829199 2.35658397 1.04414372 3.52573236 0.87890625 6.1328125 C0.83056641 6.93847656 0.78222656 7.74414062 0.73242188 8.57421875 C0.64831055 9.83685547 0.64831055 9.83685547 0.5625 11.125 C0.51029297 11.97449219 0.45808594 12.82398438 0.40429688 13.69921875 C0.27448622 15.79979124 0.1378826 17.89994191 0 20 C3.96 20 7.92 20 12 20 C12 13.73 12 7.46 12 1 C20.91 0.67 29.82 0.34 39 0 C39 0.99 39 1.98 39 3 C30.75 3 22.5 3 14 3 C14.03957481 8.54973121 14.03957481 8.54973121 14.09008789 14.09936523 C14.09723091 16.06645974 14.05031893 18.03353621 14 20 C13 21 13 21 9.62109375 21.09765625 C8.22652923 21.09098369 6.83198257 21.07902532 5.4375 21.0625 C4.72658203 21.05798828 4.01566406 21.05347656 3.28320312 21.04882812 C1.52209987 21.03700864 -0.23896036 21.01907263 -2 21 C-1.86179731 17.6871348 -1.71316222 14.37482011 -1.5625 11.0625 C-1.52318359 10.11697266 -1.48386719 9.17144531 -1.44335938 8.19726562 C-1.40146484 7.29814453 -1.35957031 6.39902344 -1.31640625 5.47265625 C-1.27974854 4.64000244 -1.24309082 3.80734863 -1.20532227 2.94946289 C-1 1 -1 1 0 0 Z " fill="#4A4A49" transform="translate(368,19)"/>
<path d="M0 0 C4.0829596 -0.14518182 8.16525641 -0.23403347 12.25 -0.3125 C13.40886719 -0.35439453 14.56773437 -0.39628906 15.76171875 -0.43945312 C24.37401805 -0.56390832 24.37401805 -0.56390832 27.796875 2.51953125 C28.19390625 3.33808594 28.5909375 4.15664063 29 5 C24.9170404 5.14518182 20.83474359 5.23403347 16.75 5.3125 C15.59113281 5.35439453 14.43226563 5.39628906 13.23828125 5.43945312 C4.62598195 5.56390832 4.62598195 5.56390832 1.203125 2.48046875 C0.80609375 1.66191406 0.4090625 0.84335938 0 0 Z " fill="#FFFEFD" transform="translate(377,15)"/>
<path d="M0 0 C0.33 0 0.66 0 1 0 C1 5.94 1 11.88 1 18 C-2.96 18 -6.92 18 -11 18 C-9.22445948 13.5611487 -7.15832915 10.04308255 -4.4375 6.1875 C-4.02564453 5.59001953 -3.61378906 4.99253906 -3.18945312 4.37695312 C-2.15591414 2.8968441 -1.08145584 1.44546837 0 0 Z " fill="#DA5F59" transform="translate(757,38)"/>
<path d="M0 0 C0 1.32 0 2.64 0 4 C1.32 4 2.64 4 4 4 C4 4.99 4 5.98 4 7 C2.68 7 1.36 7 0 7 C0.33 9.31 0.66 11.62 1 14 C1.99 13.67 2.98 13.34 4 13 C4 14.32 4 15.64 4 17 C3 18 3 18 0.0625 18.1875 C-3 18 -3 18 -5 16 C-5.1953125 13.8359375 -5.1953125 13.8359375 -5.125 11.375 C-5.10695313 10.55773438 -5.08890625 9.74046875 -5.0703125 8.8984375 C-5.04710937 8.27195312 -5.02390625 7.64546875 -5 7 C-5.66 7 -6.32 7 -7 7 C-7 4 -7 4 -5.1875 1.8125 C-3 0 -3 0 0 0 Z " fill="#172319" transform="translate(623,23)"/>
<path d="M0 0 C3.63 0 7.26 0 11 0 C11.33 1.32 11.66 2.64 12 4 C10.35 4 8.7 4 7 4 C7 6.31 7 8.62 7 11 C7.66 11 8.32 11 9 11 C9 11.99 9 12.98 9 14 C6.03 14 3.06 14 0 14 C0 13.01 0 12.02 0 11 C0.66 11 1.32 11 2 11 C1.49547781 7.25212088 0.91840767 3.67363066 0 0 Z " fill="#162118" transform="translate(646,27)"/>
<path d="M0 0 C3.63 0 7.26 0 11 0 C11.33 1.32 11.66 2.64 12 4 C10.35 4 8.7 4 7 4 C7 6.31 7 8.62 7 11 C7.66 11 8.32 11 9 11 C9 11.99 9 12.98 9 14 C6.03 14 3.06 14 0 14 C0 13.01 0 12.02 0 11 C0.66 11 1.32 11 2 11 C1.49547781 7.25212088 0.91840767 3.67363066 0 0 Z " fill="#162118" transform="translate(479,27)"/>
<path d="M0 0 C0 3.3 0 6.6 0 10 C-3.64793184 11.27253436 -7.1936543 12.32829194 -11 13 C-11.33 11.68 -11.66 10.36 -12 9 C-10.68 8.67 -9.36 8.34 -8 8 C-8.061875 7.05125 -8.12375 6.1025 -8.1875 5.125 C-8.125625 4.09375 -8.06375 3.0625 -8 2 C-5 0 -5 0 0 0 Z " fill="#858585" transform="translate(77,14)"/>
<path d="M0 0 C1.65 0 3.3 0 5 0 C5.66 5.61 6.32 11.22 7 17 C4.69 17 2.38 17 0 17 C0 11.39 0 5.78 0 0 Z " fill="#FEFEFD" transform="translate(382,22)"/>
<path d="M0 0 C2.1519437 3.22791555 2.20086443 4.28400809 2 8 C2.84304688 8.04898438 3.68609375 8.09796875 4.5546875 8.1484375 C6.19824219 8.26058594 6.19824219 8.26058594 7.875 8.375 C8.96554687 8.44460937 10.05609375 8.51421875 11.1796875 8.5859375 C14 9 14 9 16 11 C1.81 11 -12.38 11 -27 11 C-27 10.67 -27 10.34 -27 10 C-14.13 9.01 -14.13 9.01 -1 8 C-0.67 5.36 -0.34 2.72 0 0 Z " fill="#6D6D6C" transform="translate(393,30)"/>
<path d="M0 0 C0.66 0 1.32 0 2 0 C0.43525633 4.22480792 -2.45364158 6.35761529 -6 9 C-6.928125 9.309375 -7.85625 9.61875 -8.8125 9.9375 C-11.31171944 10.83546599 -11.31171944 10.83546599 -12 13.8125 C-12 18.43291402 -10.32323941 20.58224348 -7.25 23.875 C-3.84826678 25.57586661 -1.59884825 24.98150407 2 24 C3.96287824 22.08261145 3.96287824 22.08261145 5 20 C4.25 24.75 4.25 24.75 2 27 C-3.28750449 27.43340201 -6.75717264 27.51548553 -11 24 C-13.41721895 21.08266678 -14.2445006 18.65259934 -14.5 14.9375 C-14 11 -14 11 -11.875 8.6875 C-9 7 -9 7 -5.875 5.5 C-2.91494757 3.95562482 -1.85331375 2.68730493 0 0 Z " fill="#454544" transform="translate(83,21)"/>
<path d="M0 0 C0.99 0.99 1.98 1.98 3 3 C2.175 4.010625 1.35 5.02125 0.5 6.0625 C-2.17261016 9.75145487 -2.46733615 12.42010577 -2 17 C-3.98 17.99 -3.98 17.99 -6 19 C-5.649375 18.4225 -5.29875 17.845 -4.9375 17.25 C-3.85082593 14.64198224 -4.06934867 13.60582371 -5 11 C-5.598125 11.309375 -6.19625 11.61875 -6.8125 11.9375 C-9 13 -9 13 -12 14 C-10.53033642 10.60140297 -8.61962486 8.35036291 -6 5.75 C-4.948125 4.69039062 -4.948125 4.69039062 -3.875 3.609375 C-2 2 -2 2 0 2 C0 1.34 0 0.68 0 0 Z " fill="#444443" transform="translate(98,17)"/>
<path d="M0 0 C3.375 -0.125 3.375 -0.125 7 0 C7.66 0.66 8.32 1.32 9 2 C8.8125 4 8.8125 4 8 6 C5 8 5 8 2.9375 7.75 C1 7 1 7 -1 5 C-0.625 2.375 -0.625 2.375 0 0 Z " fill="#474847" transform="translate(83,8)"/>
<path d="M0 0 C1.875 0.0625 1.875 0.0625 4 1 C8 5.44444444 8 5.44444444 8 7 C4.04 7 0.08 7 -4 7 C-2 2 -2 2 0 0 Z " fill="#575857" transform="translate(372,15)"/>
<path d="M0 0 C2.375 0.6875 2.375 0.6875 5 2 C6.3125 4.625 6.3125 4.625 7 7 C6 8 6 8 2.9375 8.0625 C1.968125 8.041875 0.99875 8.02125 0 8 C-0.33 8.66 -0.66 9.32 -1 10 C-1.66 9.01 -2.32 8.02 -3 7 C-2.34 7 -1.68 7 -1 7 C-1.020625 6.030625 -1.04125 5.06125 -1.0625 4.0625 C-1 1 -1 1 0 0 Z " fill="#575757" transform="translate(80,30)"/>
<path d="M0 0 C-0.57878906 0.28359375 -1.15757812 0.5671875 -1.75390625 0.859375 C-8.05537935 4.05942743 -12.75569928 7.29672091 -17 13 C-17.66 12.34 -18.32 11.68 -19 11 C-7.91706566 -2.87893297 -7.91706566 -2.87893297 0 0 Z " fill="#4E6650" transform="translate(382,1)"/>
<path d="M0 0 C0.66 0.33 1.32 0.66 2 1 C1.195625 1.61875 0.39125 2.2375 -0.4375 2.875 C-3.03874519 4.74164041 -3.03874519 4.74164041 -4 7 C-3.34 7.33 -2.68 7.66 -2 8 C-6.95 8 -11.9 8 -17 8 C-17 7.67 -17 7.34 -17 7 C-16.030625 6.87625 -15.06125 6.7525 -14.0625 6.625 C-13.051875 6.41875 -12.04125 6.2125 -11 6 C-10.67 5.34 -10.34 4.68 -10 4 C-7.96875 3.18359375 -7.96875 3.18359375 -5.5 2.4375 C-2.48668507 1.67451663 -2.48668507 1.67451663 0 0 Z " fill="#516853" transform="translate(402,48)"/>
<path d="M0 0 C1.27310312 0.93441535 2.543388 1.87267111 3.8125 2.8125 C4.52019531 3.33457031 5.22789063 3.85664062 5.95703125 4.39453125 C7.78531393 5.83128877 9.39896688 7.31815763 11 9 C10.67 9.99 10.34 10.98 10 12 C6.55571735 10.55218207 4.63869038 8.72305391 2.25 5.875 C1.63640625 5.15054688 1.0228125 4.42609375 0.390625 3.6796875 C-0.06828125 3.12539063 -0.5271875 2.57109375 -1 2 C-0.67 1.34 -0.34 0.68 0 0 Z " fill="#F1F1F0" transform="translate(32,31)"/>
<path d="M0 0 C0 3 0 3 -2.0625 5.625 C-5.47997699 8.3880665 -7.67403972 8.74553175 -12 9 C-10.375 3.25 -10.375 3.25 -7 1 C-6.67 2.32 -6.34 3.64 -6 5 C-4.02 3.35 -2.04 1.7 0 0 Z " fill="#E5E6E4" transform="translate(44,18)"/>
<path d="M0 0 C4.60862461 1.49102561 7.53330244 3.69454418 11 7 C11 7.99 11 8.98 11 10 C11.66 10 12.32 10 13 10 C13 10.99 13 11.98 13 13 C13.66 13 14.32 13 15 13 C14.67 13.99 14.34 14.98 14 16 C10 11 10 11 8.1875 8.4375 C5.41537009 5.34855525 2.67316907 3.9072224 -1 2 C-0.67 1.34 -0.34 0.68 0 0 Z " fill="#4E6751" transform="translate(398,1)"/>
<path d="M0 0 C1.32 0.33 2.64 0.66 4 1 C3.01 1.495 3.01 1.495 2 2 C2 4.64 2 7.28 2 10 C0.02 10.99 0.02 10.99 -2 12 C-2.33 10.35 -2.66 8.7 -3 7 C-2.01 6.67 -1.02 6.34 0 6 C0 4.02 0 2.04 0 0 Z " fill="#515151" transform="translate(98,35)"/>
<path d="M0 0 C1.65 0.33 3.3 0.66 5 1 C5 1.66 5 2.32 5 3 C5.66 3 6.32 3 7 3 C6.67 3.66 6.34 4.32 6 5 C5.38125 5.144375 4.7625 5.28875 4.125 5.4375 C1.61717359 6.1013364 0.76004324 7.15995479 -1 9 C-1.66 9 -2.32 9 -3 9 C-2.42655063 6.13275314 -2.1385485 5.1385485 0 3 C0 2.01 0 1.02 0 0 Z " fill="#939493" transform="translate(41,14)"/>
<path d="M0 0 C0.99 0 1.98 0 3 0 C2.67 4.29 2.34 8.58 2 13 C1.67 11.68 1.34 10.36 1 9 C0.34 9 -0.32 9 -1 9 C-1.625 6.1875 -1.625 6.1875 -2 3 C-1.34 2.01 -0.68 1.02 0 0 Z " fill="#4A4A49" transform="translate(397,23)"/>
<path d="M0 0 C0.99 0 1.98 0 3 0 C3 1.98 3 3.96 3 6 C3.66 6 4.32 6 5 6 C5 7.32 5 8.64 5 10 C4.01 10 3.02 10 2 10 C1.67 10.66 1.34 11.32 1 12 C0.67 8.04 0.34 4.08 0 0 Z " fill="#3D3D3D" transform="translate(387,23)"/>
<path d="M0 0 C2.0625 0.4375 2.0625 0.4375 4 1 C3.67 3.31 3.34 5.62 3 8 C1.68 7.67 0.36 7.34 -1 7 C-1.04254356 5.00045254 -1.04080783 2.99958364 -1 1 C-0.67 0.67 -0.34 0.34 0 0 Z " fill="#3B6648" transform="translate(549,30)"/>
<path d="M0 0 C2.0625 0.4375 2.0625 0.4375 4 1 C3.67 3.31 3.34 5.62 3 8 C1.68 7.67 0.36 7.34 -1 7 C-1.04254356 5.00045254 -1.04080783 2.99958364 -1 1 C-0.67 0.67 -0.34 0.34 0 0 Z " fill="#3B6648" transform="translate(468,30)"/>
<path d="M0 0 C0.33 0 0.66 0 1 0 C2.51708428 12.66970387 2.51708428 12.66970387 0 18 C-0.66 18 -1.32 18 -2 18 C-2.66 19.32 -3.32 20.64 -4 22 C-4 19 -4 19 -2.5625 16.0625 C-0.24149027 10.98255417 -0.26202043 5.50242896 0 0 Z " fill="#5F735F" transform="translate(413,22)"/>
<path d="M0 0 C-1.46966358 3.39859703 -3.38037514 5.64963709 -6 8.25 C-6.70125 8.95640625 -7.4025 9.6628125 -8.125 10.390625 C-10 12 -10 12 -12 12 C-10.53033642 8.60140297 -8.61962486 6.35036291 -6 3.75 C-5.29875 3.04359375 -4.5975 2.3371875 -3.875 1.609375 C-2 0 -2 0 0 0 Z " fill="#E8E8E7" transform="translate(98,19)"/>
<path d="M0 0 C4.29 0 8.58 0 13 0 C12.67 0.66 12.34 1.32 12 2 C9.05859375 2.4140625 9.05859375 2.4140625 5.4375 2.625 C4.23996094 2.69976562 3.04242188 2.77453125 1.80859375 2.8515625 C0.88175781 2.90054688 -0.04507812 2.94953125 -1 3 C-0.67 2.01 -0.34 1.02 0 0 Z " fill="#435D47" transform="translate(379,53)"/>
<path d="M0 0 C0.99 0 1.98 0 3 0 C3 2.64 3 5.28 3 8 C1.68 8 0.36 8 -1 8 C-1.04241723 5.66705225 -1.04092937 3.33297433 -1 1 C-0.67 0.67 -0.34 0.34 0 0 Z " fill="#3B6648" transform="translate(532,30)"/>
<path d="M0 0 C1.32 0.33 2.64 0.66 4 1 C4 2.98 4 4.96 4 7 C2.68 7 1.36 7 0 7 C0 4.69 0 2.38 0 0 Z " fill="#3E6C4B" transform="translate(635,30)"/>
<path d="M0 0 C1.32 0.33 2.64 0.66 4 1 C3.67 3.31 3.34 5.62 3 8 C2.01 8 1.02 8 0 8 C0 5.36 0 2.72 0 0 Z " fill="#3D694A" transform="translate(567,30)"/>
<path d="M0 0 C0.66 0 1.32 0 2 0 C0.50902342 3.7952131 -1.75700849 5.61042731 -5 8 C-6.32 6.35 -7.64 4.7 -9 3 C-8.01 2.67 -7.02 2.34 -6 2 C-6 2.66 -6 3.32 -6 4 C-2.81765895 2.24545615 -2.81765895 2.24545615 0 0 Z " fill="#313131" transform="translate(91,27)"/>
<path d="M0 0 C0.99 0 1.98 0 3 0 C3 2.31 3 4.62 3 7 C1.68 7 0.36 7 -1 7 C-1.04254356 5.00045254 -1.04080783 2.99958364 -1 1 C-0.67 0.67 -0.34 0.34 0 0 Z " fill="#8EBF79" transform="translate(198,26)"/>
<path d="M0 0 C0.33 0 0.66 0 1 0 C1 3.63 1 7.26 1 11 C-0.65 10.67 -2.3 10.34 -4 10 C-3.67 8.68 -3.34 7.36 -3 6 C-2.01 6 -1.02 6 0 6 C0 4.02 0 2.04 0 0 Z " fill="#434342" transform="translate(69,16)"/>
<path d="M0 0 C0.33 0.99 0.66 1.98 1 3 C1.66 3 2.32 3 3 3 C2.34 5.64 1.68 8.28 1 11 C-1.60691842 8.39308158 -1.70416963 6.62392206 -2 3 C-1.34 2.01 -0.68 1.02 0 0 Z " fill="#3A6446" transform="translate(453,22)"/>
<path d="M0 0 C3.875 0.875 3.875 0.875 5 2 C5.04063832 3.66617115 5.042721 5.33388095 5 7 C4.01 7.33 3.02 7.66 2 8 C0.23537317 4.91190305 0 3.76687864 0 0 Z " fill="#464645" transform="translate(100,12)"/>
<path d="M0 0 C1.9375 0.8125 1.9375 0.8125 4 2 C4.33 2.99 4.66 3.98 5 5 C2.36 5 -0.28 5 -3 5 C-2.01 3.35 -1.02 1.7 0 0 Z " fill="#ECECEB" transform="translate(373,15)"/>
<path d="M0 0 C0.33 2.31 0.66 4.62 1 7 C0.34 7 -0.32 7 -1 7 C-1.33 6.34 -1.66 5.68 -2 5 C-3.32 5 -4.64 5 -6 5 C-3.74193548 0 -3.74193548 0 0 0 Z " fill="#2B2B2A" transform="translate(101,13)"/>
<path d="M0 0 C1.5625 1.5625 1.5625 1.5625 3 4 C2.6875 7.75 2.6875 7.75 2 11 C-0.5986701 8.4013299 -0.63249261 6.60157242 -1 3 C-0.67 2.01 -0.34 1.02 0 0 Z " fill="#386144" transform="translate(443,22)"/>
<path d="M0 0 C-0.33 0.99 -0.66 1.98 -1 3 C-2.98 3.33 -4.96 3.66 -7 4 C-6.625 2.0625 -6.625 2.0625 -6 0 C-3.50907189 -1.24546405 -2.58919267 -0.7767578 0 0 Z " fill="#17241A" transform="translate(612,22)"/>
<path d="M0 0 C1.32 0 2.64 0 4 0 C3.67 1.32 3.34 2.64 3 4 C1.02 4.33 -0.96 4.66 -3 5 C-1.125 1.125 -1.125 1.125 0 0 Z " fill="#172219" transform="translate(170,17)"/>
<path d="M0 0 C1.65 0.33 3.3 0.66 5 1 C4.34 2.32 3.68 3.64 3 5 C1.68 4.67 0.36 4.34 -1 4 C-0.67 2.68 -0.34 1.36 0 0 Z " fill="#EDEDEC" transform="translate(81,32)"/>
<path d="M0 0 C-3.58752742 1.86551426 -7.27812193 3.42535928 -11 5 C-11 4.01 -11 3.02 -11 2 C-6.89657963 -0.38570952 -4.61380251 -1.49270081 0 0 Z " fill="#546C56" transform="translate(382,1)"/>
<path d="M0 0 C0.99 0.99 1.98 1.98 3 3 C1.35 4.98 -0.3 6.96 -2 9 C-2.66 8.34 -3.32 7.68 -4 7 C-3.525625 6.5875 -3.05125 6.175 -2.5625 5.75 C-0.83733482 3.817815 -0.43415125 2.51807725 0 0 Z " fill="#4B4B4A" transform="translate(98,17)"/>
<path d="M0 0 C2.29013653 3.4352048 2.17842973 4.985331 2 9 C1.01 9 0.02 9 -1 9 C-0.67 6.03 -0.34 3.06 0 0 Z " fill="#C2C2C1" transform="translate(393,30)"/>
<path d="M0 0 C2.31 0 4.62 0 7 0 C6.34 1.32 5.68 2.64 5 4 C3.0625 3.6875 3.0625 3.6875 1 3 C0.67 2.01 0.34 1.02 0 0 Z " fill="#EBECEA" transform="translate(83,10)"/>
<path d="M0 0 C0 3 0 3 -2 5.1875 C-2.66 5.785625 -3.32 6.38375 -4 7 C-4.66 6.67 -5.32 6.34 -6 6 C-2.25 1.125 -2.25 1.125 0 0 Z " fill="#425E46" transform="translate(409,43)"/>
</svg>
