<?xml version="1.0" encoding="UTF-8"?>
<svg version="1.1" xmlns="http://www.w3.org/2000/svg" width="56" height="56">
<path d="M0 0 C18.48 0 36.96 0 56 0 C56 18.48 56 36.96 56 56 C37.52 56 19.04 56 0 56 C0 37.52 0 19.04 0 0 Z " fill="#FBFBFA" transform="translate(0,0)"/>
<path d="M0 0 C18.48 0 36.96 0 56 0 C56 18.48 56 36.96 56 56 C37.52 56 19.04 56 0 56 C0 37.52 0 19.04 0 0 Z M7.6640625 14.68359375 C3.13519871 20.98785719 3.30427408 27.48972792 4 35 C5.715597 42.2315671 9.93308268 46.89230736 16 51 C21.90229746 54.39170877 28.32269901 54.9751274 35 54 C41.82279404 51.79118179 47.2410701 48.16563749 51 42 C54.34955748 35.16078949 55.55225064 27.67054969 53.12109375 20.35546875 C49.88147615 13.22403331 45.48837188 8.35563112 38.3125 5.125 C25.31332423 0.90973329 16.1815913 4.92746016 7.6640625 14.68359375 Z " fill="#42674C" transform="translate(0,0)"/>
<path d="M0 0 C4.95 0 9.9 0 15 0 C15 1.98 15 3.96 15 6 C14.01 6 13.02 6 12 6 C12 9.63 12 13.26 12 17 C12.99 17 13.98 17 15 17 C15 18.98 15 20.96 15 23 C13.68 23.33 12.36 23.66 11 24 C11.66 24.66 12.32 25.32 13 26 C13.3633156 28.83386167 13.3568671 30.40522151 11.875 32.875 C9.07848948 34.55290631 7.06309468 33.74875648 4 33 C2.66975143 24.02082217 3 15.0673 3 6 C2.01 6 1.02 6 0 6 C0 4.02 0 2.04 0 0 Z " fill="#575756" transform="translate(14,12)"/>
<path d="M0 0 C1.671875 1.140625 1.671875 1.140625 3 3 C3.109375 5.8203125 3.109375 5.8203125 2.75 9.125 C2.63398437 10.28386719 2.51796875 11.44273438 2.3984375 12.63671875 C2.16108907 14.64021872 1.91830571 16.64310506 1.6640625 18.64453125 C1.10505078 23.07885397 1.24125604 26.55592822 2 31 C0 33 0 33 -3 33.25 C-6 33 -6 33 -8 31 C-7.63723355 28.17042171 -6.90305236 25.70915709 -6 23 C-6.24597846 20.90776946 -6.56850794 18.82407302 -6.9375 16.75 C-8.92709491 4.51262854 -8.92709491 4.51262854 -6.8125 1.0625 C-4.33950907 -0.38718434 -2.82115488 -0.42317323 0 0 Z " fill="#4A4A49" transform="translate(39,12)"/>
<path d="M0 0 C3.96 0 7.92 0 12 0 C12 0.66 12 1.32 12 2 C11.01 2 10.02 2 9 2 C9 6.62 9 11.24 9 16 C9.66 16.33 10.32 16.66 11 17 C11 17.66 11 18.32 11 19 C7.04 19.495 7.04 19.495 3 20 C2.67 14.06 2.34 8.12 2 2 C1.34 2 0.68 2 0 2 C0 1.34 0 0.68 0 0 Z " fill="#FCFCFB" transform="translate(16,14)"/>
<path d="M0 0 C0.33 0 0.66 0 1 0 C1 5.94 1 11.88 1 18 C-4.94 18 -10.88 18 -17 18 C-16.01 17.34 -15.02 16.68 -14 16 C-7.67577643 11.72651838 -2.49736746 7.49210237 0 0 Z " fill="#3F6D4C" transform="translate(55,38)"/>
<path d="M0 0 C0.33 0 0.66 0 1 0 C1 5.28 1 10.56 1 16 C2.98 16.66 4.96 17.32 7 18 C9 20 9 20 9.3125 22.4375 C9 25 9 25 7.875 26.875 C5.07848948 28.55290631 3.06309468 27.74875648 0 27 C-0.72161408 22.21930672 -1.07085088 17.80289583 -0.78125 12.98828125 C-0.73613281 12.23095703 -0.69101562 11.47363281 -0.64453125 10.69335938 C-0.59683594 9.90767578 -0.54914062 9.12199219 -0.5 8.3125 C-0.45230469 7.51521484 -0.40460937 6.71792969 -0.35546875 5.89648438 C-0.2377716 3.93094197 -0.11899029 1.96546454 0 0 Z " fill="#505150" transform="translate(18,18)"/>
<path d="M0 0 C1.2065625 0.0309375 1.2065625 0.0309375 2.4375 0.0625 C4.03368954 6.92611501 2.68470085 13.20804904 1.4375 20.0625 C0.4475 20.0625 -0.5425 20.0625 -1.5625 20.0625 C-2.88223271 13.65236968 -3.92667153 7.61758753 -3.5625 1.0625 C-2.5625 0.0625 -2.5625 0.0625 0 0 Z " fill="#F8F8F7" transform="translate(36.5625,13.9375)"/>
<path d="M0 0 C3.3 0 6.6 0 10 0 C10 0.33 10 0.66 10 1 C7.36 1 4.72 1 2 1 C2 1.66 2 2.32 2 3 C2.66 3 3.32 3 4 3 C4 9.27 4 15.54 4 22 C3.67 22 3.34 22 3 22 C3 16.39 3 10.78 3 5 C2.01 5 1.02 5 0 5 C0 3.35 0 1.7 0 0 Z " fill="#3A3B3A" transform="translate(14,13)"/>
<path d="M0 0 C0.33 0 0.66 0 1 0 C1 3.3 1 6.6 1 10 C1.99 10 2.98 10 4 10 C4 11.98 4 13.96 4 16 C1.36 16 -1.28 16 -4 16 C-1 14 -1 14 2 14 C2 13.34 2 12.68 2 12 C1.34 12 0.68 12 0 12 C0 8.04 0 4.08 0 0 Z " fill="#424342" transform="translate(25,19)"/>
<path d="M0 0 C2.125 0.9375 2.125 0.9375 4 2 C3.67 3.32 3.34 4.64 3 6 C1.0625 6.5625 1.0625 6.5625 -1 7 C-2 6 -2 6 -2.0625 3.4375 C-2.041875 2.633125 -2.02125 1.82875 -2 1 C-1.34 0.67 -0.68 0.34 0 0 Z " fill="#FAFAF9" transform="translate(21,37)"/>
<path d="M0 0 C1.65 0.33 3.3 0.66 5 1 C4.67 2.65 4.34 4.3 4 6 C2.35 5.67 0.7 5.34 -1 5 C-0.67 3.35 -0.34 1.7 0 0 Z " fill="#F0F0EF" transform="translate(34,38)"/>
<path d="M0 0 C0.33 0 0.66 0 1 0 C1 5.28 1 10.56 1 16 C2.32 16.66 3.64 17.32 5 18 C3.125 18.625 3.125 18.625 1 19 C0.34 18.34 -0.32 17.68 -1 17 C-0.98251781 14.08047432 -0.86055367 11.27702115 -0.625 8.375 C-0.56828125 7.57320312 -0.5115625 6.77140625 -0.453125 5.9453125 C-0.31152018 3.96284502 -0.15697741 1.98130949 0 0 Z " fill="#7C7D7C" transform="translate(18,18)"/>
<path d="M0 0 C0.33 0 0.66 0 1 0 C1 1.65 1 3.3 1 5 C2.32 5.33 3.64 5.66 5 6 C4.67 6.66 4.34 7.32 4 8 C2.68 8 1.36 8 0 8 C-0.98120464 4.94736336 -0.98120464 3.05263664 0 0 Z " fill="#727372" transform="translate(34,29)"/>
</svg>
