<?xml version="1.0" encoding="UTF-8"?>
<svg version="1.1" xmlns="http://www.w3.org/2000/svg" width="56" height="56">
<path d="M0 0 C18.48 0 36.96 0 56 0 C56 18.48 56 36.96 56 56 C37.52 56 19.04 56 0 56 C0 37.52 0 19.04 0 0 Z " fill="#416D4C" transform="translate(0,0)"/>
<path d="M0 0 C3.63 0 7.26 0 11 0 C11.89663451 1.718048 12.76659588 3.45003497 13.625 5.1875 C14.11226562 6.15042969 14.59953125 7.11335938 15.1015625 8.10546875 C16 11 16 11 15.25 13.625 C14.63125 14.800625 14.63125 14.800625 14 16 C13.71898437 16.66644531 13.43796875 17.33289063 13.1484375 18.01953125 C12.07421875 20.50976562 12.07421875 20.50976562 11 23 C7.37 23 3.74 23 0 23 C1.07421875 20.55859375 2.1484375 18.1171875 3.22265625 15.67578125 C4.50050862 11.27714369 3.05177585 7.82846849 1.4375 3.6875 C0.963125 2.470625 0.48875 1.25375 0 0 Z " fill="#D13733" transform="translate(21,26)"/>
<path d="M0 0 C3.63 0 7.26 0 11 0 C16.37289808 8.94349491 16.37289808 8.94349491 15.4765625 13.88671875 C14.45473538 16.36881654 13.33775944 18.67484668 12 21 C11.67 21.66 11.34 22.32 11 23 C7.37 23 3.74 23 0 23 C0.680625 21.47375 1.36125 19.9475 2.0625 18.375 C4.43645906 12.38959259 3.85451957 8.94676349 1.4375 3.125 C0.963125 2.09375 0.48875 1.0625 0 0 Z " fill="#D23733" transform="translate(38,26)"/>
<path d="M0 0 C3.63 0 7.26 0 11 0 C15.8117519 9.47769314 15.8117519 9.47769314 14 16 C13.09528293 18.39844266 12.09113991 20.67539759 11 23 C7.37 23 3.74 23 0 23 C1.07421875 20.55859375 2.1484375 18.1171875 3.22265625 15.67578125 C4.50050862 11.27714369 3.05177585 7.82846849 1.4375 3.6875 C0.963125 2.470625 0.48875 1.25375 0 0 Z " fill="#D23633" transform="translate(4,26)"/>
</svg>
