<?xml version="1.0" encoding="UTF-8"?>
<svg version="1.1" xmlns="http://www.w3.org/2000/svg" width="56" height="58">
<path d="M0 0 C18.48 0 36.96 0 56 0 C56 19.14 56 38.28 56 58 C37.52 58 19.04 58 0 58 C0 38.86 0 19.72 0 0 Z " fill="#F3F4F2" transform="translate(0,0)"/>
<path d="M0 0 C1.49853516 0.12568359 1.49853516 0.12568359 3.02734375 0.25390625 C4.31769531 0.35574219 5.60804687 0.45757813 6.9375 0.5625 C8.22527344 0.66691406 9.51304688 0.77132813 10.83984375 0.87890625 C11.88269531 0.91886719 12.92554688 0.95882813 14 1 C14.33 0.67 14.66 0.34 15 0 C16.99958364 -0.04080783 19.00045254 -0.04254356 21 0 C21 0.66 21 1.32 21 2 C22.7634375 1.505 22.7634375 1.505 24.5625 1 C28.5011676 0.0030467 31.95139129 -0.16869203 36 0 C36.44921526 6.28901364 35.89556857 10.88311805 32 16 C27.61586978 20.27498175 23.46322503 22.37360797 17.3125 22.625 C12.48086955 22.32218194 9.65671855 21.31655869 6 18 C5.44183594 17.525625 4.88367188 17.05125 4.30859375 16.5625 C1.51232141 13.86354572 0.13234093 12.02288512 -0.375 8.1015625 C-0.375 5.37466714 -0.26493194 2.71309934 0 0 Z " fill="#3B3B3A" transform="translate(10,28)"/>
<path d="M0 0 C18.48 0 36.96 0 56 0 C56 8.58 56 17.16 56 26 C55.67 26 55.34 26 55 26 C54.82984375 25.41992188 54.6596875 24.83984375 54.484375 24.2421875 C51.7848338 15.54047492 47.9432694 9.6924652 40 5 C32.9874551 2.20071437 25.46322246 1.67092406 18.1796875 3.83984375 C11.35716165 6.93814677 5.93033473 11.56023013 2.90625 18.515625 C2.17622267 20.66514993 1.53595243 22.79493859 1 25 C0.67 25 0.34 25 0 25 C0 16.75 0 8.5 0 0 Z " fill="#4C644E" transform="translate(0,0)"/>
<path d="M0 0 C0.33 0 0.66 0 1 0 C1 8.25 1 16.5 1 25 C-17.48 25 -35.96 25 -55 25 C-55 17.41 -55 9.82 -55 2 C-53.44107761 4.33838358 -52.45790441 6.2198495 -51.375 8.75 C-48.37088659 14.79160585 -43.40717342 19.19242685 -37.25 21.9375 C-29.29782735 24.43229926 -20.79022338 23.85069279 -13.25390625 20.37890625 C-5.45740881 15.60912532 -2.50929749 8.4786201 0 0 Z " fill="#516952" transform="translate(55,33)"/>
<path d="M0 0 C11.88 0 23.76 0 36 0 C36 2.64 36 5.28 36 8 C24.12 8 12.24 8 0 8 C0 5.36 0 2.72 0 0 Z " fill="#9C9C9B" transform="translate(10,14)"/>
<path d="M0 0 C1.49853516 0.12568359 1.49853516 0.12568359 3.02734375 0.25390625 C4.31769531 0.35574219 5.60804687 0.45757813 6.9375 0.5625 C8.22527344 0.66691406 9.51304688 0.77132813 10.83984375 0.87890625 C11.88269531 0.91886719 12.92554688 0.95882813 14 1 C14.33 0.67 14.66 0.34 15 0 C16.99958364 -0.04080783 19.00045254 -0.04254356 21 0 C21 0.66 21 1.32 21 2 C22.7634375 1.505 22.7634375 1.505 24.5625 1 C28.5011676 0.0030467 31.95139129 -0.16869203 36 0 C36.44729348 6.26210878 35.9196678 10.92011053 32 16 C28.10542007 19.47334453 24.67847259 21.82331867 19.4375 22.375 C18.633125 22.25125 17.82875 22.1275 17 22 C17.33 19.69 17.66 17.38 18 15 C18.33 15 18.66 15 19 15 C19 16.65 19 18.3 19 20 C22.96 18.515 22.96 18.515 27 17 C26.67 15.35 26.34 13.7 26 12 C25.34 12 24.68 12 24 12 C24 11.34 24 10.68 24 10 C24.66 10 25.32 10 26 10 C26.33 7.69 26.66 5.38 27 3 C23.27385847 4.11854586 23.27385847 4.11854586 21 7 C20.34 6.67 19.68 6.34 19 6 C19 4.68 19 3.36 19 2 C18.01 2 17.02 2 16 2 C15.01 3.485 15.01 3.485 14 5 C12.02 4.34 10.04 3.68 8 3 C8.66 4.98 9.32 6.96 10 9 C8.68 8.34 7.36 7.68 6 7 C6 5.35 6 3.7 6 2 C4.35 1.67 2.7 1.34 1 1 C1 3.31 1 5.62 1 8 C0.67 8 0.34 8 0 8 C0 5.36 0 2.72 0 0 Z " fill="#363636" transform="translate(10,28)"/>
<path d="M0 0 C6.6 0 13.2 0 20 0 C20 5.94 20 11.88 20 18 C17 14 17 14 15.52734375 12.03515625 C11.09909974 6.54065201 6.47648942 3.71048249 0 1 C0 0.67 0 0.34 0 0 Z " fill="#3F6D4C" transform="translate(36,0)"/>
<path d="M0 0 C6.27 0 12.54 0 19 0 C15.82855828 3.17144172 11.78597984 5.22768439 7.6875 7 C5.46141034 8.31916424 5.06808777 9.663558 4 12 C2.68 13.65 1.36 15.3 0 17 C0 11.39 0 5.78 0 0 Z " fill="#8FC17B" transform="translate(0,0)"/>
<path d="M0 0 C1.32 0 2.64 0 4 0 C3.67 2.31 3.34 4.62 3 7 C2.34 7 1.68 7 1 7 C1 7.66 1 8.32 1 9 C1.66 9 2.32 9 3 9 C3.66 10.65 4.32 12.3 5 14 C1.55930376 16.29379749 0.27709699 17 -4 17 C-3.979375 16.195625 -3.95875 15.39125 -3.9375 14.5625 C-3.70366379 12.06645115 -3.70366379 12.06645115 -5 11 C-5.04080783 9.00041636 -5.04254356 6.99954746 -5 5 C-4.01 4.67 -3.02 4.34 -2 4 C-0.79117904 1.99983534 -0.79117904 1.99983534 0 0 Z " fill="#7E7F7E" transform="translate(33,31)"/>
<path d="M0 0 C0.33 0 0.66 0 1 0 C1 5.61 1 11.22 1 17 C-4.61 17 -10.22 17 -16 17 C-14.68 16.01 -13.36 15.02 -12 14 C-11.13375 13.278125 -10.2675 12.55625 -9.375 11.8125 C-7 10 -7 10 -5 10 C-4.731875 9.46375 -4.46375 8.9275 -4.1875 8.375 C-2.79166667 5.58333333 -1.39583333 2.79166667 0 0 Z " fill="#8FC17B" transform="translate(55,41)"/>
<path d="M0 0 C4 5 4 5 5.6875 7.5 C8.92430632 10.99925008 12.77393551 12.8779377 17 15 C17 15.33 17 15.66 17 16 C11.39 16 5.78 16 0 16 C0 10.72 0 5.44 0 0 Z " fill="#90C27B" transform="translate(0,42)"/>
<path d="M0 0 C1.49853516 0.12568359 1.49853516 0.12568359 3.02734375 0.25390625 C4.31769531 0.35574219 5.60804687 0.45757813 6.9375 0.5625 C8.22527344 0.66691406 9.51304688 0.77132813 10.83984375 0.87890625 C11.88269531 0.91886719 12.92554688 0.95882813 14 1 C14.33 0.67 14.66 0.34 15 0 C16.99958364 -0.04080783 19.00045254 -0.04254356 21 0 C21 0.66 21 1.32 21 2 C24.3 1.67 27.6 1.34 31 1 C30.01 1.495 30.01 1.495 29 2 C28.67 2.99 28.34 3.98 28 5 C28 4.34 28 3.68 28 3 C25.97954558 3.60183749 23.97888961 4.27306096 22 5 C21.67 5.66 21.34 6.32 21 7 C20.34 6.67 19.68 6.34 19 6 C19 4.68 19 3.36 19 2 C18.01 2 17.02 2 16 2 C15.01 3.485 15.01 3.485 14 5 C12.02 4.34 10.04 3.68 8 3 C8.66 4.98 9.32 6.96 10 9 C8.68 8.34 7.36 7.68 6 7 C6 5.35 6 3.7 6 2 C4.35 1.67 2.7 1.34 1 1 C1 3.31 1 5.62 1 8 C0.67 8 0.34 8 0 8 C0 5.36 0 2.72 0 0 Z " fill="#212120" transform="translate(10,28)"/>
<path d="M0 0 C1.65 0 3.3 0 5 0 C5.2954439 5.02254631 4.98514628 7.89542386 2 12 C0.68 11.34 -0.64 10.68 -2 10 C-1.34 6.7 -0.68 3.4 0 0 Z " fill="#EBEBEA" transform="translate(39,30)"/>
<path d="M0 0 C1.32 0 2.64 0 4 0 C5.12880057 3.31114834 6.21302675 6.58978257 7 10 C5.02 10.99 5.02 10.99 3 12 C0.01485372 7.89542386 -0.2954439 5.02254631 0 0 Z " fill="#EEEFEE" transform="translate(12,30)"/>
<path d="M0 0 C5.75 0.875 5.75 0.875 8 2 C8 3.65 8 5.3 8 7 C1.375 6.25 1.375 6.25 -2 4 C-1.34 2.68 -0.68 1.36 0 0 Z " fill="#DEDEDD" transform="translate(19,41)"/>
<path d="M0 0 C0.8353125 0.556875 0.8353125 0.556875 1.6875 1.125 C0.6875 4.125 0.6875 4.125 -1.125 5.3125 C-3.3125 6.125 -3.3125 6.125 -7.3125 6.125 C-7.3125 4.475 -7.3125 2.825 -7.3125 1.125 C-2.88173077 -1.09038462 -2.88173077 -1.09038462 0 0 Z " fill="#EDEDEC" transform="translate(36.3125,41.875)"/>
<path d="M0 0 C3.63 0.33 7.26 0.66 11 1 C10.34 1.66 9.68 2.32 9 3 C9.32198966 6.09926819 9.32198966 6.09926819 10 9 C8.68 8.34 7.36 7.68 6 7 C6 5.35 6 3.7 6 2 C4.35 1.67 2.7 1.34 1 1 C1 3.31 1 5.62 1 8 C0.67 8 0.34 8 0 8 C0 5.36 0 2.72 0 0 Z " fill="#333332" transform="translate(10,28)"/>
<path d="M0 0 C1.65 0 3.3 0 5 0 C5.33 1.32 5.66 2.64 6 4 C4.68 4.99 3.36 5.98 2 7 C0 4 0 4 0 0 Z " fill="#CECECD" transform="translate(18,31)"/>
<path d="M0 0 C0.33 0 0.66 0 1 0 C1.29341888 5.67276511 1.00559652 8.99067246 -2 14 C-2.66 13.67 -3.32 13.34 -4 13 C-3.79503906 12.39671875 -3.59007812 11.7934375 -3.37890625 11.171875 C-2.97478516 9.97304688 -2.97478516 9.97304688 -2.5625 8.75 C-2.29566406 7.96109375 -2.02882812 7.1721875 -1.75390625 6.359375 C-1.08045292 4.25178012 -0.50849405 2.15246027 0 0 Z " fill="#556D56" transform="translate(55,33)"/>
<path d="M0 0 C1.32 0 2.64 0 4 0 C4 1.65 4 3.3 4 5 C2.68 5 1.36 5 0 5 C-0.5625 3.0625 -0.5625 3.0625 -1 1 C-0.67 0.67 -0.34 0.34 0 0 Z " fill="#E1E1E0" transform="translate(33,31)"/>
<path d="M0 0 C1.98 0.495 1.98 0.495 4 1 C4 2.32 4 3.64 4 5 C2.35 4.67 0.7 4.34 -1 4 C-0.67 2.68 -0.34 1.36 0 0 Z " fill="#D7D7D6" transform="translate(26,29)"/>
<path d="M0 0 C2.31 0 4.62 0 7 0 C7 2.64 7 5.28 7 8 C5 5 5 5 5 2 C3.35 1.67 1.7 1.34 0 1 C0 0.67 0 0.34 0 0 Z " fill="#3B3B3A" transform="translate(39,28)"/>
<path d="M0 0 C0.99 0 1.98 0 3 0 C3 1.65 3 3.3 3 5 C1.35 4.67 -0.3 4.34 -2 4 C-1.34 2.68 -0.68 1.36 0 0 Z " fill="#D4D4D3" transform="translate(24,36)"/>
<path d="M0 0 C0 0.66 0 1.32 0 2 C-4.29 1.67 -8.58 1.34 -13 1 C-13 0.67 -13 0.34 -13 0 C-4.57142857 -1.28571429 -4.57142857 -1.28571429 0 0 Z " fill="#566B56" transform="translate(37,1)"/>
<path d="M0 0 C0.66 0.33 1.32 0.66 2 1 C1.67 2.98 1.34 4.96 1 7 C1.66 7.33 2.32 7.66 3 8 C2.34 8 1.68 8 1 8 C1 9.98 1 11.96 1 14 C0.67 14 0.34 14 0 14 C-0.91297308 9.02936879 -0.91297308 4.97063121 0 0 Z " fill="#191818" transform="translate(27,35)"/>
</svg>
