<?xml version="1.0" encoding="UTF-8"?>
<svg version="1.1" xmlns="http://www.w3.org/2000/svg" width="56" height="56">
<path d="M0 0 C18.48 0 36.96 0 56 0 C56 18.48 56 36.96 56 56 C37.52 56 19.04 56 0 56 C0 37.52 0 19.04 0 0 Z " fill="#F7F7F6" transform="translate(0,0)"/>
<path d="M0 0 C18.48 0 36.96 0 56 0 C56 18.48 56 36.96 56 56 C37.52 56 19.04 56 0 56 C0 37.52 0 19.04 0 0 Z M8 13 C3.66851014 19.3331632 1.69372844 25.35770099 3 33 C5.05570522 40.00547588 8.84316566 46.53073813 15.22265625 50.3203125 C22.13301802 53.45242576 29.07364702 54.32783677 36.44921875 52.33984375 C43.29457205 49.65516359 48.93342596 45.06854946 51.9375 38.25 C54.09096038 31.34822637 54.03759405 23.49465694 51.09375 16.84375 C47.4063539 10.62785372 42.37123377 7.03537744 35.61328125 4.65625 C25.10079577 2.01634333 15.14325348 4.76445291 8 13 Z " fill="#48634C" transform="translate(0,0)"/>
<path d="M0 0 C0.33 0.99 0.66 1.98 1 3 C8.26 3 15.52 3 23 3 C23.33 2.01 23.66 1.02 24 0 C25.625 2.1875 25.625 2.1875 27 5 C26.33333333 6.66666667 25.66666667 8.33333333 25 10 C25.0834044 12.59804691 25.3741694 15.11864493 25.7109375 17.6953125 C26 20 26 20 26 23 C17.09 23 8.18 23 -1 23 C-1 20.03 -1 17.06 -1 14 C-0.34 14.66 0.32 15.32 1 16 C3.23035297 16.27741245 3.23035297 16.27741245 5.7890625 16.1953125 C7.20058594 16.18564453 7.20058594 16.18564453 8.640625 16.17578125 C9.62546875 16.15902344 10.6103125 16.14226563 11.625 16.125 C12.61757813 16.11597656 13.61015625 16.10695313 14.6328125 16.09765625 C17.08878134 16.07404116 19.54427168 16.04110799 22 16 C21.34 14.68 20.68 13.36 20 12 C20 12.99 20 13.98 20 15 C14.72 15 9.44 15 4 15 C4 14.67 4 14.34 4 14 C7.3 13.67 10.6 13.34 14 13 C10.37 12.34 6.74 11.68 3 11 C3 10.67 3 10.34 3 10 C9.27 10 15.54 10 22 10 C22 8.35 22 6.7 22 5 C15.4 5 8.8 5 2 5 C1.67 7.31 1.34 9.62 1 12 C0.01 11.34 -0.98 10.68 -2 10 C-2.1875 7.375 -2.1875 7.375 -2 5 C-2.66 4.67 -3.32 4.34 -4 4 C-2.68 2.68 -1.36 1.36 0 0 Z " fill="#5D5E5D" transform="translate(16,13)"/>
<path d="M0 0 C6.6 0 13.2 0 20 0 C20.33 1.98 20.66 3.96 21 6 C16.38 6 11.76 6 7 6 C10.3 6.66 13.6 7.32 17 8 C17 7.34 17 6.68 17 6 C17.99 6.33 18.98 6.66 20 7 C20 8.32 20 9.64 20 11 C9.11 11.495 9.11 11.495 -2 12 C-2.33 11.01 -2.66 10.02 -3 9 C-3.19335938 9.60328125 -3.38671875 10.2065625 -3.5859375 10.828125 C-3.84632812 11.62734375 -4.10671875 12.4265625 -4.375 13.25 C-4.63023438 14.03890625 -4.88546875 14.8278125 -5.1484375 15.640625 C-5.95173667 17.86627958 -6.89711662 19.90931672 -8 22 C-9.32435978 18.02692066 -8.18129186 15.19025432 -7.0625 11.3125 C-6.76956055 10.2596582 -6.76956055 10.2596582 -6.47070312 9.18554688 C-5.98800864 7.45491056 -5.49499154 5.72715934 -5 4 C-4.360625 3.896875 -3.72125 3.79375 -3.0625 3.6875 C-2.381875 3.460625 -1.70125 3.23375 -1 3 C-0.67 2.01 -0.34 1.02 0 0 Z " fill="#999998" transform="translate(18,18)"/>
<path d="M0 0 C2.578125 -0.04125 5.15625 -0.0825 7.8125 -0.125 C8.62050049 -0.14320801 9.42850098 -0.16141602 10.26098633 -0.18017578 C14.06519761 -0.20976568 15.76428169 -0.15714554 19 2 C18.41992188 2.35191406 17.83984375 2.70382813 17.2421875 3.06640625 C9.27978015 8.09875281 4.26572839 13.1099616 1 22 C0.67 22 0.34 22 0 22 C0 14.74 0 7.48 0 0 Z " fill="#8FC27B" transform="translate(0,0)"/>
<path d="M0 0 C3.8671875 0.061875 3.8671875 0.061875 7.8125 0.125 C7.8125 6.725 7.8125 13.325 7.8125 20.125 C4.8125 16.125 4.8125 16.125 3.41796875 14.125 C-0.59296947 8.46769871 -4.85393785 5.04818253 -11.1875 2.125 C-7.39298348 -0.40467768 -4.37552503 -0.09860092 0 0 Z " fill="#90C27B" transform="translate(48.1875,-0.125)"/>
<path d="M0 0 C2 3 2 3 3.19140625 5.26953125 C6.76017504 11.88852977 10.49970628 15.33507249 17 19 C17.99 19.66 18.98 20.32 20 21 C13.4 21 6.8 21 0 21 C0 14.07 0 7.14 0 0 Z " fill="#8DBE7A" transform="translate(0,35)"/>
<path d="M0 0 C0.33 0 0.66 0 1 0 C1 6.27 1 12.54 1 19 C-5.27 19 -11.54 19 -18 19 C-14 16 -14 16 -12.03515625 14.67578125 C-6.24152079 10.67186288 -3.11653371 6.23306743 0 0 Z " fill="#90C37C" transform="translate(55,37)"/>
<path d="M0 0 C0.33 0 0.66 0 1 0 C1 1.65 1 3.3 1 5 C-9.395 5.495 -9.395 5.495 -20 6 C-20.33 6.66 -20.66 7.32 -21 8 C-13.41 8 -5.82 8 2 8 C2.33 7.34 2.66 6.68 3 6 C3.33 7.65 3.66 9.3 4 11 C-4.91 11 -13.82 11 -23 11 C-23 8.03 -23 5.06 -23 2 C-22.34 2.66 -21.68 3.32 -21 4 C-18.76964703 4.27741245 -18.76964703 4.27741245 -16.2109375 4.1953125 C-14.79941406 4.18564453 -14.79941406 4.18564453 -13.359375 4.17578125 C-12.37453125 4.15902344 -11.3896875 4.14226563 -10.375 4.125 C-9.38242187 4.11597656 -8.38984375 4.10695313 -7.3671875 4.09765625 C-4.91121866 4.07404116 -2.45572832 4.04110799 0 4 C0 2.68 0 1.36 0 0 Z " fill="#373737" transform="translate(38,25)"/>
<path d="M0 0 C6.6 0 13.2 0 20 0 C20.33 1.98 20.66 3.96 21 6 C20.40461426 5.99476318 19.80922852 5.98952637 19.19580078 5.98413086 C16.50554453 5.96338001 13.81530511 5.95034593 11.125 5.9375 C10.18785156 5.92912109 9.25070313 5.92074219 8.28515625 5.91210938 C7.38925781 5.90888672 6.49335938 5.90566406 5.5703125 5.90234375 C4.74289551 5.89710693 3.91547852 5.89187012 3.06298828 5.88647461 C0.93588243 5.86647862 0.93588243 5.86647862 -1 7 C-0.67 4.69 -0.34 2.38 0 0 Z " fill="#EFEFEE" transform="translate(18,18)"/>
<path d="M0 0 C6.6 0 13.2 0 20 0 C20.33 0.99 20.66 1.98 21 3 C13.74 3 6.48 3 -1 3 C-0.67 2.01 -0.34 1.02 0 0 Z " fill="#F4F4F3" transform="translate(18,30)"/>
<path d="M0 0 C1.79398267 0.95399078 3.58511655 1.91334026 5.375 2.875 C6.37273438 3.40867188 7.37046875 3.94234375 8.3984375 4.4921875 C11 6 11 6 13 8 C8.71 8 4.42 8 0 8 C0 5.36 0 2.72 0 0 Z " fill="#41704E" transform="translate(0,48)"/>
<path d="M0 0 C6.27 0 12.54 0 19 0 C18.67 0.66 18.34 1.32 18 2 C17.67 2.99 17.34 3.98 17 5 C11.72 5 6.44 5 1 5 C1 4.67 1 4.34 1 4 C4.3 3.67 7.6 3.34 11 3 C7.37 2.34 3.74 1.68 0 1 C0 0.67 0 0.34 0 0 Z " fill="#484847" transform="translate(19,23)"/>
<path d="M0 0 C0.66 0.66 1.32 1.32 2 2 C1.649375 2.639375 1.29875 3.27875 0.9375 3.9375 C-0.34990613 8.1430267 0.3091153 11.71464763 1 16 C0.01 16.33 -0.98 16.66 -2 17 C-3.09506492 13.71480525 -3.09960608 11.26336585 -3.0625 7.8125 C-3.05347656 6.72582031 -3.04445312 5.63914062 -3.03515625 4.51953125 C-3.02355469 3.68808594 -3.01195312 2.85664063 -3 2 C-2.01 2 -1.02 2 0 2 C0 1.34 0 0.68 0 0 Z " fill="#4C4C4B" transform="translate(41,16)"/>
<path d="M0 0 C0.66 0 1.32 0 2 0 C4.1519437 3.22791555 4.20086443 4.28400809 4 8 C3.01 8.33 2.02 8.66 1 9 C-0.06546953 5.8035914 -0.07427838 3.34252724 0 0 Z " fill="#828382" transform="translate(38,24)"/>
</svg>
