<?xml version="1.0" encoding="UTF-8"?>
<svg version="1.1" xmlns="http://www.w3.org/2000/svg" width="56" height="56">
<path d="M0 0 C18.48 0 36.96 0 56 0 C56 18.48 56 36.96 56 56 C37.52 56 19.04 56 0 56 C0 37.52 0 19.04 0 0 Z " fill="#EEEEEC" transform="translate(0,0)"/>
<path d="M0 0 C18.48 0 36.96 0 56 0 C56 18.48 56 36.96 56 56 C37.52 56 19.04 56 0 56 C0 37.52 0 19.04 0 0 Z M8.18359375 13.12890625 C4.04799226 19.6667053 2.8789508 26.32348213 4 34 C6.49653377 41.71151544 10.78408486 47.14211316 17.875 51.02734375 C24.37488919 53.87104527 31.45123585 54.06396011 38.1875 51.875 C44.90940419 48.95538505 49.32948733 44.55301576 52.2890625 37.875 C54.83746698 31.15393323 54.73762369 24.58658502 51.96484375 17.98046875 C48.52461232 10.91894107 44.32437346 7.03509996 37 4 C25.72787255 1.27371801 15.47699326 3.52145363 8.18359375 13.12890625 Z " fill="#42674B" transform="translate(0,0)"/>
<path d="M0 0 C1.91423658 0.81210037 3.52072017 1.52072017 5 3 C9.26080589 3.44979055 9.26080589 3.44979055 12.875 1.5 C13.24625 1.005 13.6175 0.51 14 0 C16.86476895 0.63661532 18.56043256 1.36795116 20.2578125 3.80859375 C21.33945344 5.86976268 22.32048955 7.77173522 23 10 C22.67 10.99 22.34 11.98 22 13 C21.01 13.33 20.02 13.66 19 14 C18.67 19.94 18.34 25.88 18 32 C11.4 32 4.8 32 -2 32 C-2.33 26.06 -2.66 20.12 -3 14 C-4.32 13.34 -5.64 12.68 -7 12 C-6.4685789 7.48292068 -4.70984317 4.61312423 -2 1 C-1.34 0.67 -0.68 0.34 0 0 Z " fill="#FCFBFA" transform="translate(21,12)"/>
<path d="M0 0 C0.33 0 0.66 0 1 0 C1 6.27 1 12.54 1 19 C-5.27 19 -11.54 19 -18 19 C-14 16 -14 16 -11.125 14.25 C-5.97393228 10.54123124 -1.87383821 6.18366609 0 0 Z " fill="#3F6D4C" transform="translate(55,37)"/>
<path d="M0 0 C3.7876475 3.97241079 5.58687688 8.61731678 7.5625 13.6875 C3.8125 16.6875 3.8125 16.6875 1.5625 16.6875 C1.5625 19.9875 1.5625 23.2875 1.5625 26.6875 C1.2325 26.6875 0.9025 26.6875 0.5625 26.6875 C0.5625 21.0775 0.5625 15.4675 0.5625 9.6875 C0.8925 9.6875 1.2225 9.6875 1.5625 9.6875 C1.8925 11.3375 2.2225 12.9875 2.5625 14.6875 C3.2225 14.3575 3.8825 14.0275 4.5625 13.6875 C3.02138037 8.47720282 3.02138037 8.47720282 0.5625 3.6875 C-1.32600355 2.61107291 -1.32600355 2.61107291 -3.4375 2.6875 C-3.89125 3.161875 -4.345 3.63625 -4.8125 4.125 C-6.4375 5.6875 -6.4375 5.6875 -9.4375 6.0625 C-12.82783837 5.6387077 -13.19951831 5.02720813 -15.4375 2.6875 C-18.09444438 2.85355902 -19.20133679 3.47663999 -21.1875 5.25 C-21.6 5.724375 -22.0125 6.19875 -22.4375 6.6875 C-22.21655593 3.59428308 -21.37830219 2.62990213 -19.125 0.4375 C-13.44225108 -3.02994002 -5.96990102 -2.27941675 0 0 Z " fill="#464645" transform="translate(38.4375,10.3125)"/>
<path d="M0 0 C2.3125 1.5 2.3125 1.5 4 3 C2.35 3.33 0.7 3.66 -1 4 C0.32 4.66 1.64 5.32 3 6 C0.6875 6.6875 0.6875 6.6875 -2 7 C-3.02019573 6.0206121 -4.02149805 5.02104551 -5 4 C-7.65694438 4.16605902 -8.76383679 4.78913999 -10.75 6.5625 C-11.1625 7.036875 -11.575 7.51125 -12 8 C-11.875 6.25 -11.875 6.25 -11 4 C-7.40222476 1.05636572 -4.71437215 -0.86843698 0 0 Z " fill="#818281" transform="translate(28,9)"/>
<path d="M0 0 C-3.08290155 4.22797927 -3.08290155 4.22797927 -5 6 C-7.8125 6.375 -7.8125 6.375 -10 6 C-10.33 4.68 -10.66 3.36 -11 2 C-9.68 2 -8.36 2 -7 2 C-7.99 1.34 -8.98 0.68 -10 0 C-6.42355152 -1.2380014 -3.66305234 -0.74926071 0 0 Z " fill="#525352" transform="translate(37,10)"/>
</svg>
