<?xml version="1.0" encoding="UTF-8"?>
<svg version="1.1" xmlns="http://www.w3.org/2000/svg" width="56" height="56">
<path d="M0 0 C18.48 0 36.96 0 56 0 C56 18.48 56 36.96 56 56 C37.52 56 19.04 56 0 56 C0 37.52 0 19.04 0 0 Z " fill="#FBFBFA" transform="translate(0,0)"/>
<path d="M0 0 C18.48 0 36.96 0 56 0 C56 18.48 56 36.96 56 56 C37.52 56 19.04 56 0 56 C0 37.52 0 19.04 0 0 Z M7.54296875 12.01953125 C3.40293065 17.33345357 1.30363434 22.92696195 1.69140625 29.68359375 C2.89912926 38.74916013 5.99127347 44.96265837 13 51 C19.37668308 55.39730376 26.44036457 56.22690712 34 55 C42.04578214 52.32782508 47.91201456 48.50480909 52 41 C55.26415441 34.47169117 55.14413358 25.57546169 52.875 18.6875 C49.74653224 11.65575704 44.83344834 7.29017883 38 4 C26.24366482 0.24100012 15.73543475 3.22715928 7.54296875 12.01953125 Z " fill="#406B4C" transform="translate(0,0)"/>
<path d="M0 0 C3.473489 -0.31577173 5.37563521 -0.4218681 8.3125 1.5625 C10.46797134 4.67595861 10.7128051 7.26646636 11 11 C14.28812406 9.30896477 16.13168002 7.83869198 18.5 4.9375 C20.98735846 2.01485381 22.38172788 1.03379203 26 0 C26.33 0.99 26.66 1.98 27 3 C25.5625 5.1875 25.5625 5.1875 24 7 C23.34 6.67 22.68 6.34 22 6 C22.66 5.01 23.32 4.02 24 3 C23.34 3 22.68 3 22 3 C21.7525 3.5775 21.505 4.155 21.25 4.75 C19.83316683 7.3002997 18.12372463 9.01785701 16 11 C16.33 11.66 16.66 12.32 17 13 C16.67 13.99 16.34 14.98 16 16 C16.80566406 16.73605469 17.61132812 17.47210937 18.44140625 18.23046875 C19.48254417 19.21532895 20.52286684 20.20105148 21.5625 21.1875 C22.36204102 21.91163086 22.36204102 21.91163086 23.17773438 22.65039062 C24.69140625 24.10546875 24.69140625 24.10546875 27 27 C26.83984375 29.86328125 26.83984375 29.86328125 26 32 C21.58489226 31.51286902 19.69553355 30.14946803 16.6875 26.9375 C15.99011719 26.20402344 15.29273437 25.47054687 14.57421875 24.71484375 C14.05472656 24.14894531 13.53523438 23.58304688 13 23 C9.76138697 24.44424635 7.38030837 26.25772247 4.75 28.625 C4.04359375 29.25664063 3.3371875 29.88828125 2.609375 30.5390625 C2.07828125 31.02117188 1.5471875 31.50328125 1 32 C-2.78496138 30.48601545 -3.0072198 29.9855604 -5 26 C-1.7 22.7 1.6 19.4 5 16 C3.906875 15.7525 2.81375 15.505 1.6875 15.25 C-2 14 -2 14 -3.9375 12.1875 C-5.18689961 9.61520669 -5.23546771 7.82561258 -5 5 C-2.69 5.66 -0.38 6.32 2 7 C1.34 4.69 0.68 2.38 0 0 Z " fill="#666766" transform="translate(17,13)"/>
<path d="M0 0 C3.473489 -0.31577173 5.37563521 -0.4218681 8.3125 1.5625 C10.46797134 4.67595861 10.7128051 7.26646636 11 11 C14.28812406 9.30896477 16.13168002 7.83869198 18.5 4.9375 C20.98735846 2.01485381 22.38172788 1.03379203 26 0 C26.33 0.99 26.66 1.98 27 3 C25.5625 5.1875 25.5625 5.1875 24 7 C23.34 6.67 22.68 6.34 22 6 C22.66 5.01 23.32 4.02 24 3 C23.34 3 22.68 3 22 3 C21.7525 3.5775 21.505 4.155 21.25 4.75 C19.83316683 7.3002997 18.12372463 9.01785701 16 11 C16.33 11.66 16.66 12.32 17 13 C16.67 13.99 16.34 14.98 16 16 C16.33 16.66 16.66 17.32 17 18 C16.34 18 15.68 18 15 18 C14.67 18.66 14.34 19.32 14 20 C13.34 19.67 12.68 19.34 12 19 C12.33 18.01 12.66 17.02 13 16 C12.01 15.34 11.02 14.68 10 14 C9.01 14.495 9.01 14.495 8 15 C7.67 14.01 7.34 13.02 7 12 C7.66 12 8.32 12 9 12 C8.34 9.03 7.68 6.06 7 3 C6.01 3 5.02 3 4 3 C3.67 4.65 3.34 6.3 3 8 C1.35 8 -0.3 8 -2 8 C-0.68 7.67 0.64 7.34 2 7 C1.34 4.69 0.68 2.38 0 0 Z " fill="#454645" transform="translate(17,13)"/>
<path d="M0 0 C2.375 0.3125 2.375 0.3125 5 1 C7.45811625 4.68717438 7.31118164 6.64345704 7 11 C6.01 12.485 6.01 12.485 5 14 C4.67 13.67 4.34 13.34 4 13 C2.865625 12.855625 1.73125 12.71125 0.5625 12.5625 C-3 12 -3 12 -5 10 C-5 9.01 -5 8.02 -5 7 C-3.02 7 -1.04 7 1 7 C1.15149298 3.37114676 1.15149298 3.37114676 0 0 Z " fill="#F2F3F2" transform="translate(19,14)"/>
<path d="M0 0 C0.99 1.0828125 0.99 1.0828125 2 2.1875 C7.52287131 7.72615094 13.70895417 11.10877811 21.5625 11.375 C27.34039036 11.36797948 31.12193854 9.93204641 36.0390625 6.99609375 C36.68617187 6.66738281 37.33328125 6.33867188 38 6 C38.66 6.33 39.32 6.66 40 7 C36.9725003 10.24374968 34.43460264 12.65851283 29.92871094 13.29052734 C27.53524386 13.34005837 25.14401722 13.37131122 22.75 13.375 C21.51830078 13.41173828 21.51830078 13.41173828 20.26171875 13.44921875 C12.76434644 13.48486394 7.72372557 11.26977131 2 6.5 C0 4 0 4 0 0 Z M40 5 C42 6 42 6 42 6 Z " fill="#4A624C" transform="translate(6,43)"/>
<path d="M0 0 C3.81983517 0.39515536 5.55182093 2.15695334 8 5 C11 9.5 11 9.5 11 12 C6.58489226 11.51286902 4.69553355 10.14946803 1.6875 6.9375 C0.99011719 6.20402344 0.29273438 5.47054687 -0.42578125 4.71484375 C-0.94527344 4.14894531 -1.46476562 3.58304688 -2 3 C-1 1 -1 1 0 0 Z " fill="#7E7E7D" transform="translate(32,31)"/>
<path d="M0 0 C2.1875 0.3125 2.1875 0.3125 4 1 C3.49517742 5.29475923 2.23082796 7.33731829 -0.8125 10.375 C-1.49957031 11.08398438 -2.18664062 11.79296875 -2.89453125 12.5234375 C-5 14 -5 14 -7.19921875 13.9140625 C-9 13 -9 13 -10 10 C-9.67 9.34 -9.34 8.68 -9 8 C-7 9 -7 9 -5 11 C-3.35 9.35 -1.7 7.7 0 6 C-0.99 5.01 -1.98 4.02 -3 3 C-1.75 1.4375 -1.75 1.4375 0 0 Z " fill="#E2E2E1" transform="translate(24,29)"/>
<path d="M0 0 C1.98 0.66 3.96 1.32 6 2 C4.02 4.31 2.04 6.62 0 9 C-3 8 -3 8 -3.9375 6.1875 C-4 4 -4 4 -2.0625 1.75 C-1.381875 1.1725 -0.70125 0.595 0 0 Z " fill="#7D7D7C" transform="translate(19,32)"/>
<path d="M0 0 C0.66 0 1.32 0 2 0 C2.13501894 2.43934225 2.23403897 4.87124104 2.3125 7.3125 C2.35439453 8.00279297 2.39628906 8.69308594 2.43945312 9.40429688 C2.48828125 11.42578125 2.48828125 11.42578125 2 15 C-0.51953125 16.98046875 -0.51953125 16.98046875 -3 18 C-2.690625 16.88625 -2.38125 15.7725 -2.0625 14.625 C-0.84199336 9.79490988 -0.38600363 4.95709931 0 0 Z " fill="#526B55" transform="translate(54,25)"/>
<path d="M0 0 C0.99 0.33 1.98 0.66 3 1 C2.979375 1.804375 2.95875 2.60875 2.9375 3.4375 C2.70366379 5.93354885 2.70366379 5.93354885 4 7 C5.134375 7.12375 6.26875 7.2475 7.4375 7.375 C8.613125 7.58125 9.78875 7.7875 11 8 C11.99 9.485 11.99 9.485 13 11 C12.01 11.99 11.02 12.98 10 14 C9.34 13.67 8.68 13.34 8 13 C8.66 12.34 9.32 11.68 10 11 C8.906875 10.7525 7.81375 10.505 6.6875 10.25 C3 9 3 9 1.0625 7.1875 C-0.18689961 4.61520669 -0.23546771 2.82561258 0 0 Z " fill="#60605F" transform="translate(12,18)"/>
<path d="M0 0 C2 1 2 1 2 1 Z M-2 1 C-1.34 1.33 -0.68 1.66 0 2 C-3.56582813 5.82053014 -5.91177728 7.87389959 -11.234375 8.1953125 C-12.39453125 8.17210937 -13.5546875 8.14890625 -14.75 8.125 C-15.92046875 8.10695313 -17.0909375 8.08890625 -18.296875 8.0703125 C-19.63492187 8.03550781 -19.63492187 8.03550781 -21 8 C-21 7.67 -21 7.34 -21 7 C-19.82244141 6.85304688 -19.82244141 6.85304688 -18.62109375 6.703125 C-12.09486732 5.77423878 -7.55073031 4.49937345 -2 1 Z " fill="#506752" transform="translate(46,48)"/>
<path d="M0 0 C0.66 0.66 1.32 1.32 2 2 C1.38511719 2.53109375 0.77023437 3.0621875 0.13671875 3.609375 C-0.67152344 4.31578125 -1.47976563 5.0221875 -2.3125 5.75 C-3.51326172 6.79414063 -3.51326172 6.79414063 -4.73828125 7.859375 C-6.77965601 9.79145335 -8.39892851 11.69943126 -10 14 C-10.33 13.01 -10.66 12.02 -11 11 C-9.54540569 9.35086118 -8.08620743 7.70578218 -6.625 6.0625 C-5.81289062 5.14597656 -5.00078125 4.22945312 -4.1640625 3.28515625 C-2 1 -2 1 0 0 Z " fill="#516953" transform="translate(14,4)"/>
<path d="M0 0 C0.44730469 0.40992188 0.89460938 0.81984375 1.35546875 1.2421875 C4.81747949 4.32773226 7.63899151 6.33255558 12 8 C12.33 8.99 12.66 9.98 13 11 C8.64645044 10.50441205 6.69933969 9.19912401 3.6875 6.0625 C2.99011719 5.35222656 2.29273438 4.64195313 1.57421875 3.91015625 C0 2 0 2 0 0 Z " fill="#E1E1E0" transform="translate(30,32)"/>
<path d="M0 0 C0 1.32 0 2.64 0 4 C-4.29 3.67 -8.58 3.34 -13 3 C-13 2.67 -13 2.34 -13 2 C-8.49646738 0.24252386 -4.82360189 -0.19294408 0 0 Z " fill="#556C56" transform="translate(37,0)"/>
<path d="M0 0 C1.32 0.33 2.64 0.66 4 1 C3.67 2.65 3.34 4.3 3 6 C1.02 5.34 -0.96 4.68 -3 4 C-2.01 2.68 -1.02 1.36 0 0 Z " fill="#F9F9F8" transform="translate(24,29)"/>
<path d="M0 0 C0 3.58912412 -0.66436554 4.10857029 -3 6.6875 C-3.556875 7.31011719 -4.11375 7.93273437 -4.6875 8.57421875 C-5.120625 9.04472656 -5.55375 9.51523437 -6 10 C-6.99 9.67 -7.98 9.34 -9 9 C-7.87895467 7.68412059 -6.75303035 6.37239647 -5.625 5.0625 C-4.99851562 4.33160156 -4.37203125 3.60070312 -3.7265625 2.84765625 C-2 1 -2 1 0 0 Z " fill="#A5A5A4" transform="translate(41,15)"/>
<path d="M0 0 C5.01113235 1.4317521 6.94469549 3.98445693 10 8 C5.60249328 7.49259538 3.13051078 4.91706686 0 2 C0 1.34 0 0.68 0 0 Z " fill="#47614B" transform="translate(41,4)"/>
<path d="M0 0 C2.41103827 0.96441531 3.77404758 1.68797047 5.3125 3.8125 C6.17031512 6.54191176 5.75644808 8.27678692 5 11 C4.731875 10.443125 4.46375 9.88625 4.1875 9.3125 C2.99300335 6.91066602 2.99300335 6.91066602 1.375 4.375 C0 2 0 2 0 0 Z " fill="#526A54" transform="translate(49,12)"/>
<path d="M0 0 C3.63 0 7.26 0 11 0 C10.67 0.66 10.34 1.32 10 2 C7.71484375 2.4140625 7.71484375 2.4140625 4.9375 2.625 C4.01839844 2.69976562 3.09929688 2.77453125 2.15234375 2.8515625 C1.44207031 2.90054687 0.73179688 2.94953125 0 3 C0 2.01 0 1.02 0 0 Z " fill="#3F5A44" transform="translate(19,0)"/>
<path d="M0 0 C0.99 0.33 1.98 0.66 3 1 C2.34 2.65 1.68 4.3 1 6 C0.01 6 -0.98 6 -2 6 C-1.34 5.01 -0.68 4.02 0 3 C-0.66 3 -1.32 3 -2 3 C-2.33 3.66 -2.66 4.32 -3 5 C-3 4.01 -3 3.02 -3 2 C-2.01 1.34 -1.02 0.68 0 0 Z " fill="#5A5B5A" transform="translate(41,13)"/>
</svg>
