<?xml version="1.0" encoding="UTF-8"?>
<svg version="1.1" xmlns="http://www.w3.org/2000/svg" width="56" height="56">
<path d="M0 0 C18.48 0 36.96 0 56 0 C56 18.48 56 36.96 56 56 C37.52 56 19.04 56 0 56 C0 37.52 0 19.04 0 0 Z " fill="#F7F7F5" transform="translate(0,0)"/>
<path d="M0 0 C1.25425781 -0.00902344 2.50851563 -0.01804687 3.80078125 -0.02734375 C5.74017578 0.01326172 5.74017578 0.01326172 7.71875 0.0546875 C9.01167969 0.02761719 10.30460937 0.00054687 11.63671875 -0.02734375 C12.89097656 -0.01832031 14.14523438 -0.00929688 15.4375 0 C16.57123047 0.00789551 17.70496094 0.01579102 18.87304688 0.02392578 C22.21875 0.9296875 22.21875 0.9296875 29.21875 7.9296875 C29.21875 14.5296875 29.21875 21.1296875 29.21875 27.9296875 C15.02875 27.9296875 0.83875 27.9296875 -13.78125 27.9296875 C-13.78125 21.3296875 -13.78125 14.7296875 -13.78125 7.9296875 C-5.89259965 0.04103715 -5.89259965 0.04103715 0 0 Z " fill="#484847" transform="translate(21.78125,14.0703125)"/>
<path d="M0 0 C18.48 0 36.96 0 56 0 C56 18.48 56 36.96 56 56 C37.52 56 19.04 56 0 56 C0 37.52 0 19.04 0 0 Z M8 12 C2.84003252 19.22395447 2.21498612 26.32123543 3 35 C5.38564246 43.66091938 10.6755757 48.39977028 18.1328125 52.984375 C24.05016863 56.20302059 31.20907456 55.74188817 37.5625 54 C44.72469895 51.26972912 50.39932963 46.18211616 53.5625 39.1875 C56.05460421 31.65349977 56.20868949 24.86877126 52.8125 17.625 C50.67438964 13.81384848 48.35962328 10.84275816 45 8 C44.360625 7.443125 43.72125 6.88625 43.0625 6.3125 C31.59516134 -0.98489733 16.8083463 2.38683018 8 12 Z " fill="#426B4D" transform="translate(0,0)"/>
<path d="M0 0 C14.19 0 28.38 0 43 0 C40.05636606 5.88726788 35.67932197 8.90842438 29.625 11.375 C20.38925134 12.96737046 13.97699102 12.2048452 6 7 C3.47232606 4.95930912 1.47029949 2.94059899 0 0 Z " fill="#FDFDFB" transform="translate(7,43)"/>
<path d="M0 0 C4.95 0 9.9 0 15 0 C15 5.61 15 11.22 15 17 C8.42974291 17.42664007 8.42974291 17.42664007 5 17 C1.69392679 13.69392679 0.77078491 8.56123306 0 4 C0 2.68 0 1.36 0 0 Z " fill="#FBFBFA" transform="translate(34,24)"/>
<path d="M0 0 C3.96 0 7.92 0 12 0 C12 5.61 12 11.22 12 17 C8.04 17 4.08 17 0 17 C0 11.39 0 5.78 0 0 Z " fill="#FDFDFC" transform="translate(10,24)"/>
<path d="M0 0 C4.24964127 -0.14513802 8.49864635 -0.23402037 12.75 -0.3125 C14.55984375 -0.3753418 14.55984375 -0.3753418 16.40625 -0.43945312 C17.56640625 -0.45556641 18.7265625 -0.47167969 19.921875 -0.48828125 C20.99018555 -0.51446533 22.05849609 -0.54064941 23.15917969 -0.56762695 C26 0 26 0 28.37988281 2.53051758 C28.91452148 3.34544678 29.44916016 4.16037598 30 5 C25.75035873 5.14513802 21.50135365 5.23402037 17.25 5.3125 C16.0434375 5.35439453 14.836875 5.39628906 13.59375 5.43945312 C12.43359375 5.45556641 11.2734375 5.47167969 10.078125 5.48828125 C9.00981445 5.51446533 7.94150391 5.54064941 6.84082031 5.56762695 C4 5 4 5 1.62011719 2.46948242 C0.81815918 1.24708862 0.81815918 1.24708862 0 0 Z " fill="#FBFBFA" transform="translate(18,17)"/>
<path d="M0 0 C2.64 0 5.28 0 8 0 C7.7438709 2.08519216 7.46951265 4.1681505 7.1875 6.25 C7.03667969 7.41015625 6.88585937 8.5703125 6.73046875 9.765625 C5.99812919 13.00828359 5.36291389 14.68857818 3 17 C2.01 17 1.02 17 0 17 C0 11.39 0 5.78 0 0 Z " fill="#F9F9F8" transform="translate(24,24)"/>
<path d="M0 0 C4 6.875 4 6.875 4 8 C0.04 8 -3.92 8 -8 8 C-8 13.61 -8 19.22 -8 25 C-8.33 25 -8.66 25 -9 25 C-9.14584064 21.77131254 -9.23424106 18.54347635 -9.3125 15.3125 C-9.35439453 14.40048828 -9.39628906 13.48847656 -9.43945312 12.54882812 C-9.52366651 7.91709168 -9.51094354 5.70793382 -6.73046875 1.85546875 C-4 0 -4 0 0 0 Z " fill="#5D5E5D" transform="translate(18,16)"/>
<path d="M0 0 C1.32 0.33 2.64 0.66 4 1 C5.046875 3.1796875 5.046875 3.1796875 5.75 5.875 C6.11351562 7.20144531 6.11351562 7.20144531 6.484375 8.5546875 C7 11 7 11 7 14 C3.7 14 0.4 14 -3 14 C-2.01 9.38 -1.02 4.76 0 0 Z " fill="#575756" transform="translate(31,27)"/>
<path d="M0 0 C0.33 0.99 0.66 1.98 1 3 C0.04504326 4.69287785 -0.9590934 6.35857037 -2 8 C-3.10246599 11.32190411 -3.13378633 14.45372184 -3.125 17.9375 C-3.12757812 18.95714844 -3.13015625 19.97679688 -3.1328125 21.02734375 C-3.00911936 23.79588725 -2.62526738 26.30539535 -2 29 C-2.99 28.67 -3.98 28.34 -5 28 C-7.3058881 22.21505265 -6.90998362 14.07065564 -5.17578125 8.21875 C-3.75744154 4.97080479 -2.51737895 2.51737895 0 0 Z " fill="#516853" transform="translate(7,11)"/>
<path d="M0 0 C7.59 0 15.18 0 23 0 C22.01 0.33 21.02 0.66 20 1 C20 1.66 20 2.32 20 3 C17.04112541 3.08069658 14.0844341 3.14034665 11.125 3.1875 C10.28324219 3.21263672 9.44148438 3.23777344 8.57421875 3.26367188 C7.76855469 3.27333984 6.96289062 3.28300781 6.1328125 3.29296875 C5.38918457 3.3086792 4.64555664 3.32438965 3.87939453 3.34057617 C2.94909424 3.17199097 2.94909424 3.17199097 2 3 C1.34 2.01 0.68 1.02 0 0 Z " fill="#48614C" transform="translate(18,0)"/>
<path d="M0 0 C2 1.375 2 1.375 4 3 C4 3.66 4 4.32 4 5 C6.88019276 6.46652017 9.79308515 7.82047874 12.75 9.125 C13.94882812 9.65480469 13.94882812 9.65480469 15.171875 10.1953125 C15.77515625 10.46085937 16.3784375 10.72640625 17 11 C16.67 11.66 16.34 12.32 16 13 C10.58299671 12.66143729 6.93940967 9.4377312 3 6 C0.5 3.125 0.5 3.125 -1 1 C-0.67 0.67 -0.34 0.34 0 0 Z " fill="#4F6751" transform="translate(6,43)"/>
<path d="M0 0 C0.66 0 1.32 0 2 0 C2.99 2.97 3.98 5.94 5 9 C2.36 9 -0.28 9 -3 9 C-2.01 6.03 -1.02 3.06 0 0 Z " fill="#EDEDEC" transform="translate(32,32)"/>
<path d="M0 0 C1.65 1.65 3.3 3.3 5 5 C2.03 5 -0.94 5 -4 5 C-2.68 3.35 -1.36 1.7 0 0 Z " fill="#F9F8F7" transform="translate(15,17)"/>
</svg>
