<?xml version="1.0" encoding="UTF-8"?>
<svg version="1.1" xmlns="http://www.w3.org/2000/svg" width="56" height="56">
<path d="M0 0 C18.48 0 36.96 0 56 0 C56 18.48 56 36.96 56 56 C37.52 56 19.04 56 0 56 C0 37.52 0 19.04 0 0 Z " fill="#F8F8F6" transform="translate(0,0)"/>
<path d="M0 0 C1.78083984 -0.00229614 1.78083984 -0.00229614 3.59765625 -0.00463867 C5.55832031 -0.01140625 5.55832031 -0.01140625 7.55859375 -0.01831055 C8.56937988 0.00670532 8.56937988 0.00670532 9.60058594 0.03222656 C11.65728115 0.07732953 13.70493994 0.05296597 15.76171875 0.02075195 C25.88586711 0.11560344 25.88586711 0.11560344 32.66015625 6.88989258 C32.66015625 13.81989258 32.66015625 20.74989258 32.66015625 27.88989258 C18.47015625 27.88989258 4.28015625 27.88989258 -10.33984375 27.88989258 C-9.06613146 2.41564687 -9.06613146 2.41564687 0 0 Z " fill="#1A1A19" transform="translate(17.33984375,14.110107421875)"/>
<path d="M0 0 C18.48 0 36.96 0 56 0 C56 18.48 56 36.96 56 56 C37.52 56 19.04 56 0 56 C0 37.52 0 19.04 0 0 Z M8 12 C4.94149349 15.99958544 2.39392347 19.87899486 2 25 C1.896875 26.03125 1.79375 27.0625 1.6875 28.125 C2.25937844 35.2162927 4.66114595 43.08263442 10 48 C17.70653934 53.16731715 23.62177163 55.96696423 33 55 C41.58660493 52.605181 47.39116666 48.78504719 51.9296875 41.078125 C55.3875742 34.36427199 55.9441386 27.78392162 53.9375 20.5625 C51.2952622 13.25895588 45.77398973 7.66924444 39 4 C26.87034782 -0.41078261 16.53739347 2.64420716 8 12 Z " fill="#516B52" transform="translate(0,0)"/>
<path d="M0 0 C8.58 0 17.16 0 26 0 C26 5.94 26 11.88 26 18 C17.42 18 8.84 18 0 18 C0 12.06 0 6.12 0 0 Z " fill="#E3E3E2" transform="translate(23,23)"/>
<path d="M0 0 C13.2 0 26.4 0 40 0 C40 11.22 40 22.44 40 34 C39.67 34 39.34 34 39 34 C38.91363281 33.0821875 38.82726563 32.164375 38.73828125 31.21875 C37.54342762 20.78296415 35.27916469 13.89663791 26.953125 7.25390625 C21.47492719 3.73690326 15.46537982 2.30728073 9 3 C5.93746344 3.84784989 2.97491633 4.88728905 0 6 C-0.99 6.33 -1.98 6.66 -3 7 C-3 6.01 -3 5.02 -3 4 C-1.68 3.34 -0.36 2.68 1 2 C0.67 1.34 0.34 0.68 0 0 Z " fill="#4C654D" transform="translate(16,0)"/>
<path d="M0 0 C4.29 0 8.58 0 13 0 C13 5.94 13 11.88 13 18 C8.71 18 4.42 18 0 18 C0 12.06 0 6.12 0 0 Z " fill="#EBEBEA" transform="translate(9,23)"/>
<path d="M0 0 C2.578125 -0.04125 5.15625 -0.0825 7.8125 -0.125 C8.62050049 -0.14320801 9.42850098 -0.16141602 10.26098633 -0.18017578 C14.06519761 -0.20976568 15.76428169 -0.15714554 19 2 C18.34773438 2.32871094 17.69546875 2.65742187 17.0234375 2.99609375 C9.07336425 7.32290353 4.87956524 12.13021732 1.625 20.5625 C1.41875 21.366875 1.2125 22.17125 1 23 C0.67 23 0.34 23 0 23 C0 15.41 0 7.82 0 0 Z " fill="#91C37C" transform="translate(0,0)"/>
<path d="M0 0 C1.54242862 2.31364293 2.7031573 4.38604485 3.875 6.875 C7.55870821 14.20223052 11.76778919 17.36844115 19 21 C19 21.33 19 21.66 19 22 C12.73 22 6.46 22 0 22 C0 14.74 0 7.48 0 0 Z " fill="#90C37C" transform="translate(0,34)"/>
<path d="M0 0 C2.76375 0.020625 5.5275 0.04125 8.375 0.0625 C8.375 6.3325 8.375 12.6025 8.375 19.0625 C5.375 15.0625 5.375 15.0625 4.26953125 13.31640625 C1.10668811 8.37232293 -2.56133478 5.89094898 -7.625 3.0625 C-8.615 2.4025 -9.605 1.7425 -10.625 1.0625 C-7.31928083 -0.59035959 -3.629622 -0.0380118 0 0 Z " fill="#90C37C" transform="translate(47.625,-0.0625)"/>
<path d="M0 0 C0.33 0 0.66 0 1 0 C1 6.27 1 12.54 1 19 C-5.27 19 -11.54 19 -18 19 C-16.32949879 17.88633253 -14.64472804 16.79109477 -12.9140625 15.7734375 C-6.29403368 11.72911955 -2.46461148 7.39383444 0 0 Z " fill="#90C27B" transform="translate(55,37)"/>
<path d="M0 0 C4.24964127 -0.14513802 8.49864635 -0.23402037 12.75 -0.3125 C14.55984375 -0.3753418 14.55984375 -0.3753418 16.40625 -0.43945312 C17.56640625 -0.45556641 18.7265625 -0.47167969 19.921875 -0.48828125 C20.99018555 -0.51446533 22.05849609 -0.54064941 23.15917969 -0.56762695 C26 0 26 0 28.37988281 2.53051758 C28.91452148 3.34544678 29.44916016 4.16037598 30 5 C25.75035873 5.14513802 21.50135365 5.23402037 17.25 5.3125 C16.0434375 5.35439453 14.836875 5.39628906 13.59375 5.43945312 C12.43359375 5.45556641 11.2734375 5.47167969 10.078125 5.48828125 C9.00981445 5.51446533 7.94150391 5.54064941 6.84082031 5.56762695 C4 5 4 5 1.62011719 2.46948242 C0.81815918 1.24708862 0.81815918 1.24708862 0 0 Z " fill="#FBFBFA" transform="translate(18,17)"/>
<path d="M0 0 C2.08274724 -0.01405461 4.15943234 -0.08132176 6.2409668 -0.15087891 C15.9765085 -0.30681673 15.9765085 -0.30681673 19.57250977 2.21337891 C21.06310479 3.94956096 22.23881471 5.58104641 23.28588867 7.61083984 C20.8178882 6.45910629 19.23805302 5.56300419 17.28588867 3.61083984 C14.66432447 3.33256732 14.66432447 3.33256732 11.62182617 3.41552734 C9.93959961 3.42519531 9.93959961 3.42519531 8.22338867 3.43505859 C7.04776367 3.45181641 5.87213867 3.46857422 4.66088867 3.48583984 C3.4775293 3.49486328 2.29416992 3.50388672 1.07495117 3.51318359 C-1.85493656 3.53681172 -4.78442473 3.5697547 -7.71411133 3.61083984 C-6.72411133 4.93083984 -5.73411133 6.25083984 -4.71411133 7.61083984 C-8.67411133 7.61083984 -12.63411133 7.61083984 -16.71411133 7.61083984 C-14.43969416 -1.48682885 -8.26937067 0.02136036 0 0 Z " fill="#4F4F4F" transform="translate(26.714111328125,14.38916015625)"/>
<path d="M0 0 C2.31 0 4.62 0 7 0 C7 5.28 7 10.56 7 16 C4.69 16 2.38 16 0 16 C0 10.72 0 5.44 0 0 Z " fill="#FDFDFC" transform="translate(23,24)"/>
<path d="M0 0 C2.31 0 4.62 0 7 0 C9 2 9 2 9.25 5 C9 8 9 8 7 10 C5.68 10 4.36 10 3 10 C3 11.98 3 13.96 3 16 C2.01 16 1.02 16 0 16 C0 10.72 0 5.44 0 0 Z " fill="#363535" transform="translate(30,24)"/>
<path d="M0 0 C-1.16228749 2.74722498 -2.40296327 4.44429284 -4.4375 6.6875 C-7.58901595 10.31454055 -8.75076984 14.42964575 -10 19 C-12 16 -12 16 -11.8046875 13.60546875 C-10.93226902 10.7806963 -9.78900858 8.75056232 -8.125 6.3125 C-7.61195313 5.54550781 -7.09890625 4.77851563 -6.5703125 3.98828125 C-4.68325472 1.5989469 -3.17410655 0 0 0 Z " fill="#506A50" transform="translate(13,6)"/>
<path d="M0 0 C-7.68220356 5.12146904 -15.11612872 4.3881303 -24 4 C-24.33 3.34 -24.66 2.68 -25 2 C-24.154375 2.03480469 -23.30875 2.06960937 -22.4375 2.10546875 C-15.50231787 2.27096741 -5.96897598 -1.97224371 0 0 Z " fill="#4B634D" transform="translate(45,52)"/>
<path d="M0 0 C0.66 0 1.32 0 2 0 C4.79441201 4.70869426 5.39036978 8.50675354 5.1875 13.875 C5.17396484 14.56335937 5.16042969 15.25171875 5.14648438 15.9609375 C5.1114837 17.64097001 5.05768954 19.3205935 5 21 C4.67 21 4.34 21 4 21 C3.87882812 20.03578125 3.75765625 19.0715625 3.6328125 18.078125 C3.46523438 16.81484375 3.29765625 15.5515625 3.125 14.25 C2.96257813 12.99703125 2.80015625 11.7440625 2.6328125 10.453125 C2.08532603 7.46560624 1.40327911 5.61788204 0 3 C0 2.01 0 1.02 0 0 Z " fill="#4B654C" transform="translate(51,13)"/>
<path d="M0 0 C3.16115776 1.36983503 3.9927092 1.9890638 6 5 C3.03 5 0.06 5 -3 5 C-1 1 -1 1 0 0 Z " fill="#F0F0EF" transform="translate(14,17)"/>
<path d="M0 0 C3.40320742 1.01176437 4.75725331 1.64843582 6.8125 4.625 C7.204375 5.40875 7.59625 6.1925 8 7 C5 7 5 7 2.3125 4.625 C0 2 0 2 0 0 Z " fill="#5A7259" transform="translate(44,6)"/>
<path d="M0 0 C-1.39332574 3.36720387 -2.9789286 4.9859524 -6 7 C-6 5.68 -6 4.36 -6 3 C-2.78571429 0 -2.78571429 0 0 0 Z " fill="#5C745B" transform="translate(13,6)"/>
</svg>
