<?xml version="1.0" encoding="UTF-8"?>
<svg version="1.1" xmlns="http://www.w3.org/2000/svg" width="56" height="56">
<path d="M0 0 C18.48 0 36.96 0 56 0 C56 18.48 56 36.96 56 56 C37.52 56 19.04 56 0 56 C0 37.52 0 19.04 0 0 Z " fill="#F7F7F6" transform="translate(0,0)"/>
<path d="M0 0 C18.48 0 36.96 0 56 0 C56 18.48 56 36.96 56 56 C37.52 56 19.04 56 0 56 C0 37.52 0 19.04 0 0 Z M9.09375 12.26171875 C4.32471111 19.06659735 3.32910078 24.76284841 4 33 C5.28017936 39.0645785 8.3639389 43.91362847 13 48 C19.47563933 52.11745853 26.33356436 54.16984129 34 53 C41.98896385 50.22078408 47.92913611 46.51894635 52 39 C54.87587398 32.85608741 54.98137801 26.18960764 52.75 19.8125 C49.65039032 12.61340656 45.92409795 8.56868293 39 5 C28.13004926 1.37668309 16.57022406 3.39106612 9.09375 12.26171875 Z " fill="#43664C" transform="translate(0,0)"/>
<path d="M0 0 C0.33 0.33 0.66 0.66 1 1 C0.71269945 3.33944736 0.38063221 5.6739143 0 8 C0.78375 7.95875 1.5675 7.9175 2.375 7.875 C5 8 5 8 7 10 C7.19852102 12.70922801 7.27839477 15.29303179 7.25 18 C7.26160156 19.10601563 7.26160156 19.10601563 7.2734375 20.234375 C7.2533196 25.7466804 7.2533196 25.7466804 5 28 C2.375 28.125 2.375 28.125 0 28 C-0.144375 28.804375 -0.28875 29.60875 -0.4375 30.4375 C-1 33 -1 33 -2 34 C-4.99018161 34.12667764 -7.94694108 34.18520838 -10.9375 34.1875 C-11.77474609 34.19974609 -12.61199219 34.21199219 -13.47460938 34.22460938 C-14.27576172 34.22654297 -15.07691406 34.22847656 -15.90234375 34.23046875 C-16.63960693 34.23457764 -17.37687012 34.23868652 -18.13647461 34.24291992 C-20 34 -20 34 -22 32 C-22.14497985 29.41935871 -22.18677545 26.95056116 -22.125 24.375 C-22.11597656 23.66859375 -22.10695313 22.9621875 -22.09765625 22.234375 C-22.07407603 20.48943902 -22.03820461 18.74467705 -22 17 C-22.99 17 -23.98 17 -25 17 C-25.10823773 14.75106046 -25.18569645 12.50062425 -25.25 10.25 C-25.29640625 8.99703125 -25.3428125 7.7440625 -25.390625 6.453125 C-25 3 -25 3 -23.12890625 0.625 C-15.74468764 -5.01139439 -8.03991521 -3.32983613 0 0 Z " fill="#DDDDDC" transform="translate(38,11)"/>
<path d="M0 0 C0.33 0.33 0.66 0.66 1 1 C0.71269945 3.33944736 0.38063221 5.6739143 0 8 C0.78375 7.95875 1.5675 7.9175 2.375 7.875 C5 8 5 8 7 10 C7.19852102 12.70922801 7.27839477 15.29303179 7.25 18 C7.26160156 19.10601563 7.26160156 19.10601563 7.2734375 20.234375 C7.2533196 25.7466804 7.2533196 25.7466804 5 28 C2.375 28.125 2.375 28.125 0 28 C-0.144375 28.804375 -0.28875 29.60875 -0.4375 30.4375 C-1 33 -1 33 -2 34 C-4.99018161 34.12667764 -7.94694108 34.18520838 -10.9375 34.1875 C-11.77474609 34.19974609 -12.61199219 34.21199219 -13.47460938 34.22460938 C-14.27576172 34.22654297 -15.07691406 34.22847656 -15.90234375 34.23046875 C-16.63960693 34.23457764 -17.37687012 34.23868652 -18.13647461 34.24291992 C-20 34 -20 34 -22 32 C-22.14497985 29.41935871 -22.18677545 26.95056116 -22.125 24.375 C-22.11597656 23.66859375 -22.10695313 22.9621875 -22.09765625 22.234375 C-22.07407603 20.48943902 -22.03820461 18.74467705 -22 17 C-22.99 17 -23.98 17 -25 17 C-25.10823773 14.75106046 -25.18569645 12.50062425 -25.25 10.25 C-25.29640625 8.99703125 -25.3428125 7.7440625 -25.390625 6.453125 C-25 3 -25 3 -23.12890625 0.625 C-15.74468764 -5.01139439 -8.03991521 -3.32983613 0 0 Z M-21 10 C-21.49773212 13.24032972 -21.3743237 16.4192212 -21.25 19.6875 C-21.23195313 20.58017578 -21.21390625 21.47285156 -21.1953125 22.39257812 C-21.14819096 24.59551018 -21.07644739 26.79789058 -21 29 C-17.37 29 -13.74 29 -10 29 C-10 29.66 -10 30.32 -10 31 C-13.3 31 -16.6 31 -20 31 C-20 31.33 -20 31.66 -20 32 C-14.06 32 -8.12 32 -2 32 C-2.66 31.67 -3.32 31.34 -4 31 C-4 30.34 -4 29.68 -4 29 C-3.34 29 -2.68 29 -2 29 C-2 27.02 -2 25.04 -2 23 C-0.02 23.66 1.96 24.32 4 25 C2.68 25.33 1.36 25.66 0 26 C1.66611905 26.042721 3.33382885 26.04063832 5 26 C6.36532549 24.86298403 6.36532549 24.86298403 6.09765625 21.83984375 C6.08605469 20.55207031 6.07445313 19.26429687 6.0625 17.9375 C6.05347656 16.64714844 6.04445313 15.35679688 6.03515625 14.02734375 C6.02355469 13.02832031 6.01195313 12.02929688 6 11 C2.08936776 9.52952664 2.08936776 9.52952664 -2 9 C-2.33 8.34 -2.66 7.68 -3 7 C-3.66 9.31 -4.32 11.62 -5 14 C-5.66 13.67 -6.32 13.34 -7 13 C-7.625 9.9375 -7.625 9.9375 -8 7 C-9.41569064 6.91832554 -10.83276805 6.86050302 -12.25 6.8125 C-13.03890625 6.77769531 -13.8278125 6.74289063 -14.640625 6.70703125 C-17.82331685 7.10223305 -18.93838409 7.48857698 -21 10 Z " fill="#3F3F3E" transform="translate(38,11)"/>
<path d="M0 0 C11.55 0 23.1 0 35 0 C35 9.24 35 18.48 35 28 C34.01 28.495 34.01 28.495 33 29 C32.82984375 28.19175781 32.6596875 27.38351563 32.484375 26.55078125 C30.70237713 18.57325506 30.70237713 18.57325506 26 12 C26 11.34 26 10.68 26 10 C24.67741528 9.31225595 23.34013497 8.65288627 22 8 C20.989375 7.484375 19.97875 6.96875 18.9375 6.4375 C14.1746661 4.37845827 9.12358215 4.26868695 4 4 C4 3.67 4 3.34 4 3 C5.65 2.67 7.3 2.34 9 2 C6.03 1.67 3.06 1.34 0 1 C0 0.67 0 0.34 0 0 Z " fill="#59705C" transform="translate(21,0)"/>
<path d="M0 0 C4.76716839 0.581362 9.35901356 1.79974489 14 3 C14 4.32 14 5.64 14 7 C12.68 7 11.36 7 10 7 C10 9.31 10 11.62 10 14 C9.67 14 9.34 14 9 14 C8.34 12.02 7.68 10.04 7 8 C5.41705218 7.94562393 3.83355744 7.90703729 2.25 7.875 C1.36828125 7.85179687 0.4865625 7.82859375 -0.421875 7.8046875 C-3.1135858 8.00860498 -4.69904974 8.63448279 -7 10 C-7 12.31 -7 14.62 -7 17 C-7.66 17 -8.32 17 -9 17 C-9.08114106 15.22992286 -9.13925505 13.45877902 -9.1875 11.6875 C-9.22230469 10.70136719 -9.25710938 9.71523438 -9.29296875 8.69921875 C-9 6 -9 6 -7.65234375 4.21484375 C-5.57160462 2.68503318 -3.41455108 1.88957145 -1 1 C-0.67 0.67 -0.34 0.34 0 0 Z " fill="#F3F3F2" transform="translate(23,9)"/>
<path d="M0 0 C2.76375 0.020625 5.5275 0.04125 8.375 0.0625 C8.375 6.3325 8.375 12.6025 8.375 19.0625 C7.29526879 17.44290319 6.21714778 15.82220267 5.1484375 14.1953125 C1.53908471 9.01316911 -2.13238427 6.08402422 -7.625 3.0625 C-8.615 2.4025 -9.605 1.7425 -10.625 1.0625 C-7.31928083 -0.59035959 -3.629622 -0.0380118 0 0 Z " fill="#3F6D4C" transform="translate(47.625,-0.0625)"/>
<path d="M0 0 C0.33 0 0.66 0 1 0 C1 6.27 1 12.54 1 19 C-4.94 19 -10.88 19 -17 19 C-17 18.34 -17 17.68 -17 17 C-15.824375 16.505 -14.64875 16.01 -13.4375 15.5 C-7.53025243 12.55162244 -3.40210019 7.92612213 -0.5625 2 C-0.376875 1.34 -0.19125 0.68 0 0 Z " fill="#3F6D4C" transform="translate(55,37)"/>
<path d="M0 0 C1.65 0 3.3 0 5 0 C5 0.99 5 1.98 5 3 C5.78375 2.95875 6.5675 2.9175 7.375 2.875 C10 3 10 3 12 5 C12.19852102 7.70922801 12.27839477 10.29303179 12.25 13 C12.25773437 13.73734375 12.26546875 14.4746875 12.2734375 15.234375 C12.2533196 20.7466804 12.2533196 20.7466804 10 23 C7.375 23.125 7.375 23.125 5 23 C5 24.32 5 25.64 5 27 C3.68 26.67 2.36 26.34 1 26 C1 25.34 1 24.68 1 24 C1.66 24 2.32 24 3 24 C3 22.02 3 20.04 3 18 C4.65 18.33 6.3 18.66 8 19 C8 15.04 8 11.08 8 7 C8.33 7 8.66 7 9 7 C9 11.29 9 15.58 9 20 C9.33 20 9.66 20 10 20 C10 15.38 10 10.76 10 6 C7.69 5.34 5.38 4.68 3 4 C1.25314692 7.82745451 0.65113667 11.12442723 0.375 15.3125 C0.30023438 16.38113281 0.22546875 17.44976562 0.1484375 18.55078125 C0.09945312 19.35902344 0.05046875 20.16726562 0 21 C-0.33 21 -0.66 21 -1 21 C-1.09733092 13.90565767 -1.10087193 7.01805857 0 0 Z " fill="#353434" transform="translate(33,16)"/>
<path d="M0 0 C6.875 0.875 6.875 0.875 8 2 C8.09909302 4.33160055 8.12970504 6.66629942 8.125 9 C8.12757812 10.27875 8.13015625 11.5575 8.1328125 12.875 C8 16 8 16 7 17 C5.33382885 17.04063832 3.66611905 17.042721 2 17 C3.32 16.67 4.64 16.34 6 16 C4.02 15.34 2.04 14.68 0 14 C0 9.38 0 4.76 0 0 Z " fill="#9D9D9C" transform="translate(36,20)"/>
<path d="M0 0 C0.86882813 0.00386719 1.73765625 0.00773438 2.6328125 0.01171875 C4.875 0.3125 4.875 0.3125 6.875 2.3125 C7.27264263 4.30071313 7.61275349 6.30194339 7.875 8.3125 C6.885 8.3125 5.895 8.3125 4.875 8.3125 C4.875 6.3325 4.875 4.3525 4.875 2.3125 C3.45749437 2.42759661 2.04098831 2.55503658 0.625 2.6875 C-0.55835938 2.79191406 -0.55835938 2.79191406 -1.765625 2.8984375 C-4.210877 3.32757113 -5.97336903 4.09850638 -8.125 5.3125 C-8.455 4.6525 -8.785 3.9925 -9.125 3.3125 C-6.03435629 0.58842101 -4.10473095 -0.07964403 0 0 Z " fill="#4E4F4E" transform="translate(25.125,15.6875)"/>
<path d="M0 0 C0.9075 0.391875 1.815 0.78375 2.75 1.1875 C2.193125 1.31125 1.63625 1.435 1.0625 1.5625 C-1.47114364 2.24726855 -3.82921032 3.17883763 -6.25 4.1875 C-6.58 3.5275 -6.91 2.8675 -7.25 2.1875 C-4.52596974 -0.53653026 -3.86366821 -0.96591705 0 0 Z " fill="#3B3B3A" transform="translate(23.25,16.8125)"/>
</svg>
