<?xml version="1.0" encoding="UTF-8"?>
<svg version="1.1" xmlns="http://www.w3.org/2000/svg" width="56" height="56">
<path d="M0 0 C18.48 0 36.96 0 56 0 C56 18.48 56 36.96 56 56 C37.52 56 19.04 56 0 56 C0 37.52 0 19.04 0 0 Z " fill="#FCFCFA" transform="translate(0,0)"/>
<path d="M0 0 C18.48 0 36.96 0 56 0 C56 18.48 56 36.96 56 56 C37.52 56 19.04 56 0 56 C0 37.52 0 19.04 0 0 Z M7.6875 11.1875 C2.56969658 17.33087503 0.33127954 23.72954159 0.65234375 31.7421875 C1.75869116 38.92723021 5.68764744 45.14191036 11 50 C18.47650547 55.33572733 26.02117148 55.88960743 35 55 C43.13385943 52.59579293 48.96316222 47.39038705 53.09375 40.05859375 C55.91164587 33.60091573 56.06590492 26.46970195 53.8125 19.8125 C50.54561496 12.31076398 46.332627 7.71233417 39 4 C27.44189945 0.14729982 16.01493793 2.6049874 7.6875 11.1875 Z " fill="#47654D" transform="translate(0,0)"/>
<path d="M0 0 C4.08998175 1.80720124 6.66247347 4.19069751 9 8 C9.88534405 13.86540431 8.33142178 18.24650863 5 23 C2.91619598 25.40304977 0.99703863 26.89610855 -2 28 C-5.10231378 28.09463291 -8.14352315 27.93654831 -11.2421875 27.77734375 C-14.00373258 27.7665826 -14.00373258 27.7665826 -15.8828125 29.31640625 C-17.43276943 31.13712352 -17.43276943 31.13712352 -19 34 C-21.62187494 32.95125002 -22.79371361 32.35068687 -24.25 29.875 C-24.4975 29.25625 -24.745 28.6375 -25 28 C-24.00355469 27.37351562 -23.00710937 26.74703125 -21.98046875 26.1015625 C-19.91222783 24.3777247 -19.08895787 23.54063746 -18.64697266 20.85449219 C-18.74321395 18.33163229 -18.98441925 15.87827505 -19.3125 13.375 C-19.51019932 11.67606129 -19.69440642 9.97548305 -19.86328125 8.2734375 C-19.95907471 7.52497559 -20.05486816 6.77651367 -20.15356445 6.00537109 C-20 4 -20 4 -18.63183594 2.24902344 C-16.56786218 0.66923742 -15.49984485 0.71215939 -12.9375 0.875 C-8.37765516 1.01975698 -4.72465825 -0.32031581 0 0 Z " fill="#3D3E3D" transform="translate(37,12)"/>
<path d="M0 0 C3.5426931 0.02820616 4.63090304 0.2380644 7.75 2.1875 C10.31947704 4.91756935 10.70902295 5.7797983 11 9.5625 C10.63224572 15.07881414 8.84276783 18.54623488 4.8125 22.25 C1.75 24.3125 1.75 24.3125 -0.08203125 24.28125 C-3.33572601 22.82734675 -5.55813486 20.39697882 -8 17.875 C-8.50660156 17.37162109 -9.01320313 16.86824219 -9.53515625 16.34960938 C-13.25 12.57969382 -13.25 12.57969382 -13.25 10.3125 C-12.115625 10.003125 -10.98125 9.69375 -9.8125 9.375 C-6.46224901 8.68325469 -6.46224901 8.68325469 -5.25 7.3125 C-5.25 6.3225 -5.25 5.3325 -5.25 4.3125 C-5.25 -0.19488051 -4.10762671 0.12921342 0 0 Z " fill="#FAFAF9" transform="translate(33.25,13.6875)"/>
<path d="M0 0 C4.08998175 1.80720124 6.66247347 4.19069751 9 8 C9.87016325 13.76483155 8.24482203 18.27927229 5 23 C4.01 23.66 3.02 24.32 2 25 C2 21.42188369 2.86465142 20.73324619 5 18 C6.21260877 14.36217368 6.39544552 11.82264001 6 8 C4.21013047 4.8764117 4.21013047 4.8764117 1 3 C-2.0491088 2.60229016 -4.9453259 2.70052215 -8 3 C-7.938125 3.928125 -7.87625 4.85625 -7.8125 5.8125 C-8 9 -8 9 -9.125 10.875 C-11.78717536 12.47230522 -13.9564923 12.19848963 -17 12 C-17.33 12 -17.66 12 -18 12 C-19.55136786 9.53606281 -20.03039129 8.31910854 -19.75 5.375 C-19 3 -19 3 -17 1 C-15.125 0.83984375 -15.125 0.83984375 -13 0.9375 C-8.43842238 1.13036082 -4.73406282 -0.32095341 0 0 Z " fill="#464646" transform="translate(37,12)"/>
<path d="M0 0 C5.61 0 11.22 0 17 0 C17 5.28 17 10.56 17 16 C15.68 14.35 14.36 12.7 13 11 C11.53447296 9.56801495 10.03418323 8.17067249 8.5 6.8125 C7.7471875 6.13832031 6.994375 5.46414062 6.21875 4.76953125 C4.20121797 3.16047842 2.34956514 2.04128455 0 1 C0 0.67 0 0.34 0 0 Z " fill="#3F6D4C" transform="translate(39,0)"/>
<path d="M0 0 C4 5 4 5 5.875 7.5625 C8.28863373 10.33107986 10.91488701 12.03674628 14 14 C14 14.33 14 14.66 14 15 C9.38 15 4.76 15 0 15 C0 10.05 0 5.1 0 0 Z " fill="#3F6D4C" transform="translate(0,41)"/>
<path d="M0 0 C0.33 0 0.66 0 1 0 C1 4.62 1 9.24 1 14 C-3.62 14 -8.24 14 -13 14 C-11.35 12.68 -9.7 11.36 -8 10 C-6.71415096 8.65846459 -5.46110299 7.28438091 -4.25 5.875 C-3.65703125 5.19179688 -3.0640625 4.50859375 -2.453125 3.8046875 C-0.93897026 2.05512173 -0.93897026 2.05512173 0 0 Z " fill="#3F6D4C" transform="translate(55,42)"/>
<path d="M0 0 C7.48291572 6.15034169 7.48291572 6.15034169 10 10 C8.948125 9.87625 7.89625 9.7525 6.8125 9.625 C3.14375238 9.60945001 3.14375238 9.60945001 1.4921875 11.3359375 C0.293847 12.86435981 -0.85571683 14.43069737 -2 16 C-2.66 16 -3.32 16 -4 16 C-4.8125 14.3125 -4.8125 14.3125 -5 12 C-4.195625 11.236875 -3.39125 10.47375 -2.5625 9.6875 C0.38939647 7.15540797 0.38939647 7.15540797 0.3125 3.1875 C0.209375 2.135625 0.10625 1.08375 0 0 Z " fill="#E8E8E7" transform="translate(20,28)"/>
<path d="M0 0 C0.33 0 0.66 0 1 0 C0.75 3.3125 0.75 3.3125 0 7 C-2.0625 8.6875 -2.0625 8.6875 -4 10 C-4 11.32 -4 12.64 -4 14 C-3.34 14 -2.68 14 -2 14 C-1.67 13.34 -1.34 12.68 -1 12 C-1 12.99 -1 13.98 -1 15 C-5 15 -5 15 -6.75 13.5 C-7.1625 13.005 -7.575 12.51 -8 12 C-7 9 -7 9 -4.5625 7.125 C-1.82297246 4.85319667 -1.0234817 3.34957646 0 0 Z " fill="#50504F" transform="translate(20,30)"/>
<path d="M0 0 C0.99 0.33 1.98 0.66 3 1 C3.042721 2.66611905 3.04063832 4.33382885 3 6 C2 7 2 7 -0.4375 7.1875 C-3 7 -3 7 -5 5 C-4.625 2.875 -4.625 2.875 -4 1 C-2.02 1.495 -2.02 1.495 0 2 C0 1.34 0 0.68 0 0 Z " fill="#EDEDEC" transform="translate(24,15)"/>
<path d="M0 0 C0.66 0.33 1.32 0.66 2 1 C2.11214844 1.58265625 2.22429688 2.1653125 2.33984375 2.765625 C3.2804793 5.94931454 5.18497812 7.4729368 7.5625 9.75 C8.38878906 10.54921875 9.21507812 11.3484375 10.06640625 12.171875 C11.02353516 13.07679687 11.02353516 13.07679687 12 14 C9 14 9 14 7.17578125 12.46875 C6.56089844 11.8190625 5.94601563 11.169375 5.3125 10.5 C4.68988281 9.8503125 4.06726563 9.200625 3.42578125 8.53125 C2.95527344 8.0259375 2.48476563 7.520625 2 7 C1.34 7.66 0.68 8.32 0 9 C-1.125 2.25 -1.125 2.25 0 0 Z " fill="#292A29" transform="translate(19,22)"/>
<path d="M0 0 C0.33 0 0.66 0 1 0 C1.48975968 5.87711622 0.37071448 10.09611773 -3 15 C-3.99 15.66 -4.98 16.32 -6 17 C-6 13.37819838 -5.11077282 12.81436377 -3 10 C-2.01310803 7.42967443 -2.01310803 7.42967443 -1.3125 4.75 C-1.06113281 3.85796875 -0.80976562 2.9659375 -0.55078125 2.046875 C-0.36902344 1.37140625 -0.18726563 0.6959375 0 0 Z " fill="#535353" transform="translate(45,20)"/>
<path d="M0 0 C0.33 0 0.66 0 1 0 C0.8125 3.3125 0.8125 3.3125 0 7 C-2.5625 8.9375 -2.5625 8.9375 -5 10 C-3.33333333 6.66666667 -1.66666667 3.33333333 0 0 Z " fill="#484847" transform="translate(20,30)"/>
</svg>
