<?xml version="1.0" encoding="UTF-8"?>
<svg version="1.1" xmlns="http://www.w3.org/2000/svg" width="56" height="56">
<path d="M0 0 C18.48 0 36.96 0 56 0 C56 18.48 56 36.96 56 56 C37.52 56 19.04 56 0 56 C0 37.52 0 19.04 0 0 Z " fill="#FAFBF9" transform="translate(0,0)"/>
<path d="M0 0 C18.48 0 36.96 0 56 0 C56 18.48 56 36.96 56 56 C37.52 56 19.04 56 0 56 C0 37.52 0 19.04 0 0 Z M9.453125 8.23046875 C4.72281383 13.99076702 0.98642087 21.20224437 1.6171875 28.78515625 C3.068468 37.18185058 5.38818738 43.31961337 12 49 C18.58935311 53.24128138 25.20656502 54.85240695 33 54 C41.12754007 51.9433359 46.76676345 47.98897034 51.31640625 40.96875 C54.92074814 34.03635724 55.09331558 26.7969221 53.375 19.2578125 C50.70223036 11.40655167 45.73723016 7.27164971 38.8125 3.0625 C28.78987 0.26930803 17.46493366 0.94500538 9.453125 8.23046875 Z " fill="#416A4C" transform="translate(0,0)"/>
<path d="M0 0 C5.12234195 2.89650456 8.67150779 6.6432571 10.80859375 12.1640625 C11.80724694 17.82949887 11.00963629 22.30322013 7.80859375 27.1640625 C6.81859375 27.8240625 5.82859375 28.4840625 4.80859375 29.1640625 C4.80859375 28.1740625 4.80859375 27.1840625 4.80859375 26.1640625 C4.56109375 27.1128125 4.31359375 28.0615625 4.05859375 29.0390625 C2.80859375 32.1640625 2.80859375 32.1640625 1.09765625 33.3359375 C-3.51061437 35.00309342 -8.37569982 34.68694751 -13.19140625 34.1640625 C-18.20932309 31.74470974 -21.6909928 28.1648894 -24.19140625 23.1640625 C-24.69379673 17.66247495 -24.95346356 12.77610681 -22.56640625 7.7265625 C-16.29471441 0.95973709 -9.4041099 -3.58730752 0 0 Z " fill="#444443" transform="translate(35.19140625,10.8359375)"/>
<path d="M0 0 C0 0.99 0 1.98 0 3 C0.31421071 5.00309329 0.6451046 7.00371336 1 9 C4.82097239 8.46930939 7.06171403 7.50298434 10 5 C9.690625 5.5775 9.38125 6.155 9.0625 6.75 C8.02947181 8.9375891 7.29086462 10.60036692 7 13 C7.62946457 14.68107007 8.29322131 16.3499436 9 18 C9.77085938 17.83242188 10.54171875 17.66484375 11.3359375 17.4921875 C12.33882812 17.28851563 13.34171875 17.08484375 14.375 16.875 C15.37273438 16.66617188 16.37046875 16.45734375 17.3984375 16.2421875 C18.25695312 16.16226563 19.11546875 16.08234375 20 16 C20.66 16.66 21.32 17.32 22 18 C25.58343976 18.16677282 25.58343976 18.16677282 29 18 C28.6875 19.875 28.6875 19.875 28 22 C27.01 22.66 26.02 23.32 25 24 C25 23.01 25 22.02 25 21 C24.7525 21.94875 24.505 22.8975 24.25 23.875 C23 27 23 27 21.2890625 28.171875 C16.68079188 29.83903092 11.81570643 29.52288501 7 29 C1.98208316 26.58064724 -1.49958655 23.0008269 -4 18 C-5.03134153 6.70596493 -5.03134153 6.70596493 -2 2.25 C-1.34 1.5075 -0.68 0.765 0 0 Z " fill="#4B4C4B" transform="translate(15,16)"/>
<path d="M0 0 C14.19 0 28.38 0 43 0 C43 10.56 43 21.12 43 32 C42.01 32.495 42.01 32.495 41 33 C40.91363281 32.01 40.82726563 31.02 40.73828125 30 C39.81549068 20.85430024 38.37532937 14.26018913 31.625 7.6875 C23.64150454 2.55525292 16.01535106 1.66101782 6.60546875 3.45703125 C4.53901971 4.01432326 4.53901971 4.01432326 2 5 C2 4.01 2 3.02 2 2 C1.34 1.34 0.68 0.68 0 0 Z " fill="#566D56" transform="translate(13,0)"/>
<path d="M0 0 C6.27 0 12.54 0 19 0 C19 6.27 19 12.54 19 19 C16 15 16 15 14.67578125 13.03515625 C11.54979041 8.51187438 8.54949572 5.67665848 3.734375 3.0078125 C2 2 2 2 0 0 Z " fill="#90C27B" transform="translate(37,0)"/>
<path d="M0 0 C6.625 0.75 6.625 0.75 10 3 C9.67 5.97 9.34 8.94 9 12 C5.39076038 13.20307987 2.78613423 13.40565724 -1 13 C-3 10.75 -3 10.75 -4 8 C-3.79471324 4.61276843 -2.11337651 2.57280619 0 0 Z " fill="#FBFBFA" transform="translate(25,21)"/>
<path d="M0 0 C2.3125 0 2.3125 0 5 1 C9.13662406 6.55178493 9.13662406 6.55178493 8.6875 11.3125 C8.460625 12.199375 8.23375 13.08625 8 14 C8.33 14.66 8.66 15.32 9 16 C7.68 15.67 6.36 15.34 5 15 C5 14.34 5 13.68 5 13 C4.401875 12.9175 3.80375 12.835 3.1875 12.75 C0.22939226 11.73579163 -0.60171847 10.79656305 -2 8 C-1.56363636 1.56363636 -1.56363636 1.56363636 0 0 Z " fill="#F1F1F0" transform="translate(15,27)"/>
<path d="M0 0 C1.3303125 0.4021875 1.3303125 0.4021875 2.6875 0.8125 C3.16151764 4.88905174 2.99770611 6.39593751 0.5 9.75 C-2.3125 11.8125 -2.3125 11.8125 -5.125 11.625 C-5.846875 11.356875 -6.56875 11.08875 -7.3125 10.8125 C-8.125 8.125 -8.125 8.125 -8.3125 4.8125 C-5.71656513 1.11525943 -4.61271881 -0.26109729 0 0 Z " fill="#F7F7F6" transform="translate(22.3125,14.1875)"/>
<path d="M0 0 C4.13830989 0.30096799 6.51847024 0.67898016 10 3 C10.25 6.0625 10.25 6.0625 10 9 C9.67 9.33 9.34 9.66 9 10 C4.92720311 9.61577388 1.53425882 9.12055529 -2 7 C-2.125 4.625 -2.125 4.625 -2 2 C-1.34 1.34 -0.68 0.68 0 0 Z " fill="#FAFAF9" transform="translate(29,12)"/>
<path d="M0 0 C1 1 1 1 1.1875 3.4375 C1 6 1 6 -1 8 C-3.1640625 8.4140625 -3.1640625 8.4140625 -5.625 8.625 C-6.44226563 8.69976562 -7.25953125 8.77453125 -8.1015625 8.8515625 C-8.72804688 8.90054688 -9.35453125 8.94953125 -10 9 C-12 6 -12 6 -11.625 3.3125 C-11.41875 2.549375 -11.2125 1.78625 -11 1 C-7.26835686 0.12196632 -3.83319229 -0.17423601 0 0 Z " fill="#FAFAF9" transform="translate(36,35)"/>
<path d="M0 0 C2.6875 0.875 2.6875 0.875 5 2 C5.05399736 3.45792884 5.09279177 4.91642712 5.125 6.375 C5.14820313 7.18710937 5.17140625 7.99921875 5.1953125 8.8359375 C5 11 5 11 3 13 C0.4375 13.1875 0.4375 13.1875 -2 13 C-3.66684015 11.33315985 -3.21072764 9.34356931 -3.25 7.0625 C-3.27578125 6.16660156 -3.3015625 5.27070313 -3.328125 4.34765625 C-3.21984375 3.57292969 -3.1115625 2.79820313 -3 2 C-2.01 1.34 -1.02 0.68 0 0 Z " fill="#FAFAF9" transform="translate(39,22)"/>
<path d="M0 0 C0 0.99 0 1.98 0 3 C0.30216857 5.02534608 0.63247634 7.04386121 0.9765625 9.0625 C1 11 1 11 -1 14 C-1.39459347 17.07782904 -1.2615166 18.55168583 0.3125 21.25 C1.98145386 23.25126202 1.98145386 23.25126202 5 24 C5 24.66 5 25.32 5 26 C6.65 26.33 8.3 26.66 10 27 C9.67 27.66 9.34 28.32 9 29 C3.08215617 27.73189061 0.41406916 24.7151965 -3 20 C-5.08621364 15.82757272 -4.45549649 10.54313381 -4 6 C-2.93603263 3.47249673 -1.8424675 2.07277594 0 0 Z " fill="#656564" transform="translate(15,16)"/>
<path d="M0 0 C7.92 0 15.84 0 24 0 C24 0.99 24 1.98 24 3 C22.99839844 2.97679687 21.99679688 2.95359375 20.96484375 2.9296875 C19.62240336 2.91091211 18.27995482 2.89271382 16.9375 2.875 C15.62652344 2.85179687 14.31554687 2.82859375 12.96484375 2.8046875 C8.88175701 3.00582478 5.85000947 3.72834538 2 5 C2 4.01 2 3.02 2 2 C1.34 1.34 0.68 0.68 0 0 Z " fill="#627C5F" transform="translate(13,0)"/>
<path d="M0 0 C2.97269277 2.70244797 4.78696657 5.19234866 5.265625 9.25390625 C5.26046875 10.01574219 5.2553125 10.77757812 5.25 11.5625 C5.25515625 12.32691406 5.2603125 13.09132813 5.265625 13.87890625 C5 16 5 16 3 19 C1.79727181 16.59454362 1.89928528 15.05003047 1.9375 12.375 C1.94652344 11.55773438 1.95554688 10.74046875 1.96484375 9.8984375 C1.97644531 9.27195312 1.98804688 8.64546875 2 8 C1.34 7.67 0.68 7.34 0 7 C-0.6875 4 -0.6875 4 -1 1 C-0.67 0.67 -0.34 0.34 0 0 Z " fill="#767675" transform="translate(41,16)"/>
<path d="M0 0 C0.33 1.32 0.66 2.64 1 4 C6.94 5.485 6.94 5.485 13 7 C12.34 7.66 11.68 8.32 11 9 C10.53993654 11.20250992 10.53993654 11.20250992 10.375 13.625 C10.30023438 14.44226562 10.22546875 15.25953125 10.1484375 16.1015625 C10.09945312 16.72804688 10.05046875 17.35453125 10 18 C9.34 17.67 8.68 17.34 8 17 C8 14.36 8 11.72 8 9 C5.03 8.01 2.06 7.02 -1 6 C-1.042721 4.33388095 -1.04063832 2.66617115 -1 1 C-0.67 0.67 -0.34 0.34 0 0 Z " fill="#5F605F" transform="translate(26,15)"/>
<path d="M0 0 C0.33 1.32 0.66 2.64 1 4 C-0.1196986 5.00593243 -1.2459412 6.0045849 -2.375 7 C-3.31472656 7.8353125 -3.31472656 7.8353125 -4.2734375 8.6875 C-6 10 -6 10 -8 10 C-8 10.66 -8 11.32 -8 12 C-10.31 12.66 -12.62 13.32 -15 14 C-15.66 13.34 -16.32 12.68 -17 12 C-16.35933594 11.8040625 -15.71867187 11.608125 -15.05859375 11.40625 C-8.13249647 9.0115338 -4.31425254 5.88566902 0 0 Z " fill="#596E59" transform="translate(50,41)"/>
<path d="M0 0 C5.79089728 0.68128203 9.60849794 3.38878709 13.375 7.75 C13.91125 8.4925 14.4475 9.235 15 10 C11.3245894 10 10.29514934 8.72717435 7.62890625 6.375 C6.02596883 5.02192093 4.38795253 3.88362432 2.625 2.75 C1.325625 1.88375 1.325625 1.88375 0 1 C0 0.67 0 0.34 0 0 Z " fill="#4E674F" transform="translate(36,1)"/>
<path d="M0 0 C0.680625 0.721875 1.36125 1.44375 2.0625 2.1875 C5.09214518 5.23455693 8.46217304 7.57207954 12 10 C11.67 10.99 11.34 11.98 11 13 C5.88327027 9.49777237 2.09355668 6.41372419 -1 1 C-0.67 0.67 -0.34 0.34 0 0 Z " fill="#48624B" transform="translate(5,41)"/>
<path d="M0 0 C0.66 0.66 1.32 1.32 2 2 C1.2575 2.515625 0.515 3.03125 -0.25 3.5625 C-3.53628545 6.47534392 -4.98763759 9.12433906 -7 13 C-7.66 12.01 -8.32 11.02 -9 10 C-8.06862408 8.70391053 -7.1296434 7.41328368 -6.1875 6.125 C-5.66542969 5.40570312 -5.14335938 4.68640625 -4.60546875 3.9453125 C-3 2 -3 2 0 0 Z " fill="#4C664F" transform="translate(12,4)"/>
<path d="M0 0 C0.8971875 0.5259375 0.8971875 0.5259375 1.8125 1.0625 C-2.14273655 3.81918002 -5.41173661 4.5942879 -10.1875 5.0625 C-3.828125 -1.640625 -3.828125 -1.640625 0 0 Z " fill="#727271" transform="translate(26.1875,10.9375)"/>
<path d="M0 0 C1.98 0.99 3.96 1.98 6 3 C6 3.66 6 4.32 6 5 C7.65 5.33 9.3 5.66 11 6 C10.67 6.66 10.34 7.32 10 8 C5.60316512 6.80086322 2.90159066 5.5711885 0 2 C0 1.34 0 0.68 0 0 Z " fill="#595A59" transform="translate(14,37)"/>
<path d="M0 0 C0.33 1.32 0.66 2.64 1 4 C2.32 4.33 3.64 4.66 5 5 C4.67 5.66 4.34 6.32 4 7 C2.35 6.67 0.7 6.34 -1 6 C-1.042721 4.33388095 -1.04063832 2.66617115 -1 1 C-0.67 0.67 -0.34 0.34 0 0 Z " fill="#676766" transform="translate(26,15)"/>
</svg>
