<?xml version="1.0" encoding="UTF-8"?>
<svg version="1.1" xmlns="http://www.w3.org/2000/svg" width="56" height="56">
<path d="M0 0 C18.48 0 36.96 0 56 0 C56 18.48 56 36.96 56 56 C37.52 56 19.04 56 0 56 C0 37.52 0 19.04 0 0 Z " fill="#F9F9F8" transform="translate(0,0)"/>
<path d="M0 0 C18.48 0 36.96 0 56 0 C56 18.48 56 36.96 56 56 C37.52 56 19.04 56 0 56 C0 37.52 0 19.04 0 0 Z M9.1875 10.8125 C4.47872876 16.65008627 2.39757548 21.94225754 2.6484375 29.4453125 C3.58985015 36.2862444 7.05002015 42.26523667 12 47 C18.93308512 51.82634655 25.65020066 53.3456744 34 52 C41.43692616 49.68723266 46.6350393 45.38836814 51 39 C53.9538455 33.22073706 53.87741514 25.99635179 52.5 19.72265625 C50.45235481 13.6611611 46.9741131 8.99524102 41.4375 5.6875 C30.1278691 0.13549938 17.77745822 1.61535139 9.1875 10.8125 Z " fill="#42644A" transform="translate(0,0)"/>
<path d="M0 0 C2.4375 1.25 2.4375 1.25 5 3 C5.625 5.125 5.625 5.125 6 7 C6.99 7.33 7.98 7.66 9 8 C9.33 8.66 9.66 9.32 10 10 C10.99 9.67 11.98 9.34 13 9 C17.64211049 16.79211404 20.97338297 23.80853836 19 33 C17.49879386 36.06562096 15.84213002 38.10113656 13 40 C9.125 40.9375 9.125 40.9375 6 41 C6.99 40.505 6.99 40.505 8 40 C8 36.7 8 33.4 8 30 C7.01 29.67 6.02 29.34 5 29 C3.8125 26.4375 3.8125 26.4375 3 24 C2.401875 24.928125 1.80375 25.85625 1.1875 26.8125 C-1 30 -1 30 -2.875 31.375 C-4.23097645 32.94406616 -4.23097645 32.94406616 -3.73828125 34.95703125 C-3.23579739 36.9919127 -2.62331732 38.99882333 -2 41 C-4.91916538 41.34751969 -7.13195476 41.53280018 -9.69921875 39.95703125 C-13.0136087 37.22045263 -14.82402938 35.54854144 -15.3125 31.25 C-14.92345539 27.20393603 -13.27943577 25.31554294 -11 22 C-10.20929452 18.76961158 -10.20929452 18.76961158 -10 16 C-7.525 16.99 -7.525 16.99 -5 18 C-4.8453125 16.88625 -4.8453125 16.88625 -4.6875 15.75 C-4 13 -4 13 -2.5 11.25 C-0.19498637 7.79247956 -0.25253135 4.07533353 0 0 Z " fill="#F8F8F7" transform="translate(26,5)"/>
<path d="M0 0 C6.27 0 12.54 0 19 0 C16.49609553 2.50390447 15.16139323 3.51982955 12.1875 5.0625 C6.99329084 8.19050441 4.77881149 12.77866631 2 18 C1.34 18.99 0.68 19.98 0 21 C0 14.07 0 7.14 0 0 Z " fill="#3F6D4C" transform="translate(0,0)"/>
<path d="M0 0 C3 1 3 1 4 3 C4.99 2.67 5.98 2.34 7 2 C11.64211049 9.79211404 14.97338297 16.80853836 13 26 C11.49879386 29.06562096 9.84213002 31.10113656 7 33 C3.125 33.9375 3.125 33.9375 0 34 C0.99 33.505 0.99 33.505 2 33 C2 29.7 2 26.4 2 23 C1.01 22.67 0.02 22.34 -1 22 C-2.1875 19.4375 -2.1875 19.4375 -3 17 C-3.5775 17.94875 -4.155 18.8975 -4.75 19.875 C-6.82816551 22.76134098 -7.75468075 23.84095741 -11 25 C-10.071875 23.9790625 -10.071875 23.9790625 -9.125 22.9375 C-6.6680932 19.54118766 -5.95054395 17.03981179 -5 13 C-3 14.375 -3 14.375 -1 16 C-1 16.66 -1 17.32 -1 18 C-0.38125 18.0825 0.2375 18.165 0.875 18.25 C3 19 3 19 4.25 20.5625 C5.34127575 24.10914618 5.12349053 27.29528399 5 31 C7.69930169 29.40810413 9.62906533 28.09743985 10.66015625 25.046875 C11.5431094 19.24171178 10.53412002 14.28034701 8 9 C7.34 8.34 6.68 7.68 6 7 C5.67 7.66 5.34 8.32 5 9 C4.34 9 3.68 9 3 9 C2.01 6.03 1.02 3.06 0 0 Z " fill="#4A4B4A" transform="translate(32,12)"/>
<path d="M0 0 C5.61 0 11.22 0 17 0 C17 6.27 17 12.54 17 19 C14 15 14 15 12.67578125 13.03515625 C9.49840758 8.43752386 6.47430805 5.6510339 1.5390625 3.0078125 C1.03117187 2.67523438 0.52328125 2.34265625 0 2 C0 1.34 0 0.68 0 0 Z " fill="#3F6D4C" transform="translate(39,0)"/>
<path d="M0 0 C2.5 1.3125 2.5 1.3125 5 3 C5 3.99 5 4.98 5 6 C4.34 5.34 3.68 4.68 3 4 C2.7525 4.845625 2.505 5.69125 2.25 6.5625 C1.28288315 9.22207134 0.3837616 11.13864924 -1.0625 13.5 C-2.92807067 16.61390792 -3.64444624 19.35557392 -4 23 C-4.99 22.01 -5.98 21.02 -7 20 C-9.84078344 23.90607723 -11.84765894 26.96746612 -12.5625 31.8125 C-12.29705756 35.05487389 -12.29705756 35.05487389 -10.125 36.9375 C-8.09782797 38.1490712 -8.09782797 38.1490712 -6 38 C-5.67 36.68 -5.34 35.36 -5 34 C-3.515 37.465 -3.515 37.465 -2 41 C-4.91916538 41.34751969 -7.13195476 41.53280018 -9.69921875 39.95703125 C-13.0136087 37.22045263 -14.82402938 35.54854144 -15.3125 31.25 C-14.92345539 27.20393603 -13.27943577 25.31554294 -11 22 C-10.20929452 18.76961158 -10.20929452 18.76961158 -10 16 C-7.525 16.99 -7.525 16.99 -5 18 C-4.8453125 16.88625 -4.8453125 16.88625 -4.6875 15.75 C-4 13 -4 13 -2.5 11.25 C-0.19498637 7.79247956 -0.25253135 4.07533353 0 0 Z " fill="#4B4B4A" transform="translate(26,5)"/>
<path d="M0 0 C2 1.375 2 1.375 4 3 C4 3.66 4 4.32 4 5 C4.61875 5.0825 5.2375 5.165 5.875 5.25 C8 6 8 6 9.09375 7.75 C10.06189753 10.15367662 10.39777401 12.1747721 10.625 14.75 C10.69976562 15.54921875 10.77453125 16.3484375 10.8515625 17.171875 C10.90054688 17.77515625 10.94953125 18.3784375 11 19 C10.34 19 9.68 19 9 19 C8.89042969 18.36191406 8.78085937 17.72382812 8.66796875 17.06640625 C8.50941406 16.24011719 8.35085937 15.41382813 8.1875 14.5625 C8.03667969 13.73878906 7.88585938 12.91507813 7.73046875 12.06640625 C7.48941406 11.38449219 7.24835937 10.70257813 7 10 C6.01 9.67 5.02 9.34 4 9 C2.8125 6.4375 2.8125 6.4375 2 4 C1.4225 4.94875 0.845 5.8975 0.25 6.875 C-1.82816551 9.76134098 -2.75468075 10.84095741 -6 12 C-5.38125 11.319375 -4.7625 10.63875 -4.125 9.9375 C-1.6680932 6.54118766 -0.95054395 4.03981179 0 0 Z " fill="#555555" transform="translate(27,25)"/>
<path d="M0 0 C2.5 1.3125 2.5 1.3125 5 3 C5 3.99 5 4.98 5 6 C4.34 5.34 3.68 4.68 3 4 C2.7525 4.845625 2.505 5.69125 2.25 6.5625 C0.86026373 10.38427474 -0.91120838 13.51868063 -3 17 C-3.66 17 -4.32 17 -5 17 C-3.87548273 14.0280615 -2.77706209 11.66559313 -1 9 C-0.54605448 6.72087062 -0.54605448 6.72087062 -0.375 4.3125 C-0.30023437 3.50425781 -0.22546875 2.69601563 -0.1484375 1.86328125 C-0.09945313 1.24839844 -0.05046875 0.63351563 0 0 Z " fill="#626261" transform="translate(26,5)"/>
<path d="M0 0 C2.97 0.495 2.97 0.495 6 1 C6 2.98 6 4.96 6 7 C5.01 6.01 4.02 5.02 3 4 C1.02 6.97 -0.96 9.94 -3 13 C-3.33 12.01 -3.66 11.02 -4 10 C-3.54625 9.401875 -3.0925 8.80375 -2.625 8.1875 C-0.62196288 5.49110388 -0.37461796 3.29663801 0 0 Z " fill="#414140" transform="translate(16,21)"/>
<path d="M0 0 C0.33 0 0.66 0 1 0 C1.52275318 4.96615519 1.58003638 7.91972139 -1.5625 11.9375 C-4.12959355 14.63325456 -5.05289896 15.01279813 -8.875 15.9375 C-9.90625 15.958125 -10.9375 15.97875 -12 16 C-11.34 15.67 -10.68 15.34 -10 15 C-9.67 14.01 -9.34 13.02 -9 12 C-8.67 12.66 -8.34 13.32 -8 14 C-3.7054214 11.10582746 -1.72993716 9.33845705 -0.625 4.1875 C-0.39335282 2.79534589 -0.17692664 1.40016086 0 0 Z " fill="#3F3F3E" transform="translate(44,30)"/>
<path d="M0 0 C0.66 0.33 1.32 0.66 2 1 C0.88059018 5.85077588 -0.1334716 8.777893 -4 12 C-4.66 11.67 -5.32 11.34 -6 11 C-5.38125 10.484375 -4.7625 9.96875 -4.125 9.4375 C-1.52523258 6.45541385 -0.88050877 3.81553799 0 0 Z " fill="#4E4E4E" transform="translate(27,25)"/>
<path d="M0 0 C2.5 1.3125 2.5 1.3125 5 3 C5 3.99 5 4.98 5 6 C4.34 5.34 3.68 4.68 3 4 C2.34 4.99 1.68 5.98 1 7 C0.67 4.69 0.34 2.38 0 0 Z " fill="#343534" transform="translate(26,5)"/>
</svg>
