<?xml version="1.0" encoding="UTF-8"?>
<svg version="1.1" xmlns="http://www.w3.org/2000/svg" width="56" height="56">
<path d="M0 0 C18.48 0 36.96 0 56 0 C56 18.48 56 36.96 56 56 C37.52 56 19.04 56 0 56 C0 37.52 0 19.04 0 0 Z " fill="#F7F7F6" transform="translate(0,0)"/>
<path d="M0 0 C18.48 0 36.96 0 56 0 C56 18.48 56 36.96 56 56 C37.52 56 19.04 56 0 56 C0 37.52 0 19.04 0 0 Z M9.0625 11.8125 C4.52764457 17.62010967 2.34540815 22.98334496 2.58203125 30.375 C3.68409934 37.29639957 7.49249195 43.71638263 13 48 C19.4882637 52.17102666 25.27050667 54.32117538 33 53 C39.98082362 50.95152881 46.26941706 47.13626764 50.3203125 41 C53.63808597 34.50366033 54.12816973 27.78051776 52.45703125 20.69921875 C50.12246545 13.8502992 46.27134489 9.63738004 40 6 C29.5964975 1.16116163 16.83334577 3.42259314 9.0625 11.8125 Z " fill="#47624B" transform="translate(0,0)"/>
<path d="M0 0 C1.98 0.495 1.98 0.495 4 1 C4 13.21 4 25.42 4 38 C2.02 38.495 2.02 38.495 0 39 C-1.78365341 37.21634659 -1.12846636 34.82382995 -1.13894653 32.44923401 C-1.1369223 31.67321335 -1.13489807 30.89719269 -1.1328125 30.09765625 C-1.13376923 29.30475693 -1.13472595 28.5118576 -1.13571167 27.69493103 C-1.13639351 26.0144747 -1.13453896 24.33401575 -1.13037109 22.65356445 C-1.1250299 20.07692555 -1.13031228 17.50046152 -1.13671875 14.92382812 C-1.13605783 13.29427045 -1.13477638 11.66471288 -1.1328125 10.03515625 C-1.13483673 9.26115982 -1.13686096 8.48716339 -1.13894653 7.68971252 C-1.11495583 2.22991166 -1.11495583 2.22991166 0 0 Z " fill="#6C6C6B" transform="translate(27,9)"/>
<path d="M0 0 C2.76375 -0.04125 5.5275 -0.0825 8.375 -0.125 C9.67896729 -0.15231201 9.67896729 -0.15231201 11.00927734 -0.18017578 C13.00703478 -0.19473738 15.00467217 -0.09956726 17 0 C17.66 0.66 18.32 1.32 19 2 C17.91332031 2.58394531 17.91332031 2.58394531 16.8046875 3.1796875 C9.45986107 7.42989373 5.77481549 11.47667435 2 19 C1.34 19.99 0.68 20.98 0 22 C0 14.74 0 7.48 0 0 Z " fill="#90C27B" transform="translate(0,0)"/>
<path d="M0 0 C1.56079093 2.34118639 2.58327699 4.2792825 3.6875 6.8125 C6.95682557 13.4240729 12.34226006 17.07708978 19 20 C18.67 20.66 18.34 21.32 18 22 C12.06 22 6.12 22 0 22 C0 14.74 0 7.48 0 0 Z " fill="#90C27B" transform="translate(0,34)"/>
<path d="M0 0 C2.76375 0.020625 5.5275 0.04125 8.375 0.0625 C8.375 6.6625 8.375 13.2625 8.375 20.0625 C5.375 16.0625 5.375 16.0625 3.6875 13.1875 C0.76890403 9.24345139 -2.63681237 6.84332614 -6.625 4.0625 C-7.96166756 3.06696114 -9.29595078 2.0681868 -10.625 1.0625 C-7.31928083 -0.59035959 -3.629622 -0.0380118 0 0 Z " fill="#90C27B" transform="translate(47.625,-0.0625)"/>
<path d="M0 0 C3 0.125 3 0.125 4 1.125 C3.71269945 3.46444736 3.38063221 5.7989143 3 8.125 C4.32 8.785 5.64 9.445 7 10.125 C7 14.415 7 18.705 7 23.125 C6.01 23.455 5.02 23.785 4 24.125 C4.020625 25.094375 4.04125 26.06375 4.0625 27.0625 C4 30.125 4 30.125 3 31.125 C0.66702567 31.16592937 -1.66705225 31.16741723 -4 31.125 C-4 28.815 -4 26.505 -4 24.125 C-4.99 23.795 -5.98 23.465 -7 23.125 C-7 21.145 -7 19.165 -7 17.125 C-6.34 17.125 -5.68 17.125 -5 17.125 C-5 19.105 -5 21.085 -5 23.125 C-4.01 23.455 -3.02 23.785 -2 24.125 C-2 26.105 -2 28.085 -2 30.125 C-0.68 30.125 0.64 30.125 2 30.125 C1.95875 29.17625 1.9175 28.2275 1.875 27.25 C2 24.125 2 24.125 4 22.125 C4.46396693 19.23276497 4.46396693 19.23276497 4.625 16 C4.69976562 14.90429688 4.77453125 13.80859375 4.8515625 12.6796875 C4.90054687 11.83664063 4.94953125 10.99359375 5 10.125 C1.7 10.125 -1.6 10.125 -5 10.125 C-5 10.785 -5 11.445 -5 12.125 C-5.66 12.125 -6.32 12.125 -7 12.125 C-6.690625 11.609375 -6.38125 11.09375 -6.0625 10.5625 C-4.7129419 7.46645494 -4.44037297 4.45925247 -4 1.125 C-3 0.125 -3 0.125 0 0 Z " fill="#464645" transform="translate(17,12.875)"/>
<path d="M0 0 C2.375 0.75 2.375 0.75 3.375 1.75 C3.354375 2.86375 3.33375 3.9775 3.3125 5.125 C3.05017806 8.84806415 3.05017806 8.84806415 5.375 11.75 C5 13.9375 5 13.9375 4.375 15.75 C3.385 13.77 2.395 11.79 1.375 9.75 C-0.275 10.08 -1.925 10.41 -3.625 10.75 C-5.11 17.185 -5.11 17.185 -6.625 23.75 C-5.305 24.08 -3.985 24.41 -2.625 24.75 C-2.625 26.73 -2.625 28.71 -2.625 30.75 C-1.305 30.75 0.015 30.75 1.375 30.75 C1.375 28.44 1.375 26.13 1.375 23.75 C2.365 23.42 3.355 23.09 4.375 22.75 C4.705 22.09 5.035 21.43 5.375 20.75 C6.035 20.75 6.695 20.75 7.375 20.75 C7.045 22.07 6.715 23.39 6.375 24.75 C5.055 25.08 3.735 25.41 2.375 25.75 C2.375 27.73 2.375 29.71 2.375 31.75 C0.065 31.75 -2.245 31.75 -4.625 31.75 C-4.955 29.77 -5.285 27.79 -5.625 25.75 C-6.615 25.42 -7.605 25.09 -8.625 24.75 C-8.94181706 19.68092708 -8.23482121 16.3961015 -6.28125 11.73828125 C-5.42584267 9.49556451 -5.42584267 9.49556451 -5.625 5.9375 C-5.625 2.75 -5.625 2.75 -4.4375 0.75 C-2.625 -0.25 -2.625 -0.25 0 0 Z " fill="#484848" transform="translate(42.625,12.25)"/>
<path d="M0 0 C0.33 0 0.66 0 1 0 C1 6.93 1 13.86 1 21 C-4.94 21 -10.88 21 -17 21 C-17.33 20.34 -17.66 19.68 -18 19 C-17.48050781 18.76925781 -16.96101563 18.53851563 -16.42578125 18.30078125 C-9.34349508 14.98873245 -5.03356162 10.77062129 -1 4 C-0.23060319 1.77397385 -0.23060319 1.77397385 0 0 Z " fill="#90C27B" transform="translate(55,35)"/>
<path d="M0 0 C0.33 0 0.66 0 1 0 C1 3.63 1 7.26 1 11 C0.01 11.33 -0.98 11.66 -2 12 C-1.979375 12.969375 -1.95875 13.93875 -1.9375 14.9375 C-2 18 -2 18 -3 19 C-5.33297433 19.04092937 -7.66705225 19.04241723 -10 19 C-10 16.69 -10 14.38 -10 12 C-10.99 11.67 -11.98 11.34 -13 11 C-13 9.02 -13 7.04 -13 5 C-12.34 5 -11.68 5 -11 5 C-11 6.98 -11 8.96 -11 11 C-10.01 11.33 -9.02 11.66 -8 12 C-8 13.98 -8 15.96 -8 18 C-6.68 18 -5.36 18 -4 18 C-4.04125 17.05125 -4.0825 16.1025 -4.125 15.125 C-4 12 -4 12 -2 10 C-1.5769311 7.83000806 -1.5769311 7.83000806 -1.4375 5.4375 C-1.09722222 1.09722222 -1.09722222 1.09722222 0 0 Z " fill="#434443" transform="translate(23,25)"/>
<path d="M0 0 C3 1.625 3 1.625 6 4 C6.375 7.25 6.375 7.25 6 10 C7.32 10 8.64 10 10 10 C10 7.69 10 5.38 10 3 C10.99 2.67 11.98 2.34 13 2 C13.33 1.34 13.66 0.68 14 0 C14.66 0 15.32 0 16 0 C15.67 1.32 15.34 2.64 15 4 C13.68 4.33 12.36 4.66 11 5 C11 6.98 11 8.96 11 11 C8.69 11 6.38 11 4 11 C3.67 9.02 3.34 7.04 3 5 C2.01 4.67 1.02 4.34 0 4 C0 2.68 0 1.36 0 0 Z " fill="#363635" transform="translate(34,33)"/>
<path d="M0 0 C-0.29881682 3.48619623 -1.03527486 5.04636125 -3.1875 7.875 C-6 10 -6 10 -9.3125 9.8125 C-10.199375 9.544375 -11.08625 9.27625 -12 9 C-12 8.67 -12 8.34 -12 8 C-10.02 8 -8.04 8 -6 8 C-6 6.02 -6 4.04 -6 2 C-2.25 0 -2.25 0 0 0 Z " fill="#F8F8F7" transform="translate(51,36)"/>
<path d="M0 0 C3 1.625 3 1.625 6 4 C6.375 7.25 6.375 7.25 6 10 C5.01 10.495 5.01 10.495 4 11 C3.67 9.02 3.34 7.04 3 5 C2.01 4.67 1.02 4.34 0 4 C0 2.68 0 1.36 0 0 Z " fill="#454645" transform="translate(34,33)"/>
<path d="M0 0 C1.65 1.65 3.3 3.3 5 5 C1.25 8 1.25 8 -1 8 C-1 8.66 -1 9.32 -1 10 C-1.66 10 -2.32 10 -3 10 C-2.690625 9.46375 -2.38125 8.9275 -2.0625 8.375 C-0.82172561 5.6015043 -0.4090325 2.99957163 0 0 Z " fill="#373736" transform="translate(13,15)"/>
<path d="M0 0 C1.98 0.495 1.98 0.495 4 1 C4 2.32 4 3.64 4 5 C2.35 4.67 0.7 4.34 -1 4 C-0.67 2.68 -0.34 1.36 0 0 Z " fill="#F0F0EF" transform="translate(40,14)"/>
<path d="M0 0 C1.32 0.66 2.64 1.32 4 2 C3.67 2.99 3.34 3.98 3 5 C1.35 4.67 -0.3 4.34 -2 4 C-1.34 2.68 -0.68 1.36 0 0 Z " fill="#EEEEED" transform="translate(16,14)"/>
<path d="M0 0 C0.33 0 0.66 0 1 0 C1 1.65 1 3.3 1 5 C1.66 5.33 2.32 5.66 3 6 C0 8 0 8 -3.1875 7.625 C-4.115625 7.41875 -5.04375 7.2125 -6 7 C-6 6.67 -6 6.34 -6 6 C-4.02 6 -2.04 6 0 6 C0 4.02 0 2.04 0 0 Z " fill="#BCBDBB" transform="translate(45,38)"/>
</svg>
