<?xml version="1.0" encoding="UTF-8"?>
<svg version="1.1" xmlns="http://www.w3.org/2000/svg" width="56" height="56">
<path d="M0 0 C18.48 0 36.96 0 56 0 C56 18.48 56 36.96 56 56 C37.52 56 19.04 56 0 56 C0 37.52 0 19.04 0 0 Z " fill="#4D4E4D" transform="translate(0,0)"/>
<path d="M0 0 C18.48 0 36.96 0 56 0 C56 18.48 56 36.96 56 56 C37.52 56 19.04 56 0 56 C0 37.52 0 19.04 0 0 Z M7.5625 10.1875 C2.57138898 16.34824511 0.32450776 22.79810257 0.65625 30.74609375 C1.82895331 38.43529613 6.22623863 44.93509646 12 50 C18.95446298 54.66698366 26.37441265 55.08391094 34.453125 53.52734375 C41.9590444 51.39556052 46.97230855 47.24890126 50.9375 40.5625 C54.27780162 33.18043342 54.68570257 24.66479874 51.92578125 17.02734375 C48.19565029 10.2517908 43.06433587 5.98700865 36.1875 2.625 C25.23180897 0.47682529 15.48924796 1.9135952 7.5625 10.1875 Z " fill="#45694D" transform="translate(0,0)"/>
<path d="M0 0 C5.65597997 3.68406211 9.9360632 8.51465192 12 15 C12.86876294 22.7692229 13.02101763 30.13076155 9 37 C8.67 37 8.34 37 8 37 C7.99589111 36.35973877 7.99178223 35.71947754 7.98754883 35.05981445 C7.95453962 32.14312095 7.88388974 29.22849616 7.8125 26.3125 C7.80669922 25.30509766 7.80089844 24.29769531 7.79492188 23.25976562 C7.76591797 22.28330078 7.73691406 21.30683594 7.70703125 20.30078125 C7.6913208 19.40528564 7.67561035 18.50979004 7.65942383 17.5871582 C6.70113452 13.82744264 5.05775672 12.33610139 2 10 C-1.36687898 9.22673831 -1.36687898 9.22673831 -5.05078125 9.29296875 C-5.70958786 9.27784744 -6.36839447 9.26272614 -7.04716492 9.24714661 C-9.135962 9.20441434 -11.2233102 9.19544735 -13.3125 9.1875 C-14.73506417 9.16434386 -16.15759417 9.13897617 -17.58007812 9.11132812 C-21.05335804 9.04862384 -24.52615613 9.01617216 -28 9 C-28.268125 9.598125 -28.53625 10.19625 -28.8125 10.8125 C-30 13 -30 13 -31.59741211 14.47631836 C-33.44780573 16.48646746 -33.39406382 17.67811999 -33.44140625 20.37890625 C-33.46783203 21.21744141 -33.49425781 22.05597656 -33.52148438 22.91992188 C-33.53501953 23.79197266 -33.54855469 24.66402344 -33.5625 25.5625 C-33.59688399 27.29316061 -33.63945962 29.02368373 -33.69140625 30.75390625 C-33.70373291 31.52033447 -33.71605957 32.2867627 -33.72875977 33.07641602 C-34 35 -34 35 -36 37 C-40.11279656 29.23342435 -41.27249649 23.05528089 -39 14.5 C-36.62048568 8.18045266 -32.39099505 3.08849364 -26.640625 -0.453125 C-18.08454539 -4.32243489 -8.30903078 -4.65729114 0 0 Z " fill="#F8F8F6" transform="translate(41,5)"/>
<path d="M0 0 C5.94 0 11.88 0 18 0 C18 18.48 18 36.96 18 56 C11.73 56 5.46 56 -1 56 C-1 55.34 -1 54.68 -1 54 C-0.154375 53.505 0.69125 53.01 1.5625 52.5 C7.40999189 48.8192747 12.090931 41.5746474 14 35 C14.20410238 31.93151464 14.14342366 28.88514682 14.0625 25.8125 C13.88037736 17.23924528 13.88037736 17.23924528 15 15 C14.34 15 13.68 15 13 15 C13 14.01 13 13.02 13 12 C12.34 12 11.68 12 11 12 C10.5875 11.2575 10.175 10.515 9.75 9.75 C7.6312717 6.42056982 5.35204353 5.02519297 2 3 C1.01 2.34 0.02 1.68 -1 1 C-0.67 0.67 -0.34 0.34 0 0 Z " fill="#3F6B4C" transform="translate(38,0)"/>
<path d="M0 0 C14.19 0 28.38 0 43 0 C39.37966899 6.03388502 36.20587113 8.70532127 29.75 11.3125 C20.22804951 13.05819092 13.19455301 12.42373293 5 7 C3.00901696 5.42156299 1.61472902 3.99149913 0 2 C0 1.34 0 0.68 0 0 Z " fill="#FCFCFB" transform="translate(6,42)"/>
<path d="M0 0 C8.58 0 17.16 0 26 0 C26 5.61 26 11.22 26 17 C22.7 17 19.4 17 16 17 C16.66 11.72 17.32 6.44 18 1 C17.01 1 16.02 1 15 1 C14.67 2.32 14.34 3.64 14 5 C13.67 3.68 13.34 2.36 13 1 C12.01 1 11.02 1 10 1 C10 2.98 10 4.96 10 7 C9.34 7 8.68 7 8 7 C8 5.02 8 3.04 8 1 C7.01 1 6.02 1 5 1 C5.66 6.28 6.32 11.56 7 17 C4.69 17 2.38 17 0 17 C0 11.39 0 5.78 0 0 Z " fill="#F0F0EF" transform="translate(22,23)"/>
<path d="M0 0 C3.96 0 7.92 0 12 0 C12 5.61 12 11.22 12 17 C8.04 17 4.08 17 0 17 C0 11.39 0 5.78 0 0 Z " fill="#FFFFFE" transform="translate(8,23)"/>
<path d="M0 0 C0.99 1.485 0.99 1.485 2 3 C7.1024404 10.28706297 11.66035717 14.72955183 20 18 C20 18.33 20 18.66 20 19 C13.4 19 6.8 19 0 19 C0 12.73 0 6.46 0 0 Z " fill="#90C37C" transform="translate(0,37)"/>
<path d="M0 0 C0.99 0 1.98 0 3 0 C3 1.98 3 3.96 3 6 C3.66 6 4.32 6 5 6 C5 4.02 5 2.04 5 0 C5.99 0 6.98 0 8 0 C8.33 0.99 8.66 1.98 9 3 C9.33 2.01 9.66 1.02 10 0 C10.99 0 11.98 0 13 0 C12.85930804 2.12534659 12.71229079 4.25027529 12.5625 6.375 C12.48128906 7.55835938 12.40007813 8.74171875 12.31640625 9.9609375 C12 13 12 13 11 15 C10.01 15 9.02 15 8 15 C7.67 13.35 7.34 11.7 7 10 C6.34 11.65 5.68 13.3 5 15 C4.01 15 3.02 15 2 15 C0.73694665 9.92523206 -0.27036084 5.27203646 0 0 Z " fill="#20201F" transform="translate(27,24)"/>
<path d="M0 0 C1.17829199 2.35658397 1.04414372 3.52573236 0.87890625 6.1328125 C0.83056641 6.93847656 0.78222656 7.74414062 0.73242188 8.57421875 C0.64831055 9.83685547 0.64831055 9.83685547 0.5625 11.125 C0.51029297 11.97449219 0.45808594 12.82398438 0.40429688 13.69921875 C0.27448622 15.79979124 0.1378826 17.89994191 0 20 C3.96 20 7.92 20 12 20 C12 13.73 12 7.46 12 1 C20.91 0.67 29.82 0.34 39 0 C39 0.99 39 1.98 39 3 C30.75 3 22.5 3 14 3 C14.03957481 8.54973121 14.03957481 8.54973121 14.09008789 14.09936523 C14.09723091 16.06645974 14.05031893 18.03353621 14 20 C13 21 13 21 9.62109375 21.09765625 C8.22652923 21.09098369 6.83198257 21.07902532 5.4375 21.0625 C4.72658203 21.05798828 4.01566406 21.05347656 3.28320312 21.04882812 C1.52209987 21.03700864 -0.23896036 21.01907263 -2 21 C-1.86179731 17.6871348 -1.71316222 14.37482011 -1.5625 11.0625 C-1.52318359 10.11697266 -1.48386719 9.17144531 -1.44335938 8.19726562 C-1.40146484 7.29814453 -1.35957031 6.39902344 -1.31640625 5.47265625 C-1.27974854 4.64000244 -1.24309082 3.80734863 -1.20532227 2.94946289 C-1 1 -1 1 0 0 Z " fill="#4A4A49" transform="translate(8,20)"/>
<path d="M0 0 C4.0829596 -0.14518182 8.16525641 -0.23403347 12.25 -0.3125 C13.40886719 -0.35439453 14.56773438 -0.39628906 15.76171875 -0.43945312 C24.37401805 -0.56390832 24.37401805 -0.56390832 27.796875 2.51953125 C28.19390625 3.33808594 28.5909375 4.15664063 29 5 C24.9170404 5.14518182 20.83474359 5.23403347 16.75 5.3125 C15.59113281 5.35439453 14.43226562 5.39628906 13.23828125 5.43945312 C4.62598195 5.56390832 4.62598195 5.56390832 1.203125 2.48046875 C0.80609375 1.66191406 0.4090625 0.84335937 0 0 Z " fill="#FFFEFD" transform="translate(17,16)"/>
<path d="M0 0 C1.65 0 3.3 0 5 0 C5.66 5.61 6.32 11.22 7 17 C4.69 17 2.38 17 0 17 C0 11.39 0 5.78 0 0 Z " fill="#FEFEFD" transform="translate(22,23)"/>
<path d="M0 0 C2.1519437 3.22791555 2.20086443 4.28400809 2 8 C2.84304687 8.04898438 3.68609375 8.09796875 4.5546875 8.1484375 C6.19824219 8.26058594 6.19824219 8.26058594 7.875 8.375 C8.96554688 8.44460937 10.05609375 8.51421875 11.1796875 8.5859375 C14 9 14 9 16 11 C1.81 11 -12.38 11 -27 11 C-27 10.67 -27 10.34 -27 10 C-14.13 9.01 -14.13 9.01 -1 8 C-0.67 5.36 -0.34 2.72 0 0 Z " fill="#6D6D6C" transform="translate(33,31)"/>
<path d="M0 0 C1.875 0.0625 1.875 0.0625 4 1 C8 5.44444444 8 5.44444444 8 7 C4.04 7 0.08 7 -4 7 C-2 2 -2 2 0 0 Z " fill="#575857" transform="translate(12,16)"/>
<path d="M0 0 C-0.57878906 0.28359375 -1.15757813 0.5671875 -1.75390625 0.859375 C-8.05537935 4.05942743 -12.75569928 7.29672091 -17 13 C-17.66 12.34 -18.32 11.68 -19 11 C-7.91706566 -2.87893297 -7.91706566 -2.87893297 0 0 Z " fill="#4E6650" transform="translate(22,2)"/>
<path d="M0 0 C4.60862461 1.49102561 7.53330244 3.69454418 11 7 C11 7.99 11 8.98 11 10 C11.66 10 12.32 10 13 10 C13 10.99 13 11.98 13 13 C13.66 13 14.32 13 15 13 C14.67 13.99 14.34 14.98 14 16 C10 11 10 11 8.1875 8.4375 C5.41537009 5.34855525 2.67316907 3.9072224 -1 2 C-0.67 1.34 -0.34 0.68 0 0 Z " fill="#4E6751" transform="translate(38,2)"/>
<path d="M0 0 C5.94 0 11.88 0 18 0 C18 0.99 18 1.98 18 3 C11.73 2.67 5.46 2.34 -1 2 C-0.67 1.34 -0.34 0.68 0 0 Z " fill="#445F49" transform="translate(20,0)"/>
<path d="M0 0 C0.99 0 1.98 0 3 0 C2.67 4.29 2.34 8.58 2 13 C1.67 11.68 1.34 10.36 1 9 C0.34 9 -0.32 9 -1 9 C-1.625 6.1875 -1.625 6.1875 -2 3 C-1.34 2.01 -0.68 1.02 0 0 Z " fill="#4A4A49" transform="translate(37,24)"/>
<path d="M0 0 C0.99 0 1.98 0 3 0 C3 1.98 3 3.96 3 6 C3.66 6 4.32 6 5 6 C5 7.32 5 8.64 5 10 C4.01 10 3.02 10 2 10 C1.67 10.66 1.34 11.32 1 12 C0.67 8.04 0.34 4.08 0 0 Z " fill="#3D3D3D" transform="translate(27,24)"/>
<path d="M0 0 C0.33 0 0.66 0 1 0 C2.51708428 12.66970387 2.51708428 12.66970387 0 18 C-0.66 18 -1.32 18 -2 18 C-2.66 19.32 -3.32 20.64 -4 22 C-4 19 -4 19 -2.5625 16.0625 C-0.24149027 10.98255417 -0.26202043 5.50242896 0 0 Z " fill="#5F735F" transform="translate(53,23)"/>
<path d="M0 0 C1.9375 0.8125 1.9375 0.8125 4 2 C4.33 2.99 4.66 3.98 5 5 C2.36 5 -0.28 5 -3 5 C-2.01 3.35 -1.02 1.7 0 0 Z " fill="#ECECEB" transform="translate(13,16)"/>
<path d="M0 0 C-3.58752742 1.86551426 -7.27812193 3.42535928 -11 5 C-11 4.01 -11 3.02 -11 2 C-6.89657963 -0.38570952 -4.61380251 -1.49270081 0 0 Z " fill="#546C56" transform="translate(22,2)"/>
<path d="M0 0 C2.29013653 3.4352048 2.17842973 4.985331 2 9 C1.01 9 0.02 9 -1 9 C-0.67 6.03 -0.34 3.06 0 0 Z " fill="#C2C2C1" transform="translate(33,31)"/>
<path d="M0 0 C0 3 0 3 -2 5.1875 C-2.66 5.785625 -3.32 6.38375 -4 7 C-4.66 6.67 -5.32 6.34 -6 6 C-2.25 1.125 -2.25 1.125 0 0 Z " fill="#425E46" transform="translate(49,44)"/>
</svg>
