<?xml version="1.0" encoding="UTF-8"?>
<svg version="1.1" xmlns="http://www.w3.org/2000/svg" width="56" height="56">
<path d="M0 0 C18.48 0 36.96 0 56 0 C56 18.48 56 36.96 56 56 C37.52 56 19.04 56 0 56 C0 37.52 0 19.04 0 0 Z " fill="#FAFAF8" transform="translate(0,0)"/>
<path d="M0 0 C18.48 0 36.96 0 56 0 C56 18.48 56 36.96 56 56 C37.52 56 19.04 56 0 56 C0 37.52 0 19.04 0 0 Z M9 12 C4.40417114 19.08359946 1.85492975 25.47854701 3 34 C5.36508516 41.24998066 9.54576006 46.89169537 16 51 C23.00625166 53.8388223 30.570562 54.30277588 37.85546875 52.16015625 C43.94043503 49.42606399 47.63814296 45.71288545 51 40 C51.37382813 39.39800781 51.74765625 38.79601563 52.1328125 38.17578125 C54.3440225 32.62783543 53.82258101 25.26429301 52.3828125 19.55078125 C49.65786705 13.41362536 44.62030834 8.59769476 38.50390625 5.8984375 C28.07012343 2.49991463 16.8908605 3.65823318 9 12 Z " fill="#4A654E" transform="translate(0,0)"/>
<path d="M0 0 C1.98 0 3.96 0 6 0 C6 2.31 6 4.62 6 7 C6.66 7 7.32 7 8 7 C10.3208055 10.2491277 11.43697042 13.05879291 12 17 C12.99 17.33 13.98 17.66 15 18 C14.69320312 18.56203125 14.38640625 19.1240625 14.0703125 19.703125 C12.97042415 22.06346934 12.39904149 24.20465562 11.875 26.75 C11.70742188 27.54921875 11.53984375 28.3484375 11.3671875 29.171875 C11.24601562 29.77515625 11.12484375 30.3784375 11 31 C9.35 31 7.7 31 6 31 C6 28.03 6 25.06 6 22 C5.34 22 4.68 22 4 22 C4 26.62 4 31.24 4 36 C1.525 36.495 1.525 36.495 -1 37 C-1 35.35 -1 33.7 -1 32 C-1.66 31.67 -2.32 31.34 -3 31 C-3 32.65 -3 34.3 -3 36 C-3.66 36 -4.32 36 -5 36 C-5 33.36 -5 30.72 -5 28 C-3.68 27.67 -2.36 27.34 -1 27 C-1.66 26.34 -2.32 25.68 -3 25 C-3.66 25 -4.32 25 -5 25 C-5.33 24.01 -5.66 23.02 -6 22 C-6.66 21.67 -7.32 21.34 -8 21 C-8 19.68 -8 18.36 -8 17 C-7.34 17 -6.68 17 -6 17 C-5.9175 16.21625 -5.835 15.4325 -5.75 14.625 C-5.5025 13.75875 -5.255 12.8925 -5 12 C-4.34 11.7215625 -3.68 11.443125 -3 11.15625 C-2.34 10.7746875 -1.68 10.393125 -1 10 C-0.29823412 7.58320293 -0.29823412 7.58320293 -0.25 4.875 C-0.19328125 3.96492187 -0.1365625 3.05484375 -0.078125 2.1171875 C-0.05234375 1.41851562 -0.0265625 0.71984375 0 0 Z M8 22 C8 23.32 8 24.64 8 26 C8.66 25.67 9.32 25.34 10 25 C9.34 24.01 8.68 23.02 8 22 Z " fill="#373737" transform="translate(25,10)"/>
<path d="M0 0 C18.48 0 36.96 0 56 0 C56 6.93 56 13.86 56 21 C54.88633253 19.32949879 53.79109477 17.64472804 52.7734375 15.9140625 C48.62107551 9.11717947 44.31769663 6.06071885 37.25 2.6875 C27.35985623 0.5953542 19.4913343 1.80358187 11.06640625 7.25 C5.91061632 11.15287754 3.51087375 16.14515153 1 22 C0.67 22 0.34 22 0 22 C0 14.74 0 7.48 0 0 Z " fill="#90C37C" transform="translate(0,0)"/>
<path d="M0 0 C7.01350318 3.82668778 11.65693475 9.61142924 14.18359375 17.19140625 C14.89702885 26.94558451 14.97097079 35.4465538 8.46484375 43.25390625 C5.76265296 46.09349657 3.94586868 47.93731461 0.18359375 49.19140625 C1.7817608 45.80232837 3.71507113 42.71258325 5.74609375 39.56640625 C10.4998911 32.19357293 10.86327941 27.02731989 10.18359375 18.19140625 C8.57994055 12.02796805 4.56946184 7.47821929 -0.81640625 4.19140625 C-8.5694482 0.88826137 -15.57154955 0.58265372 -23.81640625 2.19140625 C-23.50390625 0.25390625 -23.50390625 0.25390625 -22.81640625 -1.80859375 C-15.18970178 -4.35082857 -7.20513592 -3.30859842 0 0 Z " fill="#47624B" transform="translate(41.81640625,3.80859375)"/>
<path d="M0 0 C6.27 0 12.54 0 19 0 C18.34 3.3 17.68 6.6 17 10 C15.35 10 13.7 10 12 10 C12 7.03 12 4.06 12 1 C11.34 1 10.68 1 10 1 C10 5.62 10 10.24 10 15 C8.35 15.33 6.7 15.66 5 16 C5 14.35 5 12.7 5 11 C4.34 10.67 3.68 10.34 3 10 C3 11.65 3 13.3 3 15 C2.34 15 1.68 15 1 15 C1 12.36 1 9.72 1 7 C2.32 6.67 3.64 6.34 5 6 C4.34 5.34 3.68 4.68 3 4 C2.34 4 1.68 4 1 4 C0.67 2.68 0.34 1.36 0 0 Z M14 1 C14 2.32 14 3.64 14 5 C14.66 4.67 15.32 4.34 16 4 C15.34 3.01 14.68 2.02 14 1 Z " fill="#80807F" transform="translate(19,31)"/>
<path d="M0 0 C1.56079093 2.34118639 2.58327699 4.2792825 3.6875 6.8125 C6.95682557 13.4240729 12.34226006 17.07708978 19 20 C19 20.33 19 20.66 19 21 C12.73 21 6.46 21 0 21 C0 14.07 0 7.14 0 0 Z " fill="#90C37C" transform="translate(0,35)"/>
<path d="M0 0 C0.33 0 0.66 0 1 0 C1 6.6 1 13.2 1 20 C-5.27 20 -11.54 20 -18 20 C-17.01 19.34 -16.02 18.68 -15 18 C-7.91884303 13.08170688 -2.27931952 8.70285635 0 0 Z " fill="#8FC17B" transform="translate(55,36)"/>
<path d="M0 0 C4.23998029 0.08180026 4.23998029 0.08180026 6.625 2.25 C7.5625 4.375 7.5625 4.375 7.5625 6.375 C8.2225 6.705 8.8825 7.035 9.5625 7.375 C9.5625 8.035 9.5625 8.695 9.5625 9.375 C2.9625 9.375 -3.6375 9.375 -10.4375 9.375 C-10.4375 8.715 -10.4375 8.055 -10.4375 7.375 C-9.4475 7.045 -8.4575 6.715 -7.4375 6.375 C-6.84679986 4.42896726 -6.84679986 4.42896726 -6.4375 2.375 C-4.03403621 -0.02846379 -3.29849805 0.05416253 0 0 Z " fill="#DBDBDA" transform="translate(28.4375,20.625)"/>
<path d="M0 0 C6.27 0 12.54 0 19 0 C18.34 3.3 17.68 6.6 17 10 C15.35 10 13.7 10 12 10 C12 7.03 12 4.06 12 1 C10.68 1 9.36 1 8 1 C7.67 1.99 7.34 2.98 7 4 C7 3.01 7 2.02 7 1 C6.34 1 5.68 1 5 1 C4.67 1.99 4.34 2.98 4 4 C3.01 4 2.02 4 1 4 C0.67 2.68 0.34 1.36 0 0 Z M14 1 C14 2.32 14 3.64 14 5 C14.66 4.67 15.32 4.34 16 4 C15.34 3.01 14.68 2.02 14 1 Z " fill="#C0C0BF" transform="translate(19,31)"/>
<path d="M0 0 C0.99 0.33 1.98 0.66 3 1 C3 3.97 3 6.94 3 10 C1.35 10.33 -0.3 10.66 -2 11 C-2.24042276 6.91281305 -1.42258812 3.82320557 0 0 Z " fill="#A6A6A6" transform="translate(26,36)"/>
<path d="M0 0 C0.99 0 1.98 0 3 0 C3.33 2.64 3.66 5.28 4 8 C2.35 8 0.7 8 -1 8 C-0.67 5.36 -0.34 2.72 0 0 Z " fill="#B4B5B4" transform="translate(27,11)"/>
<path d="M0 0 C0.33 0 0.66 0 1 0 C1 2.97 1 5.94 1 9 C-0.65 9 -2.3 9 -4 9 C-4 7.68 -4 6.36 -4 5 C-2.68 4.67 -1.36 4.34 0 4 C0 2.68 0 1.36 0 0 Z " fill="#848483" transform="translate(35,32)"/>
<path d="M0 0 C1.32 0 2.64 0 4 0 C4 0.99 4 1.98 4 3 C3.34 3 2.68 3 2 3 C2 4.65 2 6.3 2 8 C1.34 8 0.68 8 0 8 C0 5.36 0 2.72 0 0 Z " fill="#919291" transform="translate(20,38)"/>
</svg>
